%TF.GenerationSoftware,KiCad,Pcbnew,(5.1.4-0)*%
%TF.CreationDate,2022-08-29T09:53:46-04:00*%
%TF.ProjectId,Marvelous65 Split,4d617276-656c-46f7-9573-36352053706c,rev?*%
%TF.SameCoordinates,Original*%
%TF.FileFunction,Soldermask,Bot*%
%TF.FilePolarity,Negative*%
%FSLAX46Y46*%
G04 Gerber Fmt 4.6, Leading zero omitted, Abs format (unit mm)*
G04 Created by KiCad (PCBNEW (5.1.4-0)) date 2022-08-29 09:53:46*
%MOMM*%
%LPD*%
G04 APERTURE LIST*
%ADD10R,1.143000X0.635000*%
%ADD11C,1.750000*%
%ADD12C,2.250000*%
%ADD13C,3.987800*%
%ADD14C,0.787400*%
%ADD15C,3.048000*%
%ADD16C,0.900000*%
%ADD17R,1.500000X0.700000*%
%ADD18R,0.800000X1.000000*%
%ADD19R,1.060000X0.650000*%
%ADD20C,2.500000*%
%ADD21C,2.000000*%
%ADD22R,2.000000X3.200000*%
%ADD23R,2.000000X2.000000*%
%ADD24R,1.700000X1.000000*%
%ADD25C,0.100000*%
%ADD26C,0.950000*%
%ADD27C,1.397000*%
%ADD28C,1.700000*%
%ADD29O,2.000000X1.700000*%
%ADD30R,2.500000X1.200000*%
%ADD31C,1.500000*%
%ADD32R,1.700000X1.700000*%
%ADD33O,1.700000X1.700000*%
%ADD34O,1.000000X1.600000*%
%ADD35C,0.650000*%
%ADD36O,1.000000X2.100000*%
%ADD37R,0.300000X1.450000*%
%ADD38R,0.600000X1.450000*%
%ADD39R,1.500000X1.000000*%
%ADD40R,0.900000X1.200000*%
%ADD41R,1.200000X0.900000*%
%ADD42C,1.150000*%
G04 APERTURE END LIST*
D10*
%TO.C,JP4*%
X-10072385Y97736165D03*
X-10072385Y96735405D03*
%TD*%
%TO.C,JP3*%
X-20222385Y97626165D03*
X-20222385Y96625405D03*
%TD*%
%TO.C,JP2*%
X309857615Y97275405D03*
X309857615Y98276165D03*
%TD*%
%TO.C,JP1*%
X320367615Y97135405D03*
X320367615Y98136165D03*
%TD*%
D11*
%TO.C,K_T1*%
X120586950Y90067405D03*
X110426950Y90067405D03*
D12*
X111696950Y92607405D03*
D13*
X115506950Y90067405D03*
D12*
X118046950Y95147405D03*
%TD*%
D14*
%TO.C,REF\002A\002A*%
X151479115Y54510405D03*
X151479115Y53240405D03*
X151479115Y49430405D03*
X151479115Y50700405D03*
X151479115Y51970405D03*
%TD*%
%TO.C,REF\002A\002A*%
X139064865Y49430405D03*
X139064865Y50700405D03*
X139064865Y54510405D03*
X139064865Y53240405D03*
X139064865Y51970405D03*
%TD*%
%TO.C,REF\002A\002A*%
X151479115Y35460405D03*
X151479115Y34190405D03*
X151479115Y30380405D03*
X151479115Y31650405D03*
X151479115Y32920405D03*
%TD*%
%TO.C,REF\002A\002A*%
X139064865Y30380405D03*
X139064865Y31650405D03*
X139064865Y35460405D03*
X139064865Y34190405D03*
X139064865Y32920405D03*
%TD*%
%TO.C,REF\002A\002A*%
X141954115Y73560405D03*
X141954115Y72290405D03*
X141954115Y68480405D03*
X141954115Y69750405D03*
X141954115Y71020405D03*
%TD*%
%TO.C,REF\002A\002A*%
X129539865Y68480405D03*
X129539865Y69750405D03*
X129539865Y73560405D03*
X129539865Y72290405D03*
X129539865Y71020405D03*
%TD*%
%TO.C,REF\002A\002A*%
X124777365Y87530405D03*
X124777365Y88800405D03*
X124777365Y92610405D03*
X124777365Y91340405D03*
X124777365Y90070405D03*
%TD*%
%TO.C,REF\002A\002A*%
X137191615Y92610405D03*
X137191615Y91340405D03*
X137191615Y87530405D03*
X137191615Y88800405D03*
X137191615Y90070405D03*
%TD*%
%TO.C,REF\002A\002A*%
X146716615Y111660405D03*
X146716615Y110390405D03*
X146716615Y106580405D03*
X146716615Y107850405D03*
X146716615Y109120405D03*
%TD*%
%TO.C,REF\002A\002A*%
X134302365Y106580405D03*
X134302365Y107850405D03*
X134302365Y111660405D03*
X134302365Y110390405D03*
X134302365Y109120405D03*
%TD*%
D13*
%TO.C,ISO_ENTER1*%
X278701365Y92642155D03*
X278701365Y68766155D03*
D15*
X293941365Y92642155D03*
X293941365Y68766155D03*
D11*
X286956365Y75624155D03*
X286956365Y85784155D03*
D12*
X289496365Y84514155D03*
D13*
X286956365Y80704155D03*
D12*
X292036365Y78164155D03*
%TD*%
%TO.C,K_N1*%
X163285700Y57040575D03*
D13*
X160745700Y51960575D03*
D12*
X156935700Y54500575D03*
D11*
X155665700Y51960575D03*
X165825700Y51960575D03*
%TD*%
D13*
%TO.C,K_SPACE2*%
X105981950Y41172405D03*
X82169450Y41172405D03*
D15*
X105981950Y25932405D03*
X82169450Y25932405D03*
D11*
X99155700Y32917405D03*
X88995700Y32917405D03*
D12*
X90265700Y35457405D03*
D13*
X94075700Y32917405D03*
D12*
X96615700Y37997405D03*
%TD*%
D16*
%TO.C,SW6*%
X-19603635Y82985405D03*
X-19603635Y85985405D03*
D17*
X-17843635Y82235405D03*
X-17843635Y85235405D03*
X-17843635Y86735405D03*
D18*
X-20703635Y80835405D03*
X-20703635Y88135405D03*
X-18493635Y88135405D03*
X-18493635Y80835405D03*
%TD*%
D11*
%TO.C,K_FN2*%
X132493200Y32917405D03*
X122333200Y32917405D03*
D12*
X123603200Y35457405D03*
D13*
X127413200Y32917405D03*
D12*
X129953200Y37997405D03*
%TD*%
D13*
%TO.C,K_LSHIFT1*%
X34544450Y43712405D03*
X10731950Y43712405D03*
D15*
X34544450Y58952405D03*
X10731950Y58952405D03*
D11*
X27718200Y51967405D03*
X17558200Y51967405D03*
D12*
X18828200Y54507405D03*
D13*
X22638200Y51967405D03*
D12*
X25178200Y57047405D03*
%TD*%
D19*
%TO.C,U4*%
X6994450Y115092405D03*
X6994450Y116042405D03*
X6994450Y116992405D03*
X9194450Y116992405D03*
X9194450Y115092405D03*
X9194450Y116042405D03*
%TD*%
D20*
%TO.C,TP2*%
X-13080550Y27361155D03*
%TD*%
D21*
%TO.C,SW5*%
X-12686561Y116104566D03*
X-17686561Y116104566D03*
D22*
X-9586561Y109104566D03*
X-20786561Y109104566D03*
D21*
X-12686561Y101604566D03*
X-15186561Y101604566D03*
D23*
X-17686561Y101604566D03*
%TD*%
D24*
%TO.C,SW4*%
X-13933635Y75485405D03*
X-7633635Y75485405D03*
X-13933635Y79285405D03*
X-7633635Y79285405D03*
%TD*%
D25*
%TO.C,R12*%
G36*
X-9851021Y96860011D02*
G01*
X-9827966Y96856592D01*
X-9805357Y96850928D01*
X-9783413Y96843076D01*
X-9762343Y96833111D01*
X-9742352Y96821129D01*
X-9723632Y96807245D01*
X-9706362Y96791593D01*
X-9690710Y96774323D01*
X-9676826Y96755603D01*
X-9664844Y96735612D01*
X-9654879Y96714542D01*
X-9647027Y96692598D01*
X-9641363Y96669989D01*
X-9637944Y96646934D01*
X-9636800Y96623655D01*
X-9636800Y96048655D01*
X-9637944Y96025376D01*
X-9641363Y96002321D01*
X-9647027Y95979712D01*
X-9654879Y95957768D01*
X-9664844Y95936698D01*
X-9676826Y95916707D01*
X-9690710Y95897987D01*
X-9706362Y95880717D01*
X-9723632Y95865065D01*
X-9742352Y95851181D01*
X-9762343Y95839199D01*
X-9783413Y95829234D01*
X-9805357Y95821382D01*
X-9827966Y95815718D01*
X-9851021Y95812299D01*
X-9874300Y95811155D01*
X-10349300Y95811155D01*
X-10372579Y95812299D01*
X-10395634Y95815718D01*
X-10418243Y95821382D01*
X-10440187Y95829234D01*
X-10461257Y95839199D01*
X-10481248Y95851181D01*
X-10499968Y95865065D01*
X-10517238Y95880717D01*
X-10532890Y95897987D01*
X-10546774Y95916707D01*
X-10558756Y95936698D01*
X-10568721Y95957768D01*
X-10576573Y95979712D01*
X-10582237Y96002321D01*
X-10585656Y96025376D01*
X-10586800Y96048655D01*
X-10586800Y96623655D01*
X-10585656Y96646934D01*
X-10582237Y96669989D01*
X-10576573Y96692598D01*
X-10568721Y96714542D01*
X-10558756Y96735612D01*
X-10546774Y96755603D01*
X-10532890Y96774323D01*
X-10517238Y96791593D01*
X-10499968Y96807245D01*
X-10481248Y96821129D01*
X-10461257Y96833111D01*
X-10440187Y96843076D01*
X-10418243Y96850928D01*
X-10395634Y96856592D01*
X-10372579Y96860011D01*
X-10349300Y96861155D01*
X-9874300Y96861155D01*
X-9851021Y96860011D01*
X-9851021Y96860011D01*
G37*
D26*
X-10111800Y96336155D03*
D25*
G36*
X-9851021Y98610011D02*
G01*
X-9827966Y98606592D01*
X-9805357Y98600928D01*
X-9783413Y98593076D01*
X-9762343Y98583111D01*
X-9742352Y98571129D01*
X-9723632Y98557245D01*
X-9706362Y98541593D01*
X-9690710Y98524323D01*
X-9676826Y98505603D01*
X-9664844Y98485612D01*
X-9654879Y98464542D01*
X-9647027Y98442598D01*
X-9641363Y98419989D01*
X-9637944Y98396934D01*
X-9636800Y98373655D01*
X-9636800Y97798655D01*
X-9637944Y97775376D01*
X-9641363Y97752321D01*
X-9647027Y97729712D01*
X-9654879Y97707768D01*
X-9664844Y97686698D01*
X-9676826Y97666707D01*
X-9690710Y97647987D01*
X-9706362Y97630717D01*
X-9723632Y97615065D01*
X-9742352Y97601181D01*
X-9762343Y97589199D01*
X-9783413Y97579234D01*
X-9805357Y97571382D01*
X-9827966Y97565718D01*
X-9851021Y97562299D01*
X-9874300Y97561155D01*
X-10349300Y97561155D01*
X-10372579Y97562299D01*
X-10395634Y97565718D01*
X-10418243Y97571382D01*
X-10440187Y97579234D01*
X-10461257Y97589199D01*
X-10481248Y97601181D01*
X-10499968Y97615065D01*
X-10517238Y97630717D01*
X-10532890Y97647987D01*
X-10546774Y97666707D01*
X-10558756Y97686698D01*
X-10568721Y97707768D01*
X-10576573Y97729712D01*
X-10582237Y97752321D01*
X-10585656Y97775376D01*
X-10586800Y97798655D01*
X-10586800Y98373655D01*
X-10585656Y98396934D01*
X-10582237Y98419989D01*
X-10576573Y98442598D01*
X-10568721Y98464542D01*
X-10558756Y98485612D01*
X-10546774Y98505603D01*
X-10532890Y98524323D01*
X-10517238Y98541593D01*
X-10499968Y98557245D01*
X-10481248Y98571129D01*
X-10461257Y98583111D01*
X-10440187Y98593076D01*
X-10418243Y98600928D01*
X-10395634Y98606592D01*
X-10372579Y98610011D01*
X-10349300Y98611155D01*
X-9874300Y98611155D01*
X-9851021Y98610011D01*
X-9851021Y98610011D01*
G37*
D26*
X-10111800Y98086155D03*
%TD*%
D25*
%TO.C,R11*%
G36*
X-11544771Y96767261D02*
G01*
X-11521716Y96763842D01*
X-11499107Y96758178D01*
X-11477163Y96750326D01*
X-11456093Y96740361D01*
X-11436102Y96728379D01*
X-11417382Y96714495D01*
X-11400112Y96698843D01*
X-11384460Y96681573D01*
X-11370576Y96662853D01*
X-11358594Y96642862D01*
X-11348629Y96621792D01*
X-11340777Y96599848D01*
X-11335113Y96577239D01*
X-11331694Y96554184D01*
X-11330550Y96530905D01*
X-11330550Y96055905D01*
X-11331694Y96032626D01*
X-11335113Y96009571D01*
X-11340777Y95986962D01*
X-11348629Y95965018D01*
X-11358594Y95943948D01*
X-11370576Y95923957D01*
X-11384460Y95905237D01*
X-11400112Y95887967D01*
X-11417382Y95872315D01*
X-11436102Y95858431D01*
X-11456093Y95846449D01*
X-11477163Y95836484D01*
X-11499107Y95828632D01*
X-11521716Y95822968D01*
X-11544771Y95819549D01*
X-11568050Y95818405D01*
X-12143050Y95818405D01*
X-12166329Y95819549D01*
X-12189384Y95822968D01*
X-12211993Y95828632D01*
X-12233937Y95836484D01*
X-12255007Y95846449D01*
X-12274998Y95858431D01*
X-12293718Y95872315D01*
X-12310988Y95887967D01*
X-12326640Y95905237D01*
X-12340524Y95923957D01*
X-12352506Y95943948D01*
X-12362471Y95965018D01*
X-12370323Y95986962D01*
X-12375987Y96009571D01*
X-12379406Y96032626D01*
X-12380550Y96055905D01*
X-12380550Y96530905D01*
X-12379406Y96554184D01*
X-12375987Y96577239D01*
X-12370323Y96599848D01*
X-12362471Y96621792D01*
X-12352506Y96642862D01*
X-12340524Y96662853D01*
X-12326640Y96681573D01*
X-12310988Y96698843D01*
X-12293718Y96714495D01*
X-12274998Y96728379D01*
X-12255007Y96740361D01*
X-12233937Y96750326D01*
X-12211993Y96758178D01*
X-12189384Y96763842D01*
X-12166329Y96767261D01*
X-12143050Y96768405D01*
X-11568050Y96768405D01*
X-11544771Y96767261D01*
X-11544771Y96767261D01*
G37*
D26*
X-11855550Y96293405D03*
D25*
G36*
X-13294771Y96767261D02*
G01*
X-13271716Y96763842D01*
X-13249107Y96758178D01*
X-13227163Y96750326D01*
X-13206093Y96740361D01*
X-13186102Y96728379D01*
X-13167382Y96714495D01*
X-13150112Y96698843D01*
X-13134460Y96681573D01*
X-13120576Y96662853D01*
X-13108594Y96642862D01*
X-13098629Y96621792D01*
X-13090777Y96599848D01*
X-13085113Y96577239D01*
X-13081694Y96554184D01*
X-13080550Y96530905D01*
X-13080550Y96055905D01*
X-13081694Y96032626D01*
X-13085113Y96009571D01*
X-13090777Y95986962D01*
X-13098629Y95965018D01*
X-13108594Y95943948D01*
X-13120576Y95923957D01*
X-13134460Y95905237D01*
X-13150112Y95887967D01*
X-13167382Y95872315D01*
X-13186102Y95858431D01*
X-13206093Y95846449D01*
X-13227163Y95836484D01*
X-13249107Y95828632D01*
X-13271716Y95822968D01*
X-13294771Y95819549D01*
X-13318050Y95818405D01*
X-13893050Y95818405D01*
X-13916329Y95819549D01*
X-13939384Y95822968D01*
X-13961993Y95828632D01*
X-13983937Y95836484D01*
X-14005007Y95846449D01*
X-14024998Y95858431D01*
X-14043718Y95872315D01*
X-14060988Y95887967D01*
X-14076640Y95905237D01*
X-14090524Y95923957D01*
X-14102506Y95943948D01*
X-14112471Y95965018D01*
X-14120323Y95986962D01*
X-14125987Y96009571D01*
X-14129406Y96032626D01*
X-14130550Y96055905D01*
X-14130550Y96530905D01*
X-14129406Y96554184D01*
X-14125987Y96577239D01*
X-14120323Y96599848D01*
X-14112471Y96621792D01*
X-14102506Y96642862D01*
X-14090524Y96662853D01*
X-14076640Y96681573D01*
X-14060988Y96698843D01*
X-14043718Y96714495D01*
X-14024998Y96728379D01*
X-14005007Y96740361D01*
X-13983937Y96750326D01*
X-13961993Y96758178D01*
X-13939384Y96763842D01*
X-13916329Y96767261D01*
X-13893050Y96768405D01*
X-13318050Y96768405D01*
X-13294771Y96767261D01*
X-13294771Y96767261D01*
G37*
D26*
X-13605550Y96293405D03*
%TD*%
D25*
%TO.C,R10*%
G36*
X-18244771Y96767261D02*
G01*
X-18221716Y96763842D01*
X-18199107Y96758178D01*
X-18177163Y96750326D01*
X-18156093Y96740361D01*
X-18136102Y96728379D01*
X-18117382Y96714495D01*
X-18100112Y96698843D01*
X-18084460Y96681573D01*
X-18070576Y96662853D01*
X-18058594Y96642862D01*
X-18048629Y96621792D01*
X-18040777Y96599848D01*
X-18035113Y96577239D01*
X-18031694Y96554184D01*
X-18030550Y96530905D01*
X-18030550Y96055905D01*
X-18031694Y96032626D01*
X-18035113Y96009571D01*
X-18040777Y95986962D01*
X-18048629Y95965018D01*
X-18058594Y95943948D01*
X-18070576Y95923957D01*
X-18084460Y95905237D01*
X-18100112Y95887967D01*
X-18117382Y95872315D01*
X-18136102Y95858431D01*
X-18156093Y95846449D01*
X-18177163Y95836484D01*
X-18199107Y95828632D01*
X-18221716Y95822968D01*
X-18244771Y95819549D01*
X-18268050Y95818405D01*
X-18843050Y95818405D01*
X-18866329Y95819549D01*
X-18889384Y95822968D01*
X-18911993Y95828632D01*
X-18933937Y95836484D01*
X-18955007Y95846449D01*
X-18974998Y95858431D01*
X-18993718Y95872315D01*
X-19010988Y95887967D01*
X-19026640Y95905237D01*
X-19040524Y95923957D01*
X-19052506Y95943948D01*
X-19062471Y95965018D01*
X-19070323Y95986962D01*
X-19075987Y96009571D01*
X-19079406Y96032626D01*
X-19080550Y96055905D01*
X-19080550Y96530905D01*
X-19079406Y96554184D01*
X-19075987Y96577239D01*
X-19070323Y96599848D01*
X-19062471Y96621792D01*
X-19052506Y96642862D01*
X-19040524Y96662853D01*
X-19026640Y96681573D01*
X-19010988Y96698843D01*
X-18993718Y96714495D01*
X-18974998Y96728379D01*
X-18955007Y96740361D01*
X-18933937Y96750326D01*
X-18911993Y96758178D01*
X-18889384Y96763842D01*
X-18866329Y96767261D01*
X-18843050Y96768405D01*
X-18268050Y96768405D01*
X-18244771Y96767261D01*
X-18244771Y96767261D01*
G37*
D26*
X-18555550Y96293405D03*
D25*
G36*
X-16494771Y96767261D02*
G01*
X-16471716Y96763842D01*
X-16449107Y96758178D01*
X-16427163Y96750326D01*
X-16406093Y96740361D01*
X-16386102Y96728379D01*
X-16367382Y96714495D01*
X-16350112Y96698843D01*
X-16334460Y96681573D01*
X-16320576Y96662853D01*
X-16308594Y96642862D01*
X-16298629Y96621792D01*
X-16290777Y96599848D01*
X-16285113Y96577239D01*
X-16281694Y96554184D01*
X-16280550Y96530905D01*
X-16280550Y96055905D01*
X-16281694Y96032626D01*
X-16285113Y96009571D01*
X-16290777Y95986962D01*
X-16298629Y95965018D01*
X-16308594Y95943948D01*
X-16320576Y95923957D01*
X-16334460Y95905237D01*
X-16350112Y95887967D01*
X-16367382Y95872315D01*
X-16386102Y95858431D01*
X-16406093Y95846449D01*
X-16427163Y95836484D01*
X-16449107Y95828632D01*
X-16471716Y95822968D01*
X-16494771Y95819549D01*
X-16518050Y95818405D01*
X-17093050Y95818405D01*
X-17116329Y95819549D01*
X-17139384Y95822968D01*
X-17161993Y95828632D01*
X-17183937Y95836484D01*
X-17205007Y95846449D01*
X-17224998Y95858431D01*
X-17243718Y95872315D01*
X-17260988Y95887967D01*
X-17276640Y95905237D01*
X-17290524Y95923957D01*
X-17302506Y95943948D01*
X-17312471Y95965018D01*
X-17320323Y95986962D01*
X-17325987Y96009571D01*
X-17329406Y96032626D01*
X-17330550Y96055905D01*
X-17330550Y96530905D01*
X-17329406Y96554184D01*
X-17325987Y96577239D01*
X-17320323Y96599848D01*
X-17312471Y96621792D01*
X-17302506Y96642862D01*
X-17290524Y96662853D01*
X-17276640Y96681573D01*
X-17260988Y96698843D01*
X-17243718Y96714495D01*
X-17224998Y96728379D01*
X-17205007Y96740361D01*
X-17183937Y96750326D01*
X-17161993Y96758178D01*
X-17139384Y96763842D01*
X-17116329Y96767261D01*
X-17093050Y96768405D01*
X-16518050Y96768405D01*
X-16494771Y96767261D01*
X-16494771Y96767261D01*
G37*
D26*
X-16805550Y96293405D03*
%TD*%
D25*
%TO.C,R9*%
G36*
X-19963521Y98610011D02*
G01*
X-19940466Y98606592D01*
X-19917857Y98600928D01*
X-19895913Y98593076D01*
X-19874843Y98583111D01*
X-19854852Y98571129D01*
X-19836132Y98557245D01*
X-19818862Y98541593D01*
X-19803210Y98524323D01*
X-19789326Y98505603D01*
X-19777344Y98485612D01*
X-19767379Y98464542D01*
X-19759527Y98442598D01*
X-19753863Y98419989D01*
X-19750444Y98396934D01*
X-19749300Y98373655D01*
X-19749300Y97798655D01*
X-19750444Y97775376D01*
X-19753863Y97752321D01*
X-19759527Y97729712D01*
X-19767379Y97707768D01*
X-19777344Y97686698D01*
X-19789326Y97666707D01*
X-19803210Y97647987D01*
X-19818862Y97630717D01*
X-19836132Y97615065D01*
X-19854852Y97601181D01*
X-19874843Y97589199D01*
X-19895913Y97579234D01*
X-19917857Y97571382D01*
X-19940466Y97565718D01*
X-19963521Y97562299D01*
X-19986800Y97561155D01*
X-20461800Y97561155D01*
X-20485079Y97562299D01*
X-20508134Y97565718D01*
X-20530743Y97571382D01*
X-20552687Y97579234D01*
X-20573757Y97589199D01*
X-20593748Y97601181D01*
X-20612468Y97615065D01*
X-20629738Y97630717D01*
X-20645390Y97647987D01*
X-20659274Y97666707D01*
X-20671256Y97686698D01*
X-20681221Y97707768D01*
X-20689073Y97729712D01*
X-20694737Y97752321D01*
X-20698156Y97775376D01*
X-20699300Y97798655D01*
X-20699300Y98373655D01*
X-20698156Y98396934D01*
X-20694737Y98419989D01*
X-20689073Y98442598D01*
X-20681221Y98464542D01*
X-20671256Y98485612D01*
X-20659274Y98505603D01*
X-20645390Y98524323D01*
X-20629738Y98541593D01*
X-20612468Y98557245D01*
X-20593748Y98571129D01*
X-20573757Y98583111D01*
X-20552687Y98593076D01*
X-20530743Y98600928D01*
X-20508134Y98606592D01*
X-20485079Y98610011D01*
X-20461800Y98611155D01*
X-19986800Y98611155D01*
X-19963521Y98610011D01*
X-19963521Y98610011D01*
G37*
D26*
X-20224300Y98086155D03*
D25*
G36*
X-19963521Y96860011D02*
G01*
X-19940466Y96856592D01*
X-19917857Y96850928D01*
X-19895913Y96843076D01*
X-19874843Y96833111D01*
X-19854852Y96821129D01*
X-19836132Y96807245D01*
X-19818862Y96791593D01*
X-19803210Y96774323D01*
X-19789326Y96755603D01*
X-19777344Y96735612D01*
X-19767379Y96714542D01*
X-19759527Y96692598D01*
X-19753863Y96669989D01*
X-19750444Y96646934D01*
X-19749300Y96623655D01*
X-19749300Y96048655D01*
X-19750444Y96025376D01*
X-19753863Y96002321D01*
X-19759527Y95979712D01*
X-19767379Y95957768D01*
X-19777344Y95936698D01*
X-19789326Y95916707D01*
X-19803210Y95897987D01*
X-19818862Y95880717D01*
X-19836132Y95865065D01*
X-19854852Y95851181D01*
X-19874843Y95839199D01*
X-19895913Y95829234D01*
X-19917857Y95821382D01*
X-19940466Y95815718D01*
X-19963521Y95812299D01*
X-19986800Y95811155D01*
X-20461800Y95811155D01*
X-20485079Y95812299D01*
X-20508134Y95815718D01*
X-20530743Y95821382D01*
X-20552687Y95829234D01*
X-20573757Y95839199D01*
X-20593748Y95851181D01*
X-20612468Y95865065D01*
X-20629738Y95880717D01*
X-20645390Y95897987D01*
X-20659274Y95916707D01*
X-20671256Y95936698D01*
X-20681221Y95957768D01*
X-20689073Y95979712D01*
X-20694737Y96002321D01*
X-20698156Y96025376D01*
X-20699300Y96048655D01*
X-20699300Y96623655D01*
X-20698156Y96646934D01*
X-20694737Y96669989D01*
X-20689073Y96692598D01*
X-20681221Y96714542D01*
X-20671256Y96735612D01*
X-20659274Y96755603D01*
X-20645390Y96774323D01*
X-20629738Y96791593D01*
X-20612468Y96807245D01*
X-20593748Y96821129D01*
X-20573757Y96833111D01*
X-20552687Y96843076D01*
X-20530743Y96850928D01*
X-20508134Y96856592D01*
X-20485079Y96860011D01*
X-20461800Y96861155D01*
X-19986800Y96861155D01*
X-19963521Y96860011D01*
X-19963521Y96860011D01*
G37*
D26*
X-20224300Y96336155D03*
%TD*%
D25*
%TO.C,R8*%
G36*
X24536479Y116735011D02*
G01*
X24559534Y116731592D01*
X24582143Y116725928D01*
X24604087Y116718076D01*
X24625157Y116708111D01*
X24645148Y116696129D01*
X24663868Y116682245D01*
X24681138Y116666593D01*
X24696790Y116649323D01*
X24710674Y116630603D01*
X24722656Y116610612D01*
X24732621Y116589542D01*
X24740473Y116567598D01*
X24746137Y116544989D01*
X24749556Y116521934D01*
X24750700Y116498655D01*
X24750700Y116023655D01*
X24749556Y116000376D01*
X24746137Y115977321D01*
X24740473Y115954712D01*
X24732621Y115932768D01*
X24722656Y115911698D01*
X24710674Y115891707D01*
X24696790Y115872987D01*
X24681138Y115855717D01*
X24663868Y115840065D01*
X24645148Y115826181D01*
X24625157Y115814199D01*
X24604087Y115804234D01*
X24582143Y115796382D01*
X24559534Y115790718D01*
X24536479Y115787299D01*
X24513200Y115786155D01*
X23938200Y115786155D01*
X23914921Y115787299D01*
X23891866Y115790718D01*
X23869257Y115796382D01*
X23847313Y115804234D01*
X23826243Y115814199D01*
X23806252Y115826181D01*
X23787532Y115840065D01*
X23770262Y115855717D01*
X23754610Y115872987D01*
X23740726Y115891707D01*
X23728744Y115911698D01*
X23718779Y115932768D01*
X23710927Y115954712D01*
X23705263Y115977321D01*
X23701844Y116000376D01*
X23700700Y116023655D01*
X23700700Y116498655D01*
X23701844Y116521934D01*
X23705263Y116544989D01*
X23710927Y116567598D01*
X23718779Y116589542D01*
X23728744Y116610612D01*
X23740726Y116630603D01*
X23754610Y116649323D01*
X23770262Y116666593D01*
X23787532Y116682245D01*
X23806252Y116696129D01*
X23826243Y116708111D01*
X23847313Y116718076D01*
X23869257Y116725928D01*
X23891866Y116731592D01*
X23914921Y116735011D01*
X23938200Y116736155D01*
X24513200Y116736155D01*
X24536479Y116735011D01*
X24536479Y116735011D01*
G37*
D26*
X24225700Y116261155D03*
D25*
G36*
X22786479Y116735011D02*
G01*
X22809534Y116731592D01*
X22832143Y116725928D01*
X22854087Y116718076D01*
X22875157Y116708111D01*
X22895148Y116696129D01*
X22913868Y116682245D01*
X22931138Y116666593D01*
X22946790Y116649323D01*
X22960674Y116630603D01*
X22972656Y116610612D01*
X22982621Y116589542D01*
X22990473Y116567598D01*
X22996137Y116544989D01*
X22999556Y116521934D01*
X23000700Y116498655D01*
X23000700Y116023655D01*
X22999556Y116000376D01*
X22996137Y115977321D01*
X22990473Y115954712D01*
X22982621Y115932768D01*
X22972656Y115911698D01*
X22960674Y115891707D01*
X22946790Y115872987D01*
X22931138Y115855717D01*
X22913868Y115840065D01*
X22895148Y115826181D01*
X22875157Y115814199D01*
X22854087Y115804234D01*
X22832143Y115796382D01*
X22809534Y115790718D01*
X22786479Y115787299D01*
X22763200Y115786155D01*
X22188200Y115786155D01*
X22164921Y115787299D01*
X22141866Y115790718D01*
X22119257Y115796382D01*
X22097313Y115804234D01*
X22076243Y115814199D01*
X22056252Y115826181D01*
X22037532Y115840065D01*
X22020262Y115855717D01*
X22004610Y115872987D01*
X21990726Y115891707D01*
X21978744Y115911698D01*
X21968779Y115932768D01*
X21960927Y115954712D01*
X21955263Y115977321D01*
X21951844Y116000376D01*
X21950700Y116023655D01*
X21950700Y116498655D01*
X21951844Y116521934D01*
X21955263Y116544989D01*
X21960927Y116567598D01*
X21968779Y116589542D01*
X21978744Y116610612D01*
X21990726Y116630603D01*
X22004610Y116649323D01*
X22020262Y116666593D01*
X22037532Y116682245D01*
X22056252Y116696129D01*
X22076243Y116708111D01*
X22097313Y116718076D01*
X22119257Y116725928D01*
X22141866Y116731592D01*
X22164921Y116735011D01*
X22188200Y116736155D01*
X22763200Y116736155D01*
X22786479Y116735011D01*
X22786479Y116735011D01*
G37*
D26*
X22475700Y116261155D03*
%TD*%
D25*
%TO.C,R7*%
G36*
X16155229Y117116261D02*
G01*
X16178284Y117112842D01*
X16200893Y117107178D01*
X16222837Y117099326D01*
X16243907Y117089361D01*
X16263898Y117077379D01*
X16282618Y117063495D01*
X16299888Y117047843D01*
X16315540Y117030573D01*
X16329424Y117011853D01*
X16341406Y116991862D01*
X16351371Y116970792D01*
X16359223Y116948848D01*
X16364887Y116926239D01*
X16368306Y116903184D01*
X16369450Y116879905D01*
X16369450Y116404905D01*
X16368306Y116381626D01*
X16364887Y116358571D01*
X16359223Y116335962D01*
X16351371Y116314018D01*
X16341406Y116292948D01*
X16329424Y116272957D01*
X16315540Y116254237D01*
X16299888Y116236967D01*
X16282618Y116221315D01*
X16263898Y116207431D01*
X16243907Y116195449D01*
X16222837Y116185484D01*
X16200893Y116177632D01*
X16178284Y116171968D01*
X16155229Y116168549D01*
X16131950Y116167405D01*
X15556950Y116167405D01*
X15533671Y116168549D01*
X15510616Y116171968D01*
X15488007Y116177632D01*
X15466063Y116185484D01*
X15444993Y116195449D01*
X15425002Y116207431D01*
X15406282Y116221315D01*
X15389012Y116236967D01*
X15373360Y116254237D01*
X15359476Y116272957D01*
X15347494Y116292948D01*
X15337529Y116314018D01*
X15329677Y116335962D01*
X15324013Y116358571D01*
X15320594Y116381626D01*
X15319450Y116404905D01*
X15319450Y116879905D01*
X15320594Y116903184D01*
X15324013Y116926239D01*
X15329677Y116948848D01*
X15337529Y116970792D01*
X15347494Y116991862D01*
X15359476Y117011853D01*
X15373360Y117030573D01*
X15389012Y117047843D01*
X15406282Y117063495D01*
X15425002Y117077379D01*
X15444993Y117089361D01*
X15466063Y117099326D01*
X15488007Y117107178D01*
X15510616Y117112842D01*
X15533671Y117116261D01*
X15556950Y117117405D01*
X16131950Y117117405D01*
X16155229Y117116261D01*
X16155229Y117116261D01*
G37*
D26*
X15844450Y116642405D03*
D25*
G36*
X17905229Y117116261D02*
G01*
X17928284Y117112842D01*
X17950893Y117107178D01*
X17972837Y117099326D01*
X17993907Y117089361D01*
X18013898Y117077379D01*
X18032618Y117063495D01*
X18049888Y117047843D01*
X18065540Y117030573D01*
X18079424Y117011853D01*
X18091406Y116991862D01*
X18101371Y116970792D01*
X18109223Y116948848D01*
X18114887Y116926239D01*
X18118306Y116903184D01*
X18119450Y116879905D01*
X18119450Y116404905D01*
X18118306Y116381626D01*
X18114887Y116358571D01*
X18109223Y116335962D01*
X18101371Y116314018D01*
X18091406Y116292948D01*
X18079424Y116272957D01*
X18065540Y116254237D01*
X18049888Y116236967D01*
X18032618Y116221315D01*
X18013898Y116207431D01*
X17993907Y116195449D01*
X17972837Y116185484D01*
X17950893Y116177632D01*
X17928284Y116171968D01*
X17905229Y116168549D01*
X17881950Y116167405D01*
X17306950Y116167405D01*
X17283671Y116168549D01*
X17260616Y116171968D01*
X17238007Y116177632D01*
X17216063Y116185484D01*
X17194993Y116195449D01*
X17175002Y116207431D01*
X17156282Y116221315D01*
X17139012Y116236967D01*
X17123360Y116254237D01*
X17109476Y116272957D01*
X17097494Y116292948D01*
X17087529Y116314018D01*
X17079677Y116335962D01*
X17074013Y116358571D01*
X17070594Y116381626D01*
X17069450Y116404905D01*
X17069450Y116879905D01*
X17070594Y116903184D01*
X17074013Y116926239D01*
X17079677Y116948848D01*
X17087529Y116970792D01*
X17097494Y116991862D01*
X17109476Y117011853D01*
X17123360Y117030573D01*
X17139012Y117047843D01*
X17156282Y117063495D01*
X17175002Y117077379D01*
X17194993Y117089361D01*
X17216063Y117099326D01*
X17238007Y117107178D01*
X17260616Y117112842D01*
X17283671Y117116261D01*
X17306950Y117117405D01*
X17881950Y117117405D01*
X17905229Y117116261D01*
X17905229Y117116261D01*
G37*
D26*
X17594450Y116642405D03*
%TD*%
D27*
%TO.C,OL2*%
X-11352257Y90957748D03*
X-13892257Y90957748D03*
X-16432257Y90957748D03*
X-18972257Y90957748D03*
%TD*%
D12*
%TO.C,L_ENC1*%
X-12660243Y114197305D03*
D13*
X-15200243Y109117305D03*
D12*
X-19010243Y111657305D03*
D11*
X-20280243Y109117305D03*
X-10120243Y109117305D03*
%TD*%
%TO.C,K_Z1*%
X58674450Y51967405D03*
X48514450Y51967405D03*
D12*
X49784450Y54507405D03*
D13*
X53594450Y51967405D03*
D12*
X56134450Y57047405D03*
%TD*%
D11*
%TO.C,K_X1*%
X77724450Y51967405D03*
X67564450Y51967405D03*
D12*
X68834450Y54507405D03*
D13*
X72644450Y51967405D03*
D12*
X75184450Y57047405D03*
%TD*%
D11*
%TO.C,K_WIN1*%
X42005700Y32917405D03*
X31845700Y32917405D03*
D12*
X33115700Y35457405D03*
D13*
X36925700Y32917405D03*
D12*
X39465700Y37997405D03*
%TD*%
D11*
%TO.C,K_W1*%
X63436950Y90067405D03*
X53276950Y90067405D03*
D12*
X54546950Y92607405D03*
D13*
X58356950Y90067405D03*
D12*
X60896950Y95147405D03*
%TD*%
D11*
%TO.C,K_V1*%
X115824450Y51967405D03*
X105664450Y51967405D03*
D12*
X106934450Y54507405D03*
D13*
X110744450Y51967405D03*
D12*
X113284450Y57047405D03*
%TD*%
D11*
%TO.C,K_TAB1*%
X20574450Y90067405D03*
X10414450Y90067405D03*
D12*
X11684450Y92607405D03*
D13*
X15494450Y90067405D03*
D12*
X18034450Y95147405D03*
%TD*%
D11*
%TO.C,K_SHIFT_ISO1*%
X18193200Y51967405D03*
X8033200Y51967405D03*
D12*
X9303200Y54507405D03*
D13*
X13113200Y51967405D03*
D12*
X15653200Y57047405D03*
%TD*%
D11*
%TO.C,K_S1*%
X68199450Y71017405D03*
X58039450Y71017405D03*
D12*
X59309450Y73557405D03*
D13*
X63119450Y71017405D03*
D12*
X65659450Y76097405D03*
%TD*%
D11*
%TO.C,K_R1*%
X101536950Y90067405D03*
X91376950Y90067405D03*
D12*
X92646950Y92607405D03*
D13*
X96456950Y90067405D03*
D12*
X98996950Y95147405D03*
%TD*%
D11*
%TO.C,K_Q1*%
X44386950Y90067405D03*
X34226950Y90067405D03*
D12*
X35496950Y92607405D03*
D13*
X39306950Y90067405D03*
D12*
X41846950Y95147405D03*
%TD*%
D11*
%TO.C,K_NUM6*%
X130111950Y109117405D03*
X119951950Y109117405D03*
D12*
X121221950Y111657405D03*
D13*
X125031950Y109117405D03*
D12*
X127571950Y114197405D03*
%TD*%
D11*
%TO.C,K_NUM5*%
X111061950Y109117405D03*
X100901950Y109117405D03*
D12*
X102171950Y111657405D03*
D13*
X105981950Y109117405D03*
D12*
X108521950Y114197405D03*
%TD*%
D11*
%TO.C,K_NUM4*%
X92011950Y109117405D03*
X81851950Y109117405D03*
D12*
X83121950Y111657405D03*
D13*
X86931950Y109117405D03*
D12*
X89471950Y114197405D03*
%TD*%
D11*
%TO.C,K_NUM3*%
X72961950Y109117405D03*
X62801950Y109117405D03*
D12*
X64071950Y111657405D03*
D13*
X67881950Y109117405D03*
D12*
X70421950Y114197405D03*
%TD*%
D11*
%TO.C,K_NUM2*%
X53911950Y109117405D03*
X43751950Y109117405D03*
D12*
X45021950Y111657405D03*
D13*
X48831950Y109117405D03*
D12*
X51371950Y114197405D03*
%TD*%
D11*
%TO.C,K_NUM1*%
X34861950Y109117405D03*
X24701950Y109117405D03*
D12*
X25971950Y111657405D03*
D13*
X29781950Y109117405D03*
D12*
X32321950Y114197405D03*
%TD*%
D11*
%TO.C,K_ISO_K1*%
X39624450Y51967405D03*
X29464450Y51967405D03*
D12*
X30734450Y54507405D03*
D13*
X34544450Y51967405D03*
D12*
X37084450Y57047405D03*
%TD*%
D11*
%TO.C,K_GRAVE1*%
X15811950Y109117405D03*
X5651950Y109117405D03*
D12*
X6921950Y111657405D03*
D13*
X10731950Y109117405D03*
D12*
X13271950Y114197405D03*
%TD*%
D11*
%TO.C,K_G1*%
X125349450Y71017405D03*
X115189450Y71017405D03*
D12*
X116459450Y73557405D03*
D13*
X120269450Y71017405D03*
D12*
X122809450Y76097405D03*
%TD*%
D11*
%TO.C,K_F1*%
X106299450Y71017405D03*
X96139450Y71017405D03*
D12*
X97409450Y73557405D03*
D13*
X101219450Y71017405D03*
D12*
X103759450Y76097405D03*
%TD*%
D11*
%TO.C,K_E1*%
X82486950Y90067405D03*
X72326950Y90067405D03*
D12*
X73596950Y92607405D03*
D13*
X77406950Y90067405D03*
D12*
X79946950Y95147405D03*
%TD*%
D11*
%TO.C,K_D1*%
X87249450Y71017405D03*
X77089450Y71017405D03*
D12*
X78359450Y73557405D03*
D13*
X82169450Y71017405D03*
D12*
X84709450Y76097405D03*
%TD*%
D11*
%TO.C,K_CTRL3*%
X18193200Y32917405D03*
X8033200Y32917405D03*
D12*
X9303200Y35457405D03*
D13*
X13113200Y32917405D03*
D12*
X15653200Y37997405D03*
%TD*%
D11*
%TO.C,K_CAPS_STEP1*%
X18193200Y71017405D03*
X8033200Y71017405D03*
D12*
X9303200Y73557405D03*
D13*
X13113200Y71017405D03*
D12*
X15653200Y76097405D03*
%TD*%
D11*
%TO.C,K_CAPS1*%
X22955700Y71017405D03*
X12795700Y71017405D03*
D12*
X14065700Y73557405D03*
D13*
X17875700Y71017405D03*
D12*
X20415700Y76097405D03*
%TD*%
D11*
%TO.C,K_C1*%
X96774450Y51967405D03*
X86614450Y51967405D03*
D12*
X87884450Y54507405D03*
D13*
X91694450Y51967405D03*
D12*
X94234450Y57047405D03*
%TD*%
D11*
%TO.C,K_B1*%
X134874450Y51967405D03*
X124714450Y51967405D03*
D12*
X125984450Y54507405D03*
D13*
X129794450Y51967405D03*
D12*
X132334450Y57047405D03*
%TD*%
D11*
%TO.C,K_ALT3*%
X65818200Y32917405D03*
X55658200Y32917405D03*
D12*
X56928200Y35457405D03*
D13*
X60738200Y32917405D03*
D12*
X63278200Y37997405D03*
%TD*%
D11*
%TO.C,K_A1*%
X49149450Y71017405D03*
X38989450Y71017405D03*
D12*
X40259450Y73557405D03*
D13*
X44069450Y71017405D03*
D12*
X46609450Y76097405D03*
%TD*%
D25*
%TO.C,J8*%
G36*
X-13109131Y86974201D02*
G01*
X-13084862Y86970601D01*
X-13061064Y86964640D01*
X-13037964Y86956375D01*
X-13015786Y86945885D01*
X-12994742Y86933272D01*
X-12975037Y86918658D01*
X-12956858Y86902182D01*
X-12940382Y86884003D01*
X-12925768Y86864298D01*
X-12913155Y86843254D01*
X-12902665Y86821076D01*
X-12894400Y86797976D01*
X-12888439Y86774178D01*
X-12884839Y86749909D01*
X-12883635Y86725405D01*
X-12883635Y85525405D01*
X-12884839Y85500901D01*
X-12888439Y85476632D01*
X-12894400Y85452834D01*
X-12902665Y85429734D01*
X-12913155Y85407556D01*
X-12925768Y85386512D01*
X-12940382Y85366807D01*
X-12956858Y85348628D01*
X-12975037Y85332152D01*
X-12994742Y85317538D01*
X-13015786Y85304925D01*
X-13037964Y85294435D01*
X-13061064Y85286170D01*
X-13084862Y85280209D01*
X-13109131Y85276609D01*
X-13133635Y85275405D01*
X-14633635Y85275405D01*
X-14658139Y85276609D01*
X-14682408Y85280209D01*
X-14706206Y85286170D01*
X-14729306Y85294435D01*
X-14751484Y85304925D01*
X-14772528Y85317538D01*
X-14792233Y85332152D01*
X-14810412Y85348628D01*
X-14826888Y85366807D01*
X-14841502Y85386512D01*
X-14854115Y85407556D01*
X-14864605Y85429734D01*
X-14872870Y85452834D01*
X-14878831Y85476632D01*
X-14882431Y85500901D01*
X-14883635Y85525405D01*
X-14883635Y86725405D01*
X-14882431Y86749909D01*
X-14878831Y86774178D01*
X-14872870Y86797976D01*
X-14864605Y86821076D01*
X-14854115Y86843254D01*
X-14841502Y86864298D01*
X-14826888Y86884003D01*
X-14810412Y86902182D01*
X-14792233Y86918658D01*
X-14772528Y86933272D01*
X-14751484Y86945885D01*
X-14729306Y86956375D01*
X-14706206Y86964640D01*
X-14682408Y86970601D01*
X-14658139Y86974201D01*
X-14633635Y86975405D01*
X-13133635Y86975405D01*
X-13109131Y86974201D01*
X-13109131Y86974201D01*
G37*
D28*
X-13883635Y86125405D03*
D29*
X-13883635Y83625405D03*
%TD*%
D30*
%TO.C,J7*%
X118754450Y112877405D03*
X112254450Y113977405D03*
X112254450Y117977405D03*
X112254450Y120977405D03*
D31*
X115504450Y122577405D03*
X115504450Y115577405D03*
%TD*%
D32*
%TO.C,J6*%
X-4403635Y113385405D03*
D33*
X-4403635Y110845405D03*
X-4403635Y108305405D03*
X-4403635Y105765405D03*
%TD*%
D34*
%TO.C,J5*%
X24574450Y123967405D03*
D35*
X23144450Y120317405D03*
D34*
X15934450Y123967405D03*
D35*
X17364450Y120317405D03*
D36*
X15934450Y119787405D03*
X24574450Y119787405D03*
D37*
X20004450Y118872405D03*
X22004450Y118872405D03*
X21504450Y118872405D03*
X21004450Y118872405D03*
X20504450Y118872405D03*
X19504450Y118872405D03*
X19004450Y118872405D03*
X18504450Y118872405D03*
D38*
X23504450Y118872405D03*
X22704450Y118872405D03*
X17804450Y118872405D03*
X17004450Y118872405D03*
X17004450Y118872405D03*
X17804450Y118872405D03*
X22704450Y118872405D03*
X23504450Y118872405D03*
%TD*%
D39*
%TO.C,D84*%
X3656950Y72617405D03*
X3656950Y69417405D03*
X-1243050Y72617405D03*
X-1243050Y69417405D03*
%TD*%
%TO.C,D83*%
X3656950Y44042405D03*
X3656950Y40842405D03*
X-1243050Y44042405D03*
X-1243050Y40842405D03*
%TD*%
%TO.C,D82*%
X3725700Y101204905D03*
X3725700Y98004905D03*
X-1174300Y101204905D03*
X-1174300Y98004905D03*
%TD*%
D40*
%TO.C,D81*%
X128081365Y48001655D03*
X131381365Y48001655D03*
%TD*%
%TO.C,D80*%
X123381365Y105151655D03*
X126681365Y105151655D03*
%TD*%
%TO.C,D79*%
X125825115Y28951655D03*
X129125115Y28951655D03*
%TD*%
D41*
%TO.C,D78*%
X118681950Y50317405D03*
X118681950Y53617405D03*
%TD*%
D40*
%TO.C,D77*%
X118556365Y67051655D03*
X121856365Y67051655D03*
%TD*%
%TO.C,D76*%
X113918865Y86101655D03*
X117218865Y86101655D03*
%TD*%
D41*
%TO.C,D75*%
X113919450Y107467405D03*
X113919450Y110767405D03*
%TD*%
D39*
%TO.C,D74*%
X60806950Y44042405D03*
X60806950Y40842405D03*
X55906950Y44042405D03*
X55906950Y40842405D03*
%TD*%
%TO.C,D73*%
X60875700Y101179905D03*
X60875700Y97979905D03*
X55975700Y101179905D03*
X55975700Y97979905D03*
%TD*%
D41*
%TO.C,D72*%
X102013200Y31267405D03*
X102013200Y34567405D03*
%TD*%
%TO.C,D71*%
X99631950Y50317405D03*
X99631950Y53617405D03*
%TD*%
%TO.C,D70*%
X109156950Y69367405D03*
X109156950Y72667405D03*
%TD*%
%TO.C,D69*%
X104394450Y88417405D03*
X104394450Y91717405D03*
%TD*%
%TO.C,D68*%
X94075700Y107467405D03*
X94075700Y110767405D03*
%TD*%
%TO.C,D67*%
X80581950Y50317405D03*
X80581950Y53617405D03*
%TD*%
%TO.C,D66*%
X90106950Y69367405D03*
X90106950Y72667405D03*
%TD*%
%TO.C,D65*%
X85344450Y88417405D03*
X85344450Y91717405D03*
%TD*%
%TO.C,D64*%
X75819450Y107404905D03*
X75819450Y110704905D03*
%TD*%
%TO.C,D63*%
X68675700Y31329905D03*
X68675700Y34629905D03*
%TD*%
%TO.C,D62*%
X61531950Y50317405D03*
X61531950Y53617405D03*
%TD*%
%TO.C,D61*%
X71056950Y69367405D03*
X71056950Y72667405D03*
%TD*%
%TO.C,D60*%
X66294450Y88417405D03*
X66294450Y91717405D03*
%TD*%
%TO.C,D59*%
X56769450Y107467405D03*
X56769450Y110767405D03*
%TD*%
D39*
%TO.C,D58*%
X117956950Y44042405D03*
X117956950Y40842405D03*
X113056950Y44042405D03*
X113056950Y40842405D03*
%TD*%
%TO.C,D57*%
X117888200Y101179905D03*
X117888200Y97979905D03*
X112988200Y101179905D03*
X112988200Y97979905D03*
%TD*%
D41*
%TO.C,D56*%
X44863200Y31267405D03*
X44863200Y34567405D03*
%TD*%
%TO.C,D55*%
X42481950Y50317405D03*
X42481950Y53617405D03*
%TD*%
%TO.C,D54*%
X52006950Y69367405D03*
X52006950Y72667405D03*
%TD*%
%TO.C,D53*%
X47244450Y88417405D03*
X47244450Y91717405D03*
%TD*%
%TO.C,D52*%
X37719450Y107467405D03*
X37719450Y110767405D03*
%TD*%
%TO.C,D51*%
X21050700Y31267405D03*
X21050700Y34567405D03*
%TD*%
D40*
%TO.C,D50*%
X30638200Y49586155D03*
X27338200Y49586155D03*
%TD*%
D41*
%TO.C,D49*%
X25813200Y69367405D03*
X25813200Y72667405D03*
%TD*%
%TO.C,D48*%
X23431950Y88417405D03*
X23431950Y91717405D03*
%TD*%
%TO.C,D47*%
X18669450Y107467405D03*
X18669450Y110767405D03*
%TD*%
%TO.C,D46*%
X-9111800Y112229905D03*
X-9111800Y115529905D03*
%TD*%
D25*
%TO.C,C18*%
G36*
X-9637295Y100566201D02*
G01*
X-9613027Y100562601D01*
X-9589228Y100556640D01*
X-9566129Y100548375D01*
X-9543950Y100537885D01*
X-9522907Y100525273D01*
X-9503201Y100510658D01*
X-9485023Y100494182D01*
X-9468547Y100476004D01*
X-9453932Y100456298D01*
X-9441320Y100435255D01*
X-9430830Y100413076D01*
X-9422565Y100389977D01*
X-9416604Y100366178D01*
X-9413004Y100341910D01*
X-9411800Y100317406D01*
X-9411800Y99667404D01*
X-9413004Y99642900D01*
X-9416604Y99618632D01*
X-9422565Y99594833D01*
X-9430830Y99571734D01*
X-9441320Y99549555D01*
X-9453932Y99528512D01*
X-9468547Y99508806D01*
X-9485023Y99490628D01*
X-9503201Y99474152D01*
X-9522907Y99459537D01*
X-9543950Y99446925D01*
X-9566129Y99436435D01*
X-9589228Y99428170D01*
X-9613027Y99422209D01*
X-9637295Y99418609D01*
X-9661799Y99417405D01*
X-10561801Y99417405D01*
X-10586305Y99418609D01*
X-10610573Y99422209D01*
X-10634372Y99428170D01*
X-10657471Y99436435D01*
X-10679650Y99446925D01*
X-10700693Y99459537D01*
X-10720399Y99474152D01*
X-10738577Y99490628D01*
X-10755053Y99508806D01*
X-10769668Y99528512D01*
X-10782280Y99549555D01*
X-10792770Y99571734D01*
X-10801035Y99594833D01*
X-10806996Y99618632D01*
X-10810596Y99642900D01*
X-10811800Y99667404D01*
X-10811800Y100317406D01*
X-10810596Y100341910D01*
X-10806996Y100366178D01*
X-10801035Y100389977D01*
X-10792770Y100413076D01*
X-10782280Y100435255D01*
X-10769668Y100456298D01*
X-10755053Y100476004D01*
X-10738577Y100494182D01*
X-10720399Y100510658D01*
X-10700693Y100525273D01*
X-10679650Y100537885D01*
X-10657471Y100548375D01*
X-10634372Y100556640D01*
X-10610573Y100562601D01*
X-10586305Y100566201D01*
X-10561801Y100567405D01*
X-9661799Y100567405D01*
X-9637295Y100566201D01*
X-9637295Y100566201D01*
G37*
D42*
X-10111800Y99992405D03*
D25*
G36*
X-9637295Y102616201D02*
G01*
X-9613027Y102612601D01*
X-9589228Y102606640D01*
X-9566129Y102598375D01*
X-9543950Y102587885D01*
X-9522907Y102575273D01*
X-9503201Y102560658D01*
X-9485023Y102544182D01*
X-9468547Y102526004D01*
X-9453932Y102506298D01*
X-9441320Y102485255D01*
X-9430830Y102463076D01*
X-9422565Y102439977D01*
X-9416604Y102416178D01*
X-9413004Y102391910D01*
X-9411800Y102367406D01*
X-9411800Y101717404D01*
X-9413004Y101692900D01*
X-9416604Y101668632D01*
X-9422565Y101644833D01*
X-9430830Y101621734D01*
X-9441320Y101599555D01*
X-9453932Y101578512D01*
X-9468547Y101558806D01*
X-9485023Y101540628D01*
X-9503201Y101524152D01*
X-9522907Y101509537D01*
X-9543950Y101496925D01*
X-9566129Y101486435D01*
X-9589228Y101478170D01*
X-9613027Y101472209D01*
X-9637295Y101468609D01*
X-9661799Y101467405D01*
X-10561801Y101467405D01*
X-10586305Y101468609D01*
X-10610573Y101472209D01*
X-10634372Y101478170D01*
X-10657471Y101486435D01*
X-10679650Y101496925D01*
X-10700693Y101509537D01*
X-10720399Y101524152D01*
X-10738577Y101540628D01*
X-10755053Y101558806D01*
X-10769668Y101578512D01*
X-10782280Y101599555D01*
X-10792770Y101621734D01*
X-10801035Y101644833D01*
X-10806996Y101668632D01*
X-10810596Y101692900D01*
X-10811800Y101717404D01*
X-10811800Y102367406D01*
X-10810596Y102391910D01*
X-10806996Y102416178D01*
X-10801035Y102439977D01*
X-10792770Y102463076D01*
X-10782280Y102485255D01*
X-10769668Y102506298D01*
X-10755053Y102526004D01*
X-10738577Y102544182D01*
X-10720399Y102560658D01*
X-10700693Y102575273D01*
X-10679650Y102587885D01*
X-10657471Y102598375D01*
X-10634372Y102606640D01*
X-10610573Y102612601D01*
X-10586305Y102616201D01*
X-10561801Y102617405D01*
X-9661799Y102617405D01*
X-9637295Y102616201D01*
X-9637295Y102616201D01*
G37*
D42*
X-10111800Y102042405D03*
%TD*%
D25*
%TO.C,C17*%
G36*
X121537705Y41759951D02*
G01*
X121561973Y41756351D01*
X121585772Y41750390D01*
X121608871Y41742125D01*
X121631050Y41731635D01*
X121652093Y41719023D01*
X121671799Y41704408D01*
X121689977Y41687932D01*
X121706453Y41669754D01*
X121721068Y41650048D01*
X121733680Y41629005D01*
X121744170Y41606826D01*
X121752435Y41583727D01*
X121758396Y41559928D01*
X121761996Y41535660D01*
X121763200Y41511156D01*
X121763200Y40861154D01*
X121761996Y40836650D01*
X121758396Y40812382D01*
X121752435Y40788583D01*
X121744170Y40765484D01*
X121733680Y40743305D01*
X121721068Y40722262D01*
X121706453Y40702556D01*
X121689977Y40684378D01*
X121671799Y40667902D01*
X121652093Y40653287D01*
X121631050Y40640675D01*
X121608871Y40630185D01*
X121585772Y40621920D01*
X121561973Y40615959D01*
X121537705Y40612359D01*
X121513201Y40611155D01*
X120613199Y40611155D01*
X120588695Y40612359D01*
X120564427Y40615959D01*
X120540628Y40621920D01*
X120517529Y40630185D01*
X120495350Y40640675D01*
X120474307Y40653287D01*
X120454601Y40667902D01*
X120436423Y40684378D01*
X120419947Y40702556D01*
X120405332Y40722262D01*
X120392720Y40743305D01*
X120382230Y40765484D01*
X120373965Y40788583D01*
X120368004Y40812382D01*
X120364404Y40836650D01*
X120363200Y40861154D01*
X120363200Y41511156D01*
X120364404Y41535660D01*
X120368004Y41559928D01*
X120373965Y41583727D01*
X120382230Y41606826D01*
X120392720Y41629005D01*
X120405332Y41650048D01*
X120419947Y41669754D01*
X120436423Y41687932D01*
X120454601Y41704408D01*
X120474307Y41719023D01*
X120495350Y41731635D01*
X120517529Y41742125D01*
X120540628Y41750390D01*
X120564427Y41756351D01*
X120588695Y41759951D01*
X120613199Y41761155D01*
X121513201Y41761155D01*
X121537705Y41759951D01*
X121537705Y41759951D01*
G37*
D42*
X121063200Y41186155D03*
D25*
G36*
X121537705Y43809951D02*
G01*
X121561973Y43806351D01*
X121585772Y43800390D01*
X121608871Y43792125D01*
X121631050Y43781635D01*
X121652093Y43769023D01*
X121671799Y43754408D01*
X121689977Y43737932D01*
X121706453Y43719754D01*
X121721068Y43700048D01*
X121733680Y43679005D01*
X121744170Y43656826D01*
X121752435Y43633727D01*
X121758396Y43609928D01*
X121761996Y43585660D01*
X121763200Y43561156D01*
X121763200Y42911154D01*
X121761996Y42886650D01*
X121758396Y42862382D01*
X121752435Y42838583D01*
X121744170Y42815484D01*
X121733680Y42793305D01*
X121721068Y42772262D01*
X121706453Y42752556D01*
X121689977Y42734378D01*
X121671799Y42717902D01*
X121652093Y42703287D01*
X121631050Y42690675D01*
X121608871Y42680185D01*
X121585772Y42671920D01*
X121561973Y42665959D01*
X121537705Y42662359D01*
X121513201Y42661155D01*
X120613199Y42661155D01*
X120588695Y42662359D01*
X120564427Y42665959D01*
X120540628Y42671920D01*
X120517529Y42680185D01*
X120495350Y42690675D01*
X120474307Y42703287D01*
X120454601Y42717902D01*
X120436423Y42734378D01*
X120419947Y42752556D01*
X120405332Y42772262D01*
X120392720Y42793305D01*
X120382230Y42815484D01*
X120373965Y42838583D01*
X120368004Y42862382D01*
X120364404Y42886650D01*
X120363200Y42911154D01*
X120363200Y43561156D01*
X120364404Y43585660D01*
X120368004Y43609928D01*
X120373965Y43633727D01*
X120382230Y43656826D01*
X120392720Y43679005D01*
X120405332Y43700048D01*
X120419947Y43719754D01*
X120436423Y43737932D01*
X120454601Y43754408D01*
X120474307Y43769023D01*
X120495350Y43781635D01*
X120517529Y43792125D01*
X120540628Y43800390D01*
X120564427Y43806351D01*
X120588695Y43809951D01*
X120613199Y43811155D01*
X121513201Y43811155D01*
X121537705Y43809951D01*
X121537705Y43809951D01*
G37*
D42*
X121063200Y43236155D03*
%TD*%
D25*
%TO.C,C16*%
G36*
X-19731045Y100566201D02*
G01*
X-19706777Y100562601D01*
X-19682978Y100556640D01*
X-19659879Y100548375D01*
X-19637700Y100537885D01*
X-19616657Y100525273D01*
X-19596951Y100510658D01*
X-19578773Y100494182D01*
X-19562297Y100476004D01*
X-19547682Y100456298D01*
X-19535070Y100435255D01*
X-19524580Y100413076D01*
X-19516315Y100389977D01*
X-19510354Y100366178D01*
X-19506754Y100341910D01*
X-19505550Y100317406D01*
X-19505550Y99667404D01*
X-19506754Y99642900D01*
X-19510354Y99618632D01*
X-19516315Y99594833D01*
X-19524580Y99571734D01*
X-19535070Y99549555D01*
X-19547682Y99528512D01*
X-19562297Y99508806D01*
X-19578773Y99490628D01*
X-19596951Y99474152D01*
X-19616657Y99459537D01*
X-19637700Y99446925D01*
X-19659879Y99436435D01*
X-19682978Y99428170D01*
X-19706777Y99422209D01*
X-19731045Y99418609D01*
X-19755549Y99417405D01*
X-20655551Y99417405D01*
X-20680055Y99418609D01*
X-20704323Y99422209D01*
X-20728122Y99428170D01*
X-20751221Y99436435D01*
X-20773400Y99446925D01*
X-20794443Y99459537D01*
X-20814149Y99474152D01*
X-20832327Y99490628D01*
X-20848803Y99508806D01*
X-20863418Y99528512D01*
X-20876030Y99549555D01*
X-20886520Y99571734D01*
X-20894785Y99594833D01*
X-20900746Y99618632D01*
X-20904346Y99642900D01*
X-20905550Y99667404D01*
X-20905550Y100317406D01*
X-20904346Y100341910D01*
X-20900746Y100366178D01*
X-20894785Y100389977D01*
X-20886520Y100413076D01*
X-20876030Y100435255D01*
X-20863418Y100456298D01*
X-20848803Y100476004D01*
X-20832327Y100494182D01*
X-20814149Y100510658D01*
X-20794443Y100525273D01*
X-20773400Y100537885D01*
X-20751221Y100548375D01*
X-20728122Y100556640D01*
X-20704323Y100562601D01*
X-20680055Y100566201D01*
X-20655551Y100567405D01*
X-19755549Y100567405D01*
X-19731045Y100566201D01*
X-19731045Y100566201D01*
G37*
D42*
X-20205550Y99992405D03*
D25*
G36*
X-19731045Y102616201D02*
G01*
X-19706777Y102612601D01*
X-19682978Y102606640D01*
X-19659879Y102598375D01*
X-19637700Y102587885D01*
X-19616657Y102575273D01*
X-19596951Y102560658D01*
X-19578773Y102544182D01*
X-19562297Y102526004D01*
X-19547682Y102506298D01*
X-19535070Y102485255D01*
X-19524580Y102463076D01*
X-19516315Y102439977D01*
X-19510354Y102416178D01*
X-19506754Y102391910D01*
X-19505550Y102367406D01*
X-19505550Y101717404D01*
X-19506754Y101692900D01*
X-19510354Y101668632D01*
X-19516315Y101644833D01*
X-19524580Y101621734D01*
X-19535070Y101599555D01*
X-19547682Y101578512D01*
X-19562297Y101558806D01*
X-19578773Y101540628D01*
X-19596951Y101524152D01*
X-19616657Y101509537D01*
X-19637700Y101496925D01*
X-19659879Y101486435D01*
X-19682978Y101478170D01*
X-19706777Y101472209D01*
X-19731045Y101468609D01*
X-19755549Y101467405D01*
X-20655551Y101467405D01*
X-20680055Y101468609D01*
X-20704323Y101472209D01*
X-20728122Y101478170D01*
X-20751221Y101486435D01*
X-20773400Y101496925D01*
X-20794443Y101509537D01*
X-20814149Y101524152D01*
X-20832327Y101540628D01*
X-20848803Y101558806D01*
X-20863418Y101578512D01*
X-20876030Y101599555D01*
X-20886520Y101621734D01*
X-20894785Y101644833D01*
X-20900746Y101668632D01*
X-20904346Y101692900D01*
X-20905550Y101717404D01*
X-20905550Y102367406D01*
X-20904346Y102391910D01*
X-20900746Y102416178D01*
X-20894785Y102439977D01*
X-20886520Y102463076D01*
X-20876030Y102485255D01*
X-20863418Y102506298D01*
X-20848803Y102526004D01*
X-20832327Y102544182D01*
X-20814149Y102560658D01*
X-20794443Y102575273D01*
X-20773400Y102587885D01*
X-20751221Y102598375D01*
X-20728122Y102606640D01*
X-20704323Y102612601D01*
X-20680055Y102616201D01*
X-20655551Y102617405D01*
X-19755549Y102617405D01*
X-19731045Y102616201D01*
X-19731045Y102616201D01*
G37*
D42*
X-20205550Y102042405D03*
%TD*%
D25*
%TO.C,C15*%
G36*
X64387705Y98909951D02*
G01*
X64411973Y98906351D01*
X64435772Y98900390D01*
X64458871Y98892125D01*
X64481050Y98881635D01*
X64502093Y98869023D01*
X64521799Y98854408D01*
X64539977Y98837932D01*
X64556453Y98819754D01*
X64571068Y98800048D01*
X64583680Y98779005D01*
X64594170Y98756826D01*
X64602435Y98733727D01*
X64608396Y98709928D01*
X64611996Y98685660D01*
X64613200Y98661156D01*
X64613200Y98011154D01*
X64611996Y97986650D01*
X64608396Y97962382D01*
X64602435Y97938583D01*
X64594170Y97915484D01*
X64583680Y97893305D01*
X64571068Y97872262D01*
X64556453Y97852556D01*
X64539977Y97834378D01*
X64521799Y97817902D01*
X64502093Y97803287D01*
X64481050Y97790675D01*
X64458871Y97780185D01*
X64435772Y97771920D01*
X64411973Y97765959D01*
X64387705Y97762359D01*
X64363201Y97761155D01*
X63463199Y97761155D01*
X63438695Y97762359D01*
X63414427Y97765959D01*
X63390628Y97771920D01*
X63367529Y97780185D01*
X63345350Y97790675D01*
X63324307Y97803287D01*
X63304601Y97817902D01*
X63286423Y97834378D01*
X63269947Y97852556D01*
X63255332Y97872262D01*
X63242720Y97893305D01*
X63232230Y97915484D01*
X63223965Y97938583D01*
X63218004Y97962382D01*
X63214404Y97986650D01*
X63213200Y98011154D01*
X63213200Y98661156D01*
X63214404Y98685660D01*
X63218004Y98709928D01*
X63223965Y98733727D01*
X63232230Y98756826D01*
X63242720Y98779005D01*
X63255332Y98800048D01*
X63269947Y98819754D01*
X63286423Y98837932D01*
X63304601Y98854408D01*
X63324307Y98869023D01*
X63345350Y98881635D01*
X63367529Y98892125D01*
X63390628Y98900390D01*
X63414427Y98906351D01*
X63438695Y98909951D01*
X63463199Y98911155D01*
X64363201Y98911155D01*
X64387705Y98909951D01*
X64387705Y98909951D01*
G37*
D42*
X63913200Y98336155D03*
D25*
G36*
X64387705Y100959951D02*
G01*
X64411973Y100956351D01*
X64435772Y100950390D01*
X64458871Y100942125D01*
X64481050Y100931635D01*
X64502093Y100919023D01*
X64521799Y100904408D01*
X64539977Y100887932D01*
X64556453Y100869754D01*
X64571068Y100850048D01*
X64583680Y100829005D01*
X64594170Y100806826D01*
X64602435Y100783727D01*
X64608396Y100759928D01*
X64611996Y100735660D01*
X64613200Y100711156D01*
X64613200Y100061154D01*
X64611996Y100036650D01*
X64608396Y100012382D01*
X64602435Y99988583D01*
X64594170Y99965484D01*
X64583680Y99943305D01*
X64571068Y99922262D01*
X64556453Y99902556D01*
X64539977Y99884378D01*
X64521799Y99867902D01*
X64502093Y99853287D01*
X64481050Y99840675D01*
X64458871Y99830185D01*
X64435772Y99821920D01*
X64411973Y99815959D01*
X64387705Y99812359D01*
X64363201Y99811155D01*
X63463199Y99811155D01*
X63438695Y99812359D01*
X63414427Y99815959D01*
X63390628Y99821920D01*
X63367529Y99830185D01*
X63345350Y99840675D01*
X63324307Y99853287D01*
X63304601Y99867902D01*
X63286423Y99884378D01*
X63269947Y99902556D01*
X63255332Y99922262D01*
X63242720Y99943305D01*
X63232230Y99965484D01*
X63223965Y99988583D01*
X63218004Y100012382D01*
X63214404Y100036650D01*
X63213200Y100061154D01*
X63213200Y100711156D01*
X63214404Y100735660D01*
X63218004Y100759928D01*
X63223965Y100783727D01*
X63232230Y100806826D01*
X63242720Y100829005D01*
X63255332Y100850048D01*
X63269947Y100869754D01*
X63286423Y100887932D01*
X63304601Y100904408D01*
X63324307Y100919023D01*
X63345350Y100931635D01*
X63367529Y100942125D01*
X63390628Y100950390D01*
X63414427Y100956351D01*
X63438695Y100959951D01*
X63463199Y100961155D01*
X64363201Y100961155D01*
X64387705Y100959951D01*
X64387705Y100959951D01*
G37*
D42*
X63913200Y100386155D03*
%TD*%
D25*
%TO.C,C14*%
G36*
X7237705Y44041201D02*
G01*
X7261973Y44037601D01*
X7285772Y44031640D01*
X7308871Y44023375D01*
X7331050Y44012885D01*
X7352093Y44000273D01*
X7371799Y43985658D01*
X7389977Y43969182D01*
X7406453Y43951004D01*
X7421068Y43931298D01*
X7433680Y43910255D01*
X7444170Y43888076D01*
X7452435Y43864977D01*
X7458396Y43841178D01*
X7461996Y43816910D01*
X7463200Y43792406D01*
X7463200Y43142404D01*
X7461996Y43117900D01*
X7458396Y43093632D01*
X7452435Y43069833D01*
X7444170Y43046734D01*
X7433680Y43024555D01*
X7421068Y43003512D01*
X7406453Y42983806D01*
X7389977Y42965628D01*
X7371799Y42949152D01*
X7352093Y42934537D01*
X7331050Y42921925D01*
X7308871Y42911435D01*
X7285772Y42903170D01*
X7261973Y42897209D01*
X7237705Y42893609D01*
X7213201Y42892405D01*
X6313199Y42892405D01*
X6288695Y42893609D01*
X6264427Y42897209D01*
X6240628Y42903170D01*
X6217529Y42911435D01*
X6195350Y42921925D01*
X6174307Y42934537D01*
X6154601Y42949152D01*
X6136423Y42965628D01*
X6119947Y42983806D01*
X6105332Y43003512D01*
X6092720Y43024555D01*
X6082230Y43046734D01*
X6073965Y43069833D01*
X6068004Y43093632D01*
X6064404Y43117900D01*
X6063200Y43142404D01*
X6063200Y43792406D01*
X6064404Y43816910D01*
X6068004Y43841178D01*
X6073965Y43864977D01*
X6082230Y43888076D01*
X6092720Y43910255D01*
X6105332Y43931298D01*
X6119947Y43951004D01*
X6136423Y43969182D01*
X6154601Y43985658D01*
X6174307Y44000273D01*
X6195350Y44012885D01*
X6217529Y44023375D01*
X6240628Y44031640D01*
X6264427Y44037601D01*
X6288695Y44041201D01*
X6313199Y44042405D01*
X7213201Y44042405D01*
X7237705Y44041201D01*
X7237705Y44041201D01*
G37*
D42*
X6763200Y43467405D03*
D25*
G36*
X7237705Y41991201D02*
G01*
X7261973Y41987601D01*
X7285772Y41981640D01*
X7308871Y41973375D01*
X7331050Y41962885D01*
X7352093Y41950273D01*
X7371799Y41935658D01*
X7389977Y41919182D01*
X7406453Y41901004D01*
X7421068Y41881298D01*
X7433680Y41860255D01*
X7444170Y41838076D01*
X7452435Y41814977D01*
X7458396Y41791178D01*
X7461996Y41766910D01*
X7463200Y41742406D01*
X7463200Y41092404D01*
X7461996Y41067900D01*
X7458396Y41043632D01*
X7452435Y41019833D01*
X7444170Y40996734D01*
X7433680Y40974555D01*
X7421068Y40953512D01*
X7406453Y40933806D01*
X7389977Y40915628D01*
X7371799Y40899152D01*
X7352093Y40884537D01*
X7331050Y40871925D01*
X7308871Y40861435D01*
X7285772Y40853170D01*
X7261973Y40847209D01*
X7237705Y40843609D01*
X7213201Y40842405D01*
X6313199Y40842405D01*
X6288695Y40843609D01*
X6264427Y40847209D01*
X6240628Y40853170D01*
X6217529Y40861435D01*
X6195350Y40871925D01*
X6174307Y40884537D01*
X6154601Y40899152D01*
X6136423Y40915628D01*
X6119947Y40933806D01*
X6105332Y40953512D01*
X6092720Y40974555D01*
X6082230Y40996734D01*
X6073965Y41019833D01*
X6068004Y41043632D01*
X6064404Y41067900D01*
X6063200Y41092404D01*
X6063200Y41742406D01*
X6064404Y41766910D01*
X6068004Y41791178D01*
X6073965Y41814977D01*
X6082230Y41838076D01*
X6092720Y41860255D01*
X6105332Y41881298D01*
X6119947Y41901004D01*
X6136423Y41919182D01*
X6154601Y41935658D01*
X6174307Y41950273D01*
X6195350Y41962885D01*
X6217529Y41973375D01*
X6240628Y41981640D01*
X6264427Y41987601D01*
X6288695Y41991201D01*
X6313199Y41992405D01*
X7213201Y41992405D01*
X7237705Y41991201D01*
X7237705Y41991201D01*
G37*
D42*
X6763200Y41417405D03*
%TD*%
D25*
%TO.C,C13*%
G36*
X63593955Y42222451D02*
G01*
X63618223Y42218851D01*
X63642022Y42212890D01*
X63665121Y42204625D01*
X63687300Y42194135D01*
X63708343Y42181523D01*
X63728049Y42166908D01*
X63746227Y42150432D01*
X63762703Y42132254D01*
X63777318Y42112548D01*
X63789930Y42091505D01*
X63800420Y42069326D01*
X63808685Y42046227D01*
X63814646Y42022428D01*
X63818246Y41998160D01*
X63819450Y41973656D01*
X63819450Y41323654D01*
X63818246Y41299150D01*
X63814646Y41274882D01*
X63808685Y41251083D01*
X63800420Y41227984D01*
X63789930Y41205805D01*
X63777318Y41184762D01*
X63762703Y41165056D01*
X63746227Y41146878D01*
X63728049Y41130402D01*
X63708343Y41115787D01*
X63687300Y41103175D01*
X63665121Y41092685D01*
X63642022Y41084420D01*
X63618223Y41078459D01*
X63593955Y41074859D01*
X63569451Y41073655D01*
X62669449Y41073655D01*
X62644945Y41074859D01*
X62620677Y41078459D01*
X62596878Y41084420D01*
X62573779Y41092685D01*
X62551600Y41103175D01*
X62530557Y41115787D01*
X62510851Y41130402D01*
X62492673Y41146878D01*
X62476197Y41165056D01*
X62461582Y41184762D01*
X62448970Y41205805D01*
X62438480Y41227984D01*
X62430215Y41251083D01*
X62424254Y41274882D01*
X62420654Y41299150D01*
X62419450Y41323654D01*
X62419450Y41973656D01*
X62420654Y41998160D01*
X62424254Y42022428D01*
X62430215Y42046227D01*
X62438480Y42069326D01*
X62448970Y42091505D01*
X62461582Y42112548D01*
X62476197Y42132254D01*
X62492673Y42150432D01*
X62510851Y42166908D01*
X62530557Y42181523D01*
X62551600Y42194135D01*
X62573779Y42204625D01*
X62596878Y42212890D01*
X62620677Y42218851D01*
X62644945Y42222451D01*
X62669449Y42223655D01*
X63569451Y42223655D01*
X63593955Y42222451D01*
X63593955Y42222451D01*
G37*
D42*
X63119450Y41648655D03*
D25*
G36*
X63593955Y44272451D02*
G01*
X63618223Y44268851D01*
X63642022Y44262890D01*
X63665121Y44254625D01*
X63687300Y44244135D01*
X63708343Y44231523D01*
X63728049Y44216908D01*
X63746227Y44200432D01*
X63762703Y44182254D01*
X63777318Y44162548D01*
X63789930Y44141505D01*
X63800420Y44119326D01*
X63808685Y44096227D01*
X63814646Y44072428D01*
X63818246Y44048160D01*
X63819450Y44023656D01*
X63819450Y43373654D01*
X63818246Y43349150D01*
X63814646Y43324882D01*
X63808685Y43301083D01*
X63800420Y43277984D01*
X63789930Y43255805D01*
X63777318Y43234762D01*
X63762703Y43215056D01*
X63746227Y43196878D01*
X63728049Y43180402D01*
X63708343Y43165787D01*
X63687300Y43153175D01*
X63665121Y43142685D01*
X63642022Y43134420D01*
X63618223Y43128459D01*
X63593955Y43124859D01*
X63569451Y43123655D01*
X62669449Y43123655D01*
X62644945Y43124859D01*
X62620677Y43128459D01*
X62596878Y43134420D01*
X62573779Y43142685D01*
X62551600Y43153175D01*
X62530557Y43165787D01*
X62510851Y43180402D01*
X62492673Y43196878D01*
X62476197Y43215056D01*
X62461582Y43234762D01*
X62448970Y43255805D01*
X62438480Y43277984D01*
X62430215Y43301083D01*
X62424254Y43324882D01*
X62420654Y43349150D01*
X62419450Y43373654D01*
X62419450Y44023656D01*
X62420654Y44048160D01*
X62424254Y44072428D01*
X62430215Y44096227D01*
X62438480Y44119326D01*
X62448970Y44141505D01*
X62461582Y44162548D01*
X62476197Y44182254D01*
X62492673Y44200432D01*
X62510851Y44216908D01*
X62530557Y44231523D01*
X62551600Y44244135D01*
X62573779Y44254625D01*
X62596878Y44262890D01*
X62620677Y44268851D01*
X62644945Y44272451D01*
X62669449Y44273655D01*
X63569451Y44273655D01*
X63593955Y44272451D01*
X63593955Y44272451D01*
G37*
D42*
X63119450Y43698655D03*
%TD*%
D25*
%TO.C,C12*%
G36*
X6443955Y100959951D02*
G01*
X6468223Y100956351D01*
X6492022Y100950390D01*
X6515121Y100942125D01*
X6537300Y100931635D01*
X6558343Y100919023D01*
X6578049Y100904408D01*
X6596227Y100887932D01*
X6612703Y100869754D01*
X6627318Y100850048D01*
X6639930Y100829005D01*
X6650420Y100806826D01*
X6658685Y100783727D01*
X6664646Y100759928D01*
X6668246Y100735660D01*
X6669450Y100711156D01*
X6669450Y100061154D01*
X6668246Y100036650D01*
X6664646Y100012382D01*
X6658685Y99988583D01*
X6650420Y99965484D01*
X6639930Y99943305D01*
X6627318Y99922262D01*
X6612703Y99902556D01*
X6596227Y99884378D01*
X6578049Y99867902D01*
X6558343Y99853287D01*
X6537300Y99840675D01*
X6515121Y99830185D01*
X6492022Y99821920D01*
X6468223Y99815959D01*
X6443955Y99812359D01*
X6419451Y99811155D01*
X5519449Y99811155D01*
X5494945Y99812359D01*
X5470677Y99815959D01*
X5446878Y99821920D01*
X5423779Y99830185D01*
X5401600Y99840675D01*
X5380557Y99853287D01*
X5360851Y99867902D01*
X5342673Y99884378D01*
X5326197Y99902556D01*
X5311582Y99922262D01*
X5298970Y99943305D01*
X5288480Y99965484D01*
X5280215Y99988583D01*
X5274254Y100012382D01*
X5270654Y100036650D01*
X5269450Y100061154D01*
X5269450Y100711156D01*
X5270654Y100735660D01*
X5274254Y100759928D01*
X5280215Y100783727D01*
X5288480Y100806826D01*
X5298970Y100829005D01*
X5311582Y100850048D01*
X5326197Y100869754D01*
X5342673Y100887932D01*
X5360851Y100904408D01*
X5380557Y100919023D01*
X5401600Y100931635D01*
X5423779Y100942125D01*
X5446878Y100950390D01*
X5470677Y100956351D01*
X5494945Y100959951D01*
X5519449Y100961155D01*
X6419451Y100961155D01*
X6443955Y100959951D01*
X6443955Y100959951D01*
G37*
D42*
X5969450Y100386155D03*
D25*
G36*
X6443955Y98909951D02*
G01*
X6468223Y98906351D01*
X6492022Y98900390D01*
X6515121Y98892125D01*
X6537300Y98881635D01*
X6558343Y98869023D01*
X6578049Y98854408D01*
X6596227Y98837932D01*
X6612703Y98819754D01*
X6627318Y98800048D01*
X6639930Y98779005D01*
X6650420Y98756826D01*
X6658685Y98733727D01*
X6664646Y98709928D01*
X6668246Y98685660D01*
X6669450Y98661156D01*
X6669450Y98011154D01*
X6668246Y97986650D01*
X6664646Y97962382D01*
X6658685Y97938583D01*
X6650420Y97915484D01*
X6639930Y97893305D01*
X6627318Y97872262D01*
X6612703Y97852556D01*
X6596227Y97834378D01*
X6578049Y97817902D01*
X6558343Y97803287D01*
X6537300Y97790675D01*
X6515121Y97780185D01*
X6492022Y97771920D01*
X6468223Y97765959D01*
X6443955Y97762359D01*
X6419451Y97761155D01*
X5519449Y97761155D01*
X5494945Y97762359D01*
X5470677Y97765959D01*
X5446878Y97771920D01*
X5423779Y97780185D01*
X5401600Y97790675D01*
X5380557Y97803287D01*
X5360851Y97817902D01*
X5342673Y97834378D01*
X5326197Y97852556D01*
X5311582Y97872262D01*
X5298970Y97893305D01*
X5288480Y97915484D01*
X5280215Y97938583D01*
X5274254Y97962382D01*
X5270654Y97986650D01*
X5269450Y98011154D01*
X5269450Y98661156D01*
X5270654Y98685660D01*
X5274254Y98709928D01*
X5280215Y98733727D01*
X5288480Y98756826D01*
X5298970Y98779005D01*
X5311582Y98800048D01*
X5326197Y98819754D01*
X5342673Y98837932D01*
X5360851Y98854408D01*
X5380557Y98869023D01*
X5401600Y98881635D01*
X5423779Y98892125D01*
X5446878Y98900390D01*
X5470677Y98906351D01*
X5494945Y98909951D01*
X5519449Y98911155D01*
X6419451Y98911155D01*
X6443955Y98909951D01*
X6443955Y98909951D01*
G37*
D42*
X5969450Y98336155D03*
%TD*%
D25*
%TO.C,C11*%
G36*
X6443955Y70566201D02*
G01*
X6468223Y70562601D01*
X6492022Y70556640D01*
X6515121Y70548375D01*
X6537300Y70537885D01*
X6558343Y70525273D01*
X6578049Y70510658D01*
X6596227Y70494182D01*
X6612703Y70476004D01*
X6627318Y70456298D01*
X6639930Y70435255D01*
X6650420Y70413076D01*
X6658685Y70389977D01*
X6664646Y70366178D01*
X6668246Y70341910D01*
X6669450Y70317406D01*
X6669450Y69667404D01*
X6668246Y69642900D01*
X6664646Y69618632D01*
X6658685Y69594833D01*
X6650420Y69571734D01*
X6639930Y69549555D01*
X6627318Y69528512D01*
X6612703Y69508806D01*
X6596227Y69490628D01*
X6578049Y69474152D01*
X6558343Y69459537D01*
X6537300Y69446925D01*
X6515121Y69436435D01*
X6492022Y69428170D01*
X6468223Y69422209D01*
X6443955Y69418609D01*
X6419451Y69417405D01*
X5519449Y69417405D01*
X5494945Y69418609D01*
X5470677Y69422209D01*
X5446878Y69428170D01*
X5423779Y69436435D01*
X5401600Y69446925D01*
X5380557Y69459537D01*
X5360851Y69474152D01*
X5342673Y69490628D01*
X5326197Y69508806D01*
X5311582Y69528512D01*
X5298970Y69549555D01*
X5288480Y69571734D01*
X5280215Y69594833D01*
X5274254Y69618632D01*
X5270654Y69642900D01*
X5269450Y69667404D01*
X5269450Y70317406D01*
X5270654Y70341910D01*
X5274254Y70366178D01*
X5280215Y70389977D01*
X5288480Y70413076D01*
X5298970Y70435255D01*
X5311582Y70456298D01*
X5326197Y70476004D01*
X5342673Y70494182D01*
X5360851Y70510658D01*
X5380557Y70525273D01*
X5401600Y70537885D01*
X5423779Y70548375D01*
X5446878Y70556640D01*
X5470677Y70562601D01*
X5494945Y70566201D01*
X5519449Y70567405D01*
X6419451Y70567405D01*
X6443955Y70566201D01*
X6443955Y70566201D01*
G37*
D42*
X5969450Y69992405D03*
D25*
G36*
X6443955Y72616201D02*
G01*
X6468223Y72612601D01*
X6492022Y72606640D01*
X6515121Y72598375D01*
X6537300Y72587885D01*
X6558343Y72575273D01*
X6578049Y72560658D01*
X6596227Y72544182D01*
X6612703Y72526004D01*
X6627318Y72506298D01*
X6639930Y72485255D01*
X6650420Y72463076D01*
X6658685Y72439977D01*
X6664646Y72416178D01*
X6668246Y72391910D01*
X6669450Y72367406D01*
X6669450Y71717404D01*
X6668246Y71692900D01*
X6664646Y71668632D01*
X6658685Y71644833D01*
X6650420Y71621734D01*
X6639930Y71599555D01*
X6627318Y71578512D01*
X6612703Y71558806D01*
X6596227Y71540628D01*
X6578049Y71524152D01*
X6558343Y71509537D01*
X6537300Y71496925D01*
X6515121Y71486435D01*
X6492022Y71478170D01*
X6468223Y71472209D01*
X6443955Y71468609D01*
X6419451Y71467405D01*
X5519449Y71467405D01*
X5494945Y71468609D01*
X5470677Y71472209D01*
X5446878Y71478170D01*
X5423779Y71486435D01*
X5401600Y71496925D01*
X5380557Y71509537D01*
X5360851Y71524152D01*
X5342673Y71540628D01*
X5326197Y71558806D01*
X5311582Y71578512D01*
X5298970Y71599555D01*
X5288480Y71621734D01*
X5280215Y71644833D01*
X5274254Y71668632D01*
X5270654Y71692900D01*
X5269450Y71717404D01*
X5269450Y72367406D01*
X5270654Y72391910D01*
X5274254Y72416178D01*
X5280215Y72439977D01*
X5288480Y72463076D01*
X5298970Y72485255D01*
X5311582Y72506298D01*
X5326197Y72526004D01*
X5342673Y72544182D01*
X5360851Y72560658D01*
X5380557Y72575273D01*
X5401600Y72587885D01*
X5423779Y72598375D01*
X5446878Y72606640D01*
X5470677Y72612601D01*
X5494945Y72616201D01*
X5519449Y72617405D01*
X6419451Y72617405D01*
X6443955Y72616201D01*
X6443955Y72616201D01*
G37*
D42*
X5969450Y72042405D03*
%TD*%
D25*
%TO.C,C10*%
G36*
X121537705Y100959951D02*
G01*
X121561973Y100956351D01*
X121585772Y100950390D01*
X121608871Y100942125D01*
X121631050Y100931635D01*
X121652093Y100919023D01*
X121671799Y100904408D01*
X121689977Y100887932D01*
X121706453Y100869754D01*
X121721068Y100850048D01*
X121733680Y100829005D01*
X121744170Y100806826D01*
X121752435Y100783727D01*
X121758396Y100759928D01*
X121761996Y100735660D01*
X121763200Y100711156D01*
X121763200Y100061154D01*
X121761996Y100036650D01*
X121758396Y100012382D01*
X121752435Y99988583D01*
X121744170Y99965484D01*
X121733680Y99943305D01*
X121721068Y99922262D01*
X121706453Y99902556D01*
X121689977Y99884378D01*
X121671799Y99867902D01*
X121652093Y99853287D01*
X121631050Y99840675D01*
X121608871Y99830185D01*
X121585772Y99821920D01*
X121561973Y99815959D01*
X121537705Y99812359D01*
X121513201Y99811155D01*
X120613199Y99811155D01*
X120588695Y99812359D01*
X120564427Y99815959D01*
X120540628Y99821920D01*
X120517529Y99830185D01*
X120495350Y99840675D01*
X120474307Y99853287D01*
X120454601Y99867902D01*
X120436423Y99884378D01*
X120419947Y99902556D01*
X120405332Y99922262D01*
X120392720Y99943305D01*
X120382230Y99965484D01*
X120373965Y99988583D01*
X120368004Y100012382D01*
X120364404Y100036650D01*
X120363200Y100061154D01*
X120363200Y100711156D01*
X120364404Y100735660D01*
X120368004Y100759928D01*
X120373965Y100783727D01*
X120382230Y100806826D01*
X120392720Y100829005D01*
X120405332Y100850048D01*
X120419947Y100869754D01*
X120436423Y100887932D01*
X120454601Y100904408D01*
X120474307Y100919023D01*
X120495350Y100931635D01*
X120517529Y100942125D01*
X120540628Y100950390D01*
X120564427Y100956351D01*
X120588695Y100959951D01*
X120613199Y100961155D01*
X121513201Y100961155D01*
X121537705Y100959951D01*
X121537705Y100959951D01*
G37*
D42*
X121063200Y100386155D03*
D25*
G36*
X121537705Y98909951D02*
G01*
X121561973Y98906351D01*
X121585772Y98900390D01*
X121608871Y98892125D01*
X121631050Y98881635D01*
X121652093Y98869023D01*
X121671799Y98854408D01*
X121689977Y98837932D01*
X121706453Y98819754D01*
X121721068Y98800048D01*
X121733680Y98779005D01*
X121744170Y98756826D01*
X121752435Y98733727D01*
X121758396Y98709928D01*
X121761996Y98685660D01*
X121763200Y98661156D01*
X121763200Y98011154D01*
X121761996Y97986650D01*
X121758396Y97962382D01*
X121752435Y97938583D01*
X121744170Y97915484D01*
X121733680Y97893305D01*
X121721068Y97872262D01*
X121706453Y97852556D01*
X121689977Y97834378D01*
X121671799Y97817902D01*
X121652093Y97803287D01*
X121631050Y97790675D01*
X121608871Y97780185D01*
X121585772Y97771920D01*
X121561973Y97765959D01*
X121537705Y97762359D01*
X121513201Y97761155D01*
X120613199Y97761155D01*
X120588695Y97762359D01*
X120564427Y97765959D01*
X120540628Y97771920D01*
X120517529Y97780185D01*
X120495350Y97790675D01*
X120474307Y97803287D01*
X120454601Y97817902D01*
X120436423Y97834378D01*
X120419947Y97852556D01*
X120405332Y97872262D01*
X120392720Y97893305D01*
X120382230Y97915484D01*
X120373965Y97938583D01*
X120368004Y97962382D01*
X120364404Y97986650D01*
X120363200Y98011154D01*
X120363200Y98661156D01*
X120364404Y98685660D01*
X120368004Y98709928D01*
X120373965Y98733727D01*
X120382230Y98756826D01*
X120392720Y98779005D01*
X120405332Y98800048D01*
X120419947Y98819754D01*
X120436423Y98837932D01*
X120454601Y98854408D01*
X120474307Y98869023D01*
X120495350Y98881635D01*
X120517529Y98892125D01*
X120540628Y98900390D01*
X120564427Y98906351D01*
X120588695Y98909951D01*
X120613199Y98911155D01*
X121513201Y98911155D01*
X121537705Y98909951D01*
X121537705Y98909951D01*
G37*
D42*
X121063200Y98336155D03*
%TD*%
D20*
%TO.C,TP1*%
X313145700Y23385575D03*
%TD*%
D12*
%TO.C,K_SPACE1*%
X179954450Y37990575D03*
D13*
X177414450Y32910575D03*
D12*
X173604450Y35450575D03*
D11*
X172334450Y32910575D03*
X182494450Y32910575D03*
D15*
X165508200Y25925575D03*
X189320700Y25925575D03*
D13*
X165508200Y41165575D03*
X189320700Y41165575D03*
%TD*%
D19*
%TO.C,U2*%
X295906950Y115158075D03*
X295906950Y116108075D03*
X295906950Y114208075D03*
X298106950Y114208075D03*
X298106950Y115158075D03*
X298106950Y116108075D03*
%TD*%
D23*
%TO.C,SW3*%
X312782082Y101594687D03*
D21*
X315282082Y101594687D03*
X317782082Y101594687D03*
D22*
X309682082Y109094687D03*
X320882082Y109094687D03*
D21*
X312782082Y116094687D03*
X317782082Y116094687D03*
%TD*%
D24*
%TO.C,SW2*%
X313914450Y79260575D03*
X307614450Y79260575D03*
X313914450Y75460575D03*
X307614450Y75460575D03*
%TD*%
D18*
%TO.C,SW1*%
X318558200Y88110575D03*
X318558200Y80810575D03*
X320768200Y80810575D03*
X320768200Y88110575D03*
D17*
X317908200Y82210575D03*
X317908200Y83710575D03*
X317908200Y86710575D03*
D16*
X319668200Y82960575D03*
X319668200Y85960575D03*
%TD*%
D25*
%TO.C,R6*%
G36*
X320550229Y99034431D02*
G01*
X320573284Y99031012D01*
X320595893Y99025348D01*
X320617837Y99017496D01*
X320638907Y99007531D01*
X320658898Y98995549D01*
X320677618Y98981665D01*
X320694888Y98966013D01*
X320710540Y98948743D01*
X320724424Y98930023D01*
X320736406Y98910032D01*
X320746371Y98888962D01*
X320754223Y98867018D01*
X320759887Y98844409D01*
X320763306Y98821354D01*
X320764450Y98798075D01*
X320764450Y98223075D01*
X320763306Y98199796D01*
X320759887Y98176741D01*
X320754223Y98154132D01*
X320746371Y98132188D01*
X320736406Y98111118D01*
X320724424Y98091127D01*
X320710540Y98072407D01*
X320694888Y98055137D01*
X320677618Y98039485D01*
X320658898Y98025601D01*
X320638907Y98013619D01*
X320617837Y98003654D01*
X320595893Y97995802D01*
X320573284Y97990138D01*
X320550229Y97986719D01*
X320526950Y97985575D01*
X320051950Y97985575D01*
X320028671Y97986719D01*
X320005616Y97990138D01*
X319983007Y97995802D01*
X319961063Y98003654D01*
X319939993Y98013619D01*
X319920002Y98025601D01*
X319901282Y98039485D01*
X319884012Y98055137D01*
X319868360Y98072407D01*
X319854476Y98091127D01*
X319842494Y98111118D01*
X319832529Y98132188D01*
X319824677Y98154132D01*
X319819013Y98176741D01*
X319815594Y98199796D01*
X319814450Y98223075D01*
X319814450Y98798075D01*
X319815594Y98821354D01*
X319819013Y98844409D01*
X319824677Y98867018D01*
X319832529Y98888962D01*
X319842494Y98910032D01*
X319854476Y98930023D01*
X319868360Y98948743D01*
X319884012Y98966013D01*
X319901282Y98981665D01*
X319920002Y98995549D01*
X319939993Y99007531D01*
X319961063Y99017496D01*
X319983007Y99025348D01*
X320005616Y99031012D01*
X320028671Y99034431D01*
X320051950Y99035575D01*
X320526950Y99035575D01*
X320550229Y99034431D01*
X320550229Y99034431D01*
G37*
D26*
X320289450Y98510575D03*
D25*
G36*
X320550229Y97284431D02*
G01*
X320573284Y97281012D01*
X320595893Y97275348D01*
X320617837Y97267496D01*
X320638907Y97257531D01*
X320658898Y97245549D01*
X320677618Y97231665D01*
X320694888Y97216013D01*
X320710540Y97198743D01*
X320724424Y97180023D01*
X320736406Y97160032D01*
X320746371Y97138962D01*
X320754223Y97117018D01*
X320759887Y97094409D01*
X320763306Y97071354D01*
X320764450Y97048075D01*
X320764450Y96473075D01*
X320763306Y96449796D01*
X320759887Y96426741D01*
X320754223Y96404132D01*
X320746371Y96382188D01*
X320736406Y96361118D01*
X320724424Y96341127D01*
X320710540Y96322407D01*
X320694888Y96305137D01*
X320677618Y96289485D01*
X320658898Y96275601D01*
X320638907Y96263619D01*
X320617837Y96253654D01*
X320595893Y96245802D01*
X320573284Y96240138D01*
X320550229Y96236719D01*
X320526950Y96235575D01*
X320051950Y96235575D01*
X320028671Y96236719D01*
X320005616Y96240138D01*
X319983007Y96245802D01*
X319961063Y96253654D01*
X319939993Y96263619D01*
X319920002Y96275601D01*
X319901282Y96289485D01*
X319884012Y96305137D01*
X319868360Y96322407D01*
X319854476Y96341127D01*
X319842494Y96361118D01*
X319832529Y96382188D01*
X319824677Y96404132D01*
X319819013Y96426741D01*
X319815594Y96449796D01*
X319814450Y96473075D01*
X319814450Y97048075D01*
X319815594Y97071354D01*
X319819013Y97094409D01*
X319824677Y97117018D01*
X319832529Y97138962D01*
X319842494Y97160032D01*
X319854476Y97180023D01*
X319868360Y97198743D01*
X319884012Y97216013D01*
X319901282Y97231665D01*
X319920002Y97245549D01*
X319939993Y97257531D01*
X319961063Y97267496D01*
X319983007Y97275348D01*
X320005616Y97281012D01*
X320028671Y97284431D01*
X320051950Y97285575D01*
X320526950Y97285575D01*
X320550229Y97284431D01*
X320550229Y97284431D01*
G37*
D26*
X320289450Y96760575D03*
%TD*%
D25*
%TO.C,R5*%
G36*
X317343979Y97209431D02*
G01*
X317367034Y97206012D01*
X317389643Y97200348D01*
X317411587Y97192496D01*
X317432657Y97182531D01*
X317452648Y97170549D01*
X317471368Y97156665D01*
X317488638Y97141013D01*
X317504290Y97123743D01*
X317518174Y97105023D01*
X317530156Y97085032D01*
X317540121Y97063962D01*
X317547973Y97042018D01*
X317553637Y97019409D01*
X317557056Y96996354D01*
X317558200Y96973075D01*
X317558200Y96498075D01*
X317557056Y96474796D01*
X317553637Y96451741D01*
X317547973Y96429132D01*
X317540121Y96407188D01*
X317530156Y96386118D01*
X317518174Y96366127D01*
X317504290Y96347407D01*
X317488638Y96330137D01*
X317471368Y96314485D01*
X317452648Y96300601D01*
X317432657Y96288619D01*
X317411587Y96278654D01*
X317389643Y96270802D01*
X317367034Y96265138D01*
X317343979Y96261719D01*
X317320700Y96260575D01*
X316745700Y96260575D01*
X316722421Y96261719D01*
X316699366Y96265138D01*
X316676757Y96270802D01*
X316654813Y96278654D01*
X316633743Y96288619D01*
X316613752Y96300601D01*
X316595032Y96314485D01*
X316577762Y96330137D01*
X316562110Y96347407D01*
X316548226Y96366127D01*
X316536244Y96386118D01*
X316526279Y96407188D01*
X316518427Y96429132D01*
X316512763Y96451741D01*
X316509344Y96474796D01*
X316508200Y96498075D01*
X316508200Y96973075D01*
X316509344Y96996354D01*
X316512763Y97019409D01*
X316518427Y97042018D01*
X316526279Y97063962D01*
X316536244Y97085032D01*
X316548226Y97105023D01*
X316562110Y97123743D01*
X316577762Y97141013D01*
X316595032Y97156665D01*
X316613752Y97170549D01*
X316633743Y97182531D01*
X316654813Y97192496D01*
X316676757Y97200348D01*
X316699366Y97206012D01*
X316722421Y97209431D01*
X316745700Y97210575D01*
X317320700Y97210575D01*
X317343979Y97209431D01*
X317343979Y97209431D01*
G37*
D26*
X317033200Y96735575D03*
D25*
G36*
X319093979Y97209431D02*
G01*
X319117034Y97206012D01*
X319139643Y97200348D01*
X319161587Y97192496D01*
X319182657Y97182531D01*
X319202648Y97170549D01*
X319221368Y97156665D01*
X319238638Y97141013D01*
X319254290Y97123743D01*
X319268174Y97105023D01*
X319280156Y97085032D01*
X319290121Y97063962D01*
X319297973Y97042018D01*
X319303637Y97019409D01*
X319307056Y96996354D01*
X319308200Y96973075D01*
X319308200Y96498075D01*
X319307056Y96474796D01*
X319303637Y96451741D01*
X319297973Y96429132D01*
X319290121Y96407188D01*
X319280156Y96386118D01*
X319268174Y96366127D01*
X319254290Y96347407D01*
X319238638Y96330137D01*
X319221368Y96314485D01*
X319202648Y96300601D01*
X319182657Y96288619D01*
X319161587Y96278654D01*
X319139643Y96270802D01*
X319117034Y96265138D01*
X319093979Y96261719D01*
X319070700Y96260575D01*
X318495700Y96260575D01*
X318472421Y96261719D01*
X318449366Y96265138D01*
X318426757Y96270802D01*
X318404813Y96278654D01*
X318383743Y96288619D01*
X318363752Y96300601D01*
X318345032Y96314485D01*
X318327762Y96330137D01*
X318312110Y96347407D01*
X318298226Y96366127D01*
X318286244Y96386118D01*
X318276279Y96407188D01*
X318268427Y96429132D01*
X318262763Y96451741D01*
X318259344Y96474796D01*
X318258200Y96498075D01*
X318258200Y96973075D01*
X318259344Y96996354D01*
X318262763Y97019409D01*
X318268427Y97042018D01*
X318276279Y97063962D01*
X318286244Y97085032D01*
X318298226Y97105023D01*
X318312110Y97123743D01*
X318327762Y97141013D01*
X318345032Y97156665D01*
X318363752Y97170549D01*
X318383743Y97182531D01*
X318404813Y97192496D01*
X318426757Y97200348D01*
X318449366Y97206012D01*
X318472421Y97209431D01*
X318495700Y97210575D01*
X319070700Y97210575D01*
X319093979Y97209431D01*
X319093979Y97209431D01*
G37*
D26*
X318783200Y96735575D03*
%TD*%
D25*
%TO.C,R4*%
G36*
X313418979Y97209431D02*
G01*
X313442034Y97206012D01*
X313464643Y97200348D01*
X313486587Y97192496D01*
X313507657Y97182531D01*
X313527648Y97170549D01*
X313546368Y97156665D01*
X313563638Y97141013D01*
X313579290Y97123743D01*
X313593174Y97105023D01*
X313605156Y97085032D01*
X313615121Y97063962D01*
X313622973Y97042018D01*
X313628637Y97019409D01*
X313632056Y96996354D01*
X313633200Y96973075D01*
X313633200Y96498075D01*
X313632056Y96474796D01*
X313628637Y96451741D01*
X313622973Y96429132D01*
X313615121Y96407188D01*
X313605156Y96386118D01*
X313593174Y96366127D01*
X313579290Y96347407D01*
X313563638Y96330137D01*
X313546368Y96314485D01*
X313527648Y96300601D01*
X313507657Y96288619D01*
X313486587Y96278654D01*
X313464643Y96270802D01*
X313442034Y96265138D01*
X313418979Y96261719D01*
X313395700Y96260575D01*
X312820700Y96260575D01*
X312797421Y96261719D01*
X312774366Y96265138D01*
X312751757Y96270802D01*
X312729813Y96278654D01*
X312708743Y96288619D01*
X312688752Y96300601D01*
X312670032Y96314485D01*
X312652762Y96330137D01*
X312637110Y96347407D01*
X312623226Y96366127D01*
X312611244Y96386118D01*
X312601279Y96407188D01*
X312593427Y96429132D01*
X312587763Y96451741D01*
X312584344Y96474796D01*
X312583200Y96498075D01*
X312583200Y96973075D01*
X312584344Y96996354D01*
X312587763Y97019409D01*
X312593427Y97042018D01*
X312601279Y97063962D01*
X312611244Y97085032D01*
X312623226Y97105023D01*
X312637110Y97123743D01*
X312652762Y97141013D01*
X312670032Y97156665D01*
X312688752Y97170549D01*
X312708743Y97182531D01*
X312729813Y97192496D01*
X312751757Y97200348D01*
X312774366Y97206012D01*
X312797421Y97209431D01*
X312820700Y97210575D01*
X313395700Y97210575D01*
X313418979Y97209431D01*
X313418979Y97209431D01*
G37*
D26*
X313108200Y96735575D03*
D25*
G36*
X311668979Y97209431D02*
G01*
X311692034Y97206012D01*
X311714643Y97200348D01*
X311736587Y97192496D01*
X311757657Y97182531D01*
X311777648Y97170549D01*
X311796368Y97156665D01*
X311813638Y97141013D01*
X311829290Y97123743D01*
X311843174Y97105023D01*
X311855156Y97085032D01*
X311865121Y97063962D01*
X311872973Y97042018D01*
X311878637Y97019409D01*
X311882056Y96996354D01*
X311883200Y96973075D01*
X311883200Y96498075D01*
X311882056Y96474796D01*
X311878637Y96451741D01*
X311872973Y96429132D01*
X311865121Y96407188D01*
X311855156Y96386118D01*
X311843174Y96366127D01*
X311829290Y96347407D01*
X311813638Y96330137D01*
X311796368Y96314485D01*
X311777648Y96300601D01*
X311757657Y96288619D01*
X311736587Y96278654D01*
X311714643Y96270802D01*
X311692034Y96265138D01*
X311668979Y96261719D01*
X311645700Y96260575D01*
X311070700Y96260575D01*
X311047421Y96261719D01*
X311024366Y96265138D01*
X311001757Y96270802D01*
X310979813Y96278654D01*
X310958743Y96288619D01*
X310938752Y96300601D01*
X310920032Y96314485D01*
X310902762Y96330137D01*
X310887110Y96347407D01*
X310873226Y96366127D01*
X310861244Y96386118D01*
X310851279Y96407188D01*
X310843427Y96429132D01*
X310837763Y96451741D01*
X310834344Y96474796D01*
X310833200Y96498075D01*
X310833200Y96973075D01*
X310834344Y96996354D01*
X310837763Y97019409D01*
X310843427Y97042018D01*
X310851279Y97063962D01*
X310861244Y97085032D01*
X310873226Y97105023D01*
X310887110Y97123743D01*
X310902762Y97141013D01*
X310920032Y97156665D01*
X310938752Y97170549D01*
X310958743Y97182531D01*
X310979813Y97192496D01*
X311001757Y97200348D01*
X311024366Y97206012D01*
X311047421Y97209431D01*
X311070700Y97210575D01*
X311645700Y97210575D01*
X311668979Y97209431D01*
X311668979Y97209431D01*
G37*
D26*
X311358200Y96735575D03*
%TD*%
D25*
%TO.C,R3*%
G36*
X310118979Y97309431D02*
G01*
X310142034Y97306012D01*
X310164643Y97300348D01*
X310186587Y97292496D01*
X310207657Y97282531D01*
X310227648Y97270549D01*
X310246368Y97256665D01*
X310263638Y97241013D01*
X310279290Y97223743D01*
X310293174Y97205023D01*
X310305156Y97185032D01*
X310315121Y97163962D01*
X310322973Y97142018D01*
X310328637Y97119409D01*
X310332056Y97096354D01*
X310333200Y97073075D01*
X310333200Y96498075D01*
X310332056Y96474796D01*
X310328637Y96451741D01*
X310322973Y96429132D01*
X310315121Y96407188D01*
X310305156Y96386118D01*
X310293174Y96366127D01*
X310279290Y96347407D01*
X310263638Y96330137D01*
X310246368Y96314485D01*
X310227648Y96300601D01*
X310207657Y96288619D01*
X310186587Y96278654D01*
X310164643Y96270802D01*
X310142034Y96265138D01*
X310118979Y96261719D01*
X310095700Y96260575D01*
X309620700Y96260575D01*
X309597421Y96261719D01*
X309574366Y96265138D01*
X309551757Y96270802D01*
X309529813Y96278654D01*
X309508743Y96288619D01*
X309488752Y96300601D01*
X309470032Y96314485D01*
X309452762Y96330137D01*
X309437110Y96347407D01*
X309423226Y96366127D01*
X309411244Y96386118D01*
X309401279Y96407188D01*
X309393427Y96429132D01*
X309387763Y96451741D01*
X309384344Y96474796D01*
X309383200Y96498075D01*
X309383200Y97073075D01*
X309384344Y97096354D01*
X309387763Y97119409D01*
X309393427Y97142018D01*
X309401279Y97163962D01*
X309411244Y97185032D01*
X309423226Y97205023D01*
X309437110Y97223743D01*
X309452762Y97241013D01*
X309470032Y97256665D01*
X309488752Y97270549D01*
X309508743Y97282531D01*
X309529813Y97292496D01*
X309551757Y97300348D01*
X309574366Y97306012D01*
X309597421Y97309431D01*
X309620700Y97310575D01*
X310095700Y97310575D01*
X310118979Y97309431D01*
X310118979Y97309431D01*
G37*
D26*
X309858200Y96785575D03*
D25*
G36*
X310118979Y99059431D02*
G01*
X310142034Y99056012D01*
X310164643Y99050348D01*
X310186587Y99042496D01*
X310207657Y99032531D01*
X310227648Y99020549D01*
X310246368Y99006665D01*
X310263638Y98991013D01*
X310279290Y98973743D01*
X310293174Y98955023D01*
X310305156Y98935032D01*
X310315121Y98913962D01*
X310322973Y98892018D01*
X310328637Y98869409D01*
X310332056Y98846354D01*
X310333200Y98823075D01*
X310333200Y98248075D01*
X310332056Y98224796D01*
X310328637Y98201741D01*
X310322973Y98179132D01*
X310315121Y98157188D01*
X310305156Y98136118D01*
X310293174Y98116127D01*
X310279290Y98097407D01*
X310263638Y98080137D01*
X310246368Y98064485D01*
X310227648Y98050601D01*
X310207657Y98038619D01*
X310186587Y98028654D01*
X310164643Y98020802D01*
X310142034Y98015138D01*
X310118979Y98011719D01*
X310095700Y98010575D01*
X309620700Y98010575D01*
X309597421Y98011719D01*
X309574366Y98015138D01*
X309551757Y98020802D01*
X309529813Y98028654D01*
X309508743Y98038619D01*
X309488752Y98050601D01*
X309470032Y98064485D01*
X309452762Y98080137D01*
X309437110Y98097407D01*
X309423226Y98116127D01*
X309411244Y98136118D01*
X309401279Y98157188D01*
X309393427Y98179132D01*
X309387763Y98201741D01*
X309384344Y98224796D01*
X309383200Y98248075D01*
X309383200Y98823075D01*
X309384344Y98846354D01*
X309387763Y98869409D01*
X309393427Y98892018D01*
X309401279Y98913962D01*
X309411244Y98935032D01*
X309423226Y98955023D01*
X309437110Y98973743D01*
X309452762Y98991013D01*
X309470032Y99006665D01*
X309488752Y99020549D01*
X309508743Y99032531D01*
X309529813Y99042496D01*
X309551757Y99050348D01*
X309574366Y99056012D01*
X309597421Y99059431D01*
X309620700Y99060575D01*
X310095700Y99060575D01*
X310118979Y99059431D01*
X310118979Y99059431D01*
G37*
D26*
X309858200Y98535575D03*
%TD*%
D25*
%TO.C,R2*%
G36*
X284006479Y117521931D02*
G01*
X284029534Y117518512D01*
X284052143Y117512848D01*
X284074087Y117504996D01*
X284095157Y117495031D01*
X284115148Y117483049D01*
X284133868Y117469165D01*
X284151138Y117453513D01*
X284166790Y117436243D01*
X284180674Y117417523D01*
X284192656Y117397532D01*
X284202621Y117376462D01*
X284210473Y117354518D01*
X284216137Y117331909D01*
X284219556Y117308854D01*
X284220700Y117285575D01*
X284220700Y116810575D01*
X284219556Y116787296D01*
X284216137Y116764241D01*
X284210473Y116741632D01*
X284202621Y116719688D01*
X284192656Y116698618D01*
X284180674Y116678627D01*
X284166790Y116659907D01*
X284151138Y116642637D01*
X284133868Y116626985D01*
X284115148Y116613101D01*
X284095157Y116601119D01*
X284074087Y116591154D01*
X284052143Y116583302D01*
X284029534Y116577638D01*
X284006479Y116574219D01*
X283983200Y116573075D01*
X283408200Y116573075D01*
X283384921Y116574219D01*
X283361866Y116577638D01*
X283339257Y116583302D01*
X283317313Y116591154D01*
X283296243Y116601119D01*
X283276252Y116613101D01*
X283257532Y116626985D01*
X283240262Y116642637D01*
X283224610Y116659907D01*
X283210726Y116678627D01*
X283198744Y116698618D01*
X283188779Y116719688D01*
X283180927Y116741632D01*
X283175263Y116764241D01*
X283171844Y116787296D01*
X283170700Y116810575D01*
X283170700Y117285575D01*
X283171844Y117308854D01*
X283175263Y117331909D01*
X283180927Y117354518D01*
X283188779Y117376462D01*
X283198744Y117397532D01*
X283210726Y117417523D01*
X283224610Y117436243D01*
X283240262Y117453513D01*
X283257532Y117469165D01*
X283276252Y117483049D01*
X283296243Y117495031D01*
X283317313Y117504996D01*
X283339257Y117512848D01*
X283361866Y117518512D01*
X283384921Y117521931D01*
X283408200Y117523075D01*
X283983200Y117523075D01*
X284006479Y117521931D01*
X284006479Y117521931D01*
G37*
D26*
X283695700Y117048075D03*
D25*
G36*
X285756479Y117521931D02*
G01*
X285779534Y117518512D01*
X285802143Y117512848D01*
X285824087Y117504996D01*
X285845157Y117495031D01*
X285865148Y117483049D01*
X285883868Y117469165D01*
X285901138Y117453513D01*
X285916790Y117436243D01*
X285930674Y117417523D01*
X285942656Y117397532D01*
X285952621Y117376462D01*
X285960473Y117354518D01*
X285966137Y117331909D01*
X285969556Y117308854D01*
X285970700Y117285575D01*
X285970700Y116810575D01*
X285969556Y116787296D01*
X285966137Y116764241D01*
X285960473Y116741632D01*
X285952621Y116719688D01*
X285942656Y116698618D01*
X285930674Y116678627D01*
X285916790Y116659907D01*
X285901138Y116642637D01*
X285883868Y116626985D01*
X285865148Y116613101D01*
X285845157Y116601119D01*
X285824087Y116591154D01*
X285802143Y116583302D01*
X285779534Y116577638D01*
X285756479Y116574219D01*
X285733200Y116573075D01*
X285158200Y116573075D01*
X285134921Y116574219D01*
X285111866Y116577638D01*
X285089257Y116583302D01*
X285067313Y116591154D01*
X285046243Y116601119D01*
X285026252Y116613101D01*
X285007532Y116626985D01*
X284990262Y116642637D01*
X284974610Y116659907D01*
X284960726Y116678627D01*
X284948744Y116698618D01*
X284938779Y116719688D01*
X284930927Y116741632D01*
X284925263Y116764241D01*
X284921844Y116787296D01*
X284920700Y116810575D01*
X284920700Y117285575D01*
X284921844Y117308854D01*
X284925263Y117331909D01*
X284930927Y117354518D01*
X284938779Y117376462D01*
X284948744Y117397532D01*
X284960726Y117417523D01*
X284974610Y117436243D01*
X284990262Y117453513D01*
X285007532Y117469165D01*
X285026252Y117483049D01*
X285046243Y117495031D01*
X285067313Y117504996D01*
X285089257Y117512848D01*
X285111866Y117518512D01*
X285134921Y117521931D01*
X285158200Y117523075D01*
X285733200Y117523075D01*
X285756479Y117521931D01*
X285756479Y117521931D01*
G37*
D26*
X285445700Y117048075D03*
%TD*%
D25*
%TO.C,R1*%
G36*
X276150229Y117521931D02*
G01*
X276173284Y117518512D01*
X276195893Y117512848D01*
X276217837Y117504996D01*
X276238907Y117495031D01*
X276258898Y117483049D01*
X276277618Y117469165D01*
X276294888Y117453513D01*
X276310540Y117436243D01*
X276324424Y117417523D01*
X276336406Y117397532D01*
X276346371Y117376462D01*
X276354223Y117354518D01*
X276359887Y117331909D01*
X276363306Y117308854D01*
X276364450Y117285575D01*
X276364450Y116810575D01*
X276363306Y116787296D01*
X276359887Y116764241D01*
X276354223Y116741632D01*
X276346371Y116719688D01*
X276336406Y116698618D01*
X276324424Y116678627D01*
X276310540Y116659907D01*
X276294888Y116642637D01*
X276277618Y116626985D01*
X276258898Y116613101D01*
X276238907Y116601119D01*
X276217837Y116591154D01*
X276195893Y116583302D01*
X276173284Y116577638D01*
X276150229Y116574219D01*
X276126950Y116573075D01*
X275551950Y116573075D01*
X275528671Y116574219D01*
X275505616Y116577638D01*
X275483007Y116583302D01*
X275461063Y116591154D01*
X275439993Y116601119D01*
X275420002Y116613101D01*
X275401282Y116626985D01*
X275384012Y116642637D01*
X275368360Y116659907D01*
X275354476Y116678627D01*
X275342494Y116698618D01*
X275332529Y116719688D01*
X275324677Y116741632D01*
X275319013Y116764241D01*
X275315594Y116787296D01*
X275314450Y116810575D01*
X275314450Y117285575D01*
X275315594Y117308854D01*
X275319013Y117331909D01*
X275324677Y117354518D01*
X275332529Y117376462D01*
X275342494Y117397532D01*
X275354476Y117417523D01*
X275368360Y117436243D01*
X275384012Y117453513D01*
X275401282Y117469165D01*
X275420002Y117483049D01*
X275439993Y117495031D01*
X275461063Y117504996D01*
X275483007Y117512848D01*
X275505616Y117518512D01*
X275528671Y117521931D01*
X275551950Y117523075D01*
X276126950Y117523075D01*
X276150229Y117521931D01*
X276150229Y117521931D01*
G37*
D26*
X275839450Y117048075D03*
D25*
G36*
X274400229Y117521931D02*
G01*
X274423284Y117518512D01*
X274445893Y117512848D01*
X274467837Y117504996D01*
X274488907Y117495031D01*
X274508898Y117483049D01*
X274527618Y117469165D01*
X274544888Y117453513D01*
X274560540Y117436243D01*
X274574424Y117417523D01*
X274586406Y117397532D01*
X274596371Y117376462D01*
X274604223Y117354518D01*
X274609887Y117331909D01*
X274613306Y117308854D01*
X274614450Y117285575D01*
X274614450Y116810575D01*
X274613306Y116787296D01*
X274609887Y116764241D01*
X274604223Y116741632D01*
X274596371Y116719688D01*
X274586406Y116698618D01*
X274574424Y116678627D01*
X274560540Y116659907D01*
X274544888Y116642637D01*
X274527618Y116626985D01*
X274508898Y116613101D01*
X274488907Y116601119D01*
X274467837Y116591154D01*
X274445893Y116583302D01*
X274423284Y116577638D01*
X274400229Y116574219D01*
X274376950Y116573075D01*
X273801950Y116573075D01*
X273778671Y116574219D01*
X273755616Y116577638D01*
X273733007Y116583302D01*
X273711063Y116591154D01*
X273689993Y116601119D01*
X273670002Y116613101D01*
X273651282Y116626985D01*
X273634012Y116642637D01*
X273618360Y116659907D01*
X273604476Y116678627D01*
X273592494Y116698618D01*
X273582529Y116719688D01*
X273574677Y116741632D01*
X273569013Y116764241D01*
X273565594Y116787296D01*
X273564450Y116810575D01*
X273564450Y117285575D01*
X273565594Y117308854D01*
X273569013Y117331909D01*
X273574677Y117354518D01*
X273582529Y117376462D01*
X273592494Y117397532D01*
X273604476Y117417523D01*
X273618360Y117436243D01*
X273634012Y117453513D01*
X273651282Y117469165D01*
X273670002Y117483049D01*
X273689993Y117495031D01*
X273711063Y117504996D01*
X273733007Y117512848D01*
X273755616Y117518512D01*
X273778671Y117521931D01*
X273801950Y117523075D01*
X274376950Y117523075D01*
X274400229Y117521931D01*
X274400229Y117521931D01*
G37*
D26*
X274089450Y117048075D03*
%TD*%
D27*
%TO.C,OL1*%
X311496385Y90947868D03*
X314036385Y90947868D03*
X316576385Y90947868D03*
X319116385Y90947868D03*
%TD*%
D12*
%TO.C,K_Y1*%
X148998200Y95140575D03*
D13*
X146458200Y90060575D03*
D12*
X142648200Y92600575D03*
D11*
X141378200Y90060575D03*
X151538200Y90060575D03*
%TD*%
D12*
%TO.C,K_UP1*%
X296635700Y52278075D03*
D13*
X294095700Y47198075D03*
D12*
X290285700Y49738075D03*
D11*
X289015700Y47198075D03*
X299175700Y47198075D03*
%TD*%
D12*
%TO.C,K_U1*%
X168048200Y95140575D03*
D13*
X165508200Y90060575D03*
D12*
X161698200Y92600575D03*
D11*
X160428200Y90060575D03*
X170588200Y90060575D03*
%TD*%
D12*
%TO.C,K_SLASH1*%
X239485700Y57040575D03*
D13*
X236945700Y51960575D03*
D12*
X233135700Y54500575D03*
D11*
X231865700Y51960575D03*
X242025700Y51960575D03*
%TD*%
D12*
%TO.C,K_RSHIFT1*%
X265679450Y57040575D03*
D13*
X263139450Y51960575D03*
D12*
X259329450Y54500575D03*
D11*
X258059450Y51960575D03*
X268219450Y51960575D03*
%TD*%
D12*
%TO.C,K_RIGHT1*%
X315685700Y33228075D03*
D13*
X313145700Y28148075D03*
D12*
X309335700Y30688075D03*
D11*
X308065700Y28148075D03*
X318225700Y28148075D03*
%TD*%
D12*
%TO.C,K_R_PAR1*%
X263298200Y95140575D03*
D13*
X260758200Y90060575D03*
D12*
X256948200Y92600575D03*
D11*
X255678200Y90060575D03*
X265838200Y90060575D03*
%TD*%
D12*
%TO.C,K_QUOTE1*%
X249010700Y76090575D03*
D13*
X246470700Y71010575D03*
D12*
X242660700Y73550575D03*
D11*
X241390700Y71010575D03*
X251550700Y71010575D03*
%TD*%
D12*
%TO.C,K_P1*%
X225198200Y95140575D03*
D13*
X222658200Y90060575D03*
D12*
X218848200Y92600575D03*
D11*
X217578200Y90060575D03*
X227738200Y90060575D03*
%TD*%
D12*
%TO.C,K_O1*%
X206148200Y95140575D03*
D13*
X203608200Y90060575D03*
D12*
X199798200Y92600575D03*
D11*
X198528200Y90060575D03*
X208688200Y90060575D03*
%TD*%
D12*
%TO.C,K_NUM9*%
X196623200Y114190575D03*
D13*
X194083200Y109110575D03*
D12*
X190273200Y111650575D03*
D11*
X189003200Y109110575D03*
X199163200Y109110575D03*
%TD*%
D12*
%TO.C,K_NUM8*%
X177573200Y114190575D03*
D13*
X175033200Y109110575D03*
D12*
X171223200Y111650575D03*
D11*
X169953200Y109110575D03*
X180113200Y109110575D03*
%TD*%
D12*
%TO.C,K_NUM7*%
X158523200Y114190575D03*
D13*
X155983200Y109110575D03*
D12*
X152173200Y111650575D03*
D11*
X150903200Y109110575D03*
X161063200Y109110575D03*
%TD*%
D12*
%TO.C,K_NUM0*%
X215673200Y114190575D03*
D13*
X213133200Y109110575D03*
D12*
X209323200Y111650575D03*
D11*
X208053200Y109110575D03*
X218213200Y109110575D03*
%TD*%
D12*
%TO.C,K_MINUS1*%
X234723200Y114190575D03*
D13*
X232183200Y109110575D03*
D12*
X228373200Y111650575D03*
D11*
X227103200Y109110575D03*
X237263200Y109110575D03*
%TD*%
D12*
%TO.C,K_M1*%
X182335700Y57040575D03*
D13*
X179795700Y51960575D03*
D12*
X175985700Y54500575D03*
D11*
X174715700Y51960575D03*
X184875700Y51960575D03*
%TD*%
D12*
%TO.C,K_LEFT1*%
X277585700Y33228075D03*
D13*
X275045700Y28148075D03*
D12*
X271235700Y30688075D03*
D11*
X269965700Y28148075D03*
X280125700Y28148075D03*
%TD*%
D12*
%TO.C,K_L_PAR1*%
X244248200Y95140575D03*
D13*
X241708200Y90060575D03*
D12*
X237898200Y92600575D03*
D11*
X236628200Y90060575D03*
X246788200Y90060575D03*
%TD*%
D12*
%TO.C,K_L1*%
X210910700Y76090575D03*
D13*
X208370700Y71010575D03*
D12*
X204560700Y73550575D03*
D11*
X203290700Y71010575D03*
X213450700Y71010575D03*
%TD*%
D12*
%TO.C,K_K1*%
X191860700Y76090575D03*
D13*
X189320700Y71010575D03*
D12*
X185510700Y73550575D03*
D11*
X184240700Y71010575D03*
X194400700Y71010575D03*
%TD*%
D12*
%TO.C,K_J1*%
X172810700Y76090575D03*
D13*
X170270700Y71010575D03*
D12*
X166460700Y73550575D03*
D11*
X165190700Y71010575D03*
X175350700Y71010575D03*
%TD*%
D12*
%TO.C,K_I1*%
X187098200Y95140575D03*
D13*
X184558200Y90060575D03*
D12*
X180748200Y92600575D03*
D11*
X179478200Y90060575D03*
X189638200Y90060575D03*
%TD*%
D12*
%TO.C,K_H1*%
X153760700Y76090575D03*
D13*
X151220700Y71010575D03*
D12*
X147410700Y73550575D03*
D11*
X146140700Y71010575D03*
X156300700Y71010575D03*
%TD*%
D12*
%TO.C,K_FN1*%
X234723200Y37990575D03*
D13*
X232183200Y32910575D03*
D12*
X228373200Y35450575D03*
D11*
X227103200Y32910575D03*
X237263200Y32910575D03*
%TD*%
D12*
%TO.C,K_EQUAL1*%
X253773200Y114190575D03*
D13*
X251233200Y109110575D03*
D12*
X247423200Y111650575D03*
D11*
X246153200Y109110575D03*
X256313200Y109110575D03*
%TD*%
D12*
%TO.C,K_ENTER1*%
X279966950Y76090575D03*
D13*
X277426950Y71010575D03*
D12*
X273616950Y73550575D03*
D11*
X272346950Y71010575D03*
X282506950Y71010575D03*
D15*
X265520700Y77995575D03*
X289333200Y77995575D03*
D13*
X265520700Y62755575D03*
X289333200Y62755575D03*
%TD*%
D12*
%TO.C,K_ENC1*%
X317808400Y114187425D03*
D13*
X315268400Y109107425D03*
D12*
X311458400Y111647425D03*
D11*
X310188400Y109107425D03*
X320348400Y109107425D03*
%TD*%
D12*
%TO.C,K_DOWN1*%
X296635700Y33228075D03*
D13*
X294095700Y28148075D03*
D12*
X290285700Y30688075D03*
D11*
X289015700Y28148075D03*
X299175700Y28148075D03*
%TD*%
D12*
%TO.C,K_DOT1*%
X220435700Y57040575D03*
D13*
X217895700Y51960575D03*
D12*
X214085700Y54500575D03*
D11*
X212815700Y51960575D03*
X222975700Y51960575D03*
%TD*%
D12*
%TO.C,K_DEL1*%
X291873200Y114190575D03*
D13*
X289333200Y109110575D03*
D12*
X285523200Y111650575D03*
D11*
X284253200Y109110575D03*
X294413200Y109110575D03*
%TD*%
D12*
%TO.C,K_CTRL2*%
X253773200Y37990575D03*
D13*
X251233200Y32910575D03*
D12*
X247423200Y35450575D03*
D11*
X246153200Y32910575D03*
X256313200Y32910575D03*
%TD*%
D12*
%TO.C,K_CTRL1*%
X249010700Y37990575D03*
D13*
X246470700Y32910575D03*
D12*
X242660700Y35450575D03*
D11*
X241390700Y32910575D03*
X251550700Y32910575D03*
%TD*%
D12*
%TO.C,K_COMMA1*%
X201385700Y57040575D03*
D13*
X198845700Y51960575D03*
D12*
X195035700Y54500575D03*
D11*
X193765700Y51960575D03*
X203925700Y51960575D03*
%TD*%
D12*
%TO.C,K_COLON1*%
X229960700Y76090575D03*
D13*
X227420700Y71010575D03*
D12*
X223610700Y73550575D03*
D11*
X222340700Y71010575D03*
X232500700Y71010575D03*
%TD*%
D12*
%TO.C,K_BSPC2*%
X272823200Y114190575D03*
D13*
X270283200Y109110575D03*
D12*
X266473200Y111650575D03*
D11*
X265203200Y109110575D03*
X275363200Y109110575D03*
%TD*%
D12*
%TO.C,K_BSPC1*%
X282348200Y114190575D03*
D13*
X279808200Y109110575D03*
D12*
X275998200Y111650575D03*
D11*
X274728200Y109110575D03*
X284888200Y109110575D03*
D15*
X267901950Y116095575D03*
X291714450Y116095575D03*
D13*
X267901950Y100855575D03*
X291714450Y100855575D03*
%TD*%
D12*
%TO.C,K_BACKSLASH1*%
X287110700Y95140575D03*
D13*
X284570700Y90060575D03*
D12*
X280760700Y92600575D03*
D11*
X279490700Y90060575D03*
X289650700Y90060575D03*
%TD*%
D12*
%TO.C,K_ALT2*%
X215673200Y37990575D03*
D13*
X213133200Y32910575D03*
D12*
X209323200Y35450575D03*
D11*
X208053200Y32910575D03*
X218213200Y32910575D03*
%TD*%
D12*
%TO.C,K_ALT1*%
X220435700Y37990575D03*
D13*
X217895700Y32910575D03*
D12*
X214085700Y35450575D03*
D11*
X212815700Y32910575D03*
X222975700Y32910575D03*
%TD*%
D29*
%TO.C,J4*%
X313939450Y86091825D03*
D25*
G36*
X314713954Y84440621D02*
G01*
X314738223Y84437021D01*
X314762021Y84431060D01*
X314785121Y84422795D01*
X314807299Y84412305D01*
X314828343Y84399692D01*
X314848048Y84385078D01*
X314866227Y84368602D01*
X314882703Y84350423D01*
X314897317Y84330718D01*
X314909930Y84309674D01*
X314920420Y84287496D01*
X314928685Y84264396D01*
X314934646Y84240598D01*
X314938246Y84216329D01*
X314939450Y84191825D01*
X314939450Y82991825D01*
X314938246Y82967321D01*
X314934646Y82943052D01*
X314928685Y82919254D01*
X314920420Y82896154D01*
X314909930Y82873976D01*
X314897317Y82852932D01*
X314882703Y82833227D01*
X314866227Y82815048D01*
X314848048Y82798572D01*
X314828343Y82783958D01*
X314807299Y82771345D01*
X314785121Y82760855D01*
X314762021Y82752590D01*
X314738223Y82746629D01*
X314713954Y82743029D01*
X314689450Y82741825D01*
X313189450Y82741825D01*
X313164946Y82743029D01*
X313140677Y82746629D01*
X313116879Y82752590D01*
X313093779Y82760855D01*
X313071601Y82771345D01*
X313050557Y82783958D01*
X313030852Y82798572D01*
X313012673Y82815048D01*
X312996197Y82833227D01*
X312981583Y82852932D01*
X312968970Y82873976D01*
X312958480Y82896154D01*
X312950215Y82919254D01*
X312944254Y82943052D01*
X312940654Y82967321D01*
X312939450Y82991825D01*
X312939450Y84191825D01*
X312940654Y84216329D01*
X312944254Y84240598D01*
X312950215Y84264396D01*
X312958480Y84287496D01*
X312968970Y84309674D01*
X312981583Y84330718D01*
X312996197Y84350423D01*
X313012673Y84368602D01*
X313030852Y84385078D01*
X313050557Y84399692D01*
X313071601Y84412305D01*
X313093779Y84422795D01*
X313116879Y84431060D01*
X313140677Y84437021D01*
X313164946Y84440621D01*
X313189450Y84441825D01*
X314689450Y84441825D01*
X314713954Y84440621D01*
X314713954Y84440621D01*
G37*
D28*
X313939450Y83591825D03*
%TD*%
D31*
%TO.C,J3*%
X165512615Y115626655D03*
X165512615Y122626655D03*
D30*
X162262615Y121026655D03*
X162262615Y118026655D03*
X162262615Y114026655D03*
X168762615Y112926655D03*
%TD*%
D33*
%TO.C,J2*%
X304414450Y105776825D03*
X304414450Y108316825D03*
X304414450Y110856825D03*
D32*
X304414450Y113396825D03*
%TD*%
D38*
%TO.C,J1*%
X283058200Y118885575D03*
X282258200Y118885575D03*
X277358200Y118885575D03*
X276558200Y118885575D03*
X276558200Y118885575D03*
X277358200Y118885575D03*
X282258200Y118885575D03*
X283058200Y118885575D03*
D37*
X278058200Y118885575D03*
X278558200Y118885575D03*
X279058200Y118885575D03*
X280058200Y118885575D03*
X280558200Y118885575D03*
X281058200Y118885575D03*
X281558200Y118885575D03*
X279558200Y118885575D03*
D36*
X284128200Y119800575D03*
X275488200Y119800575D03*
D35*
X276918200Y120330575D03*
D34*
X275488200Y123980575D03*
D35*
X282698200Y120330575D03*
D34*
X284128200Y123980575D03*
%TD*%
D12*
%TO.C,ISO_KEY1*%
X268060700Y76090575D03*
D13*
X265520700Y71010575D03*
D12*
X261710700Y73550575D03*
D11*
X260440700Y71010575D03*
X270600700Y71010575D03*
%TD*%
D39*
%TO.C,D45*%
X296408200Y69410575D03*
X296408200Y72610575D03*
X301308200Y69410575D03*
X301308200Y72610575D03*
%TD*%
%TO.C,D44*%
X296412615Y40845405D03*
X296412615Y44045405D03*
X301312615Y40845405D03*
X301312615Y44045405D03*
%TD*%
%TO.C,D43*%
X296481365Y97985575D03*
X296481365Y101185575D03*
X301381365Y97985575D03*
X301381365Y101185575D03*
%TD*%
%TO.C,D42*%
X239258200Y40835575D03*
X239258200Y44035575D03*
X244158200Y40835575D03*
X244158200Y44035575D03*
%TD*%
%TO.C,D41*%
X239258200Y97985575D03*
X239258200Y101185575D03*
X244158200Y97985575D03*
X244158200Y101185575D03*
%TD*%
D41*
%TO.C,D40*%
X321083200Y29798075D03*
X321083200Y26498075D03*
%TD*%
D40*
%TO.C,D39*%
X291718865Y52764155D03*
X288418865Y52764155D03*
%TD*%
D41*
%TO.C,D38*%
X287745700Y72660575D03*
X287745700Y69360575D03*
%TD*%
%TO.C,D37*%
X282987615Y85370405D03*
X282987615Y82070405D03*
%TD*%
%TO.C,D36*%
X297270700Y110760575D03*
X297270700Y107460575D03*
%TD*%
%TO.C,D35*%
X302033200Y29798075D03*
X302033200Y26498075D03*
%TD*%
%TO.C,D34*%
X271076950Y53610575D03*
X271076950Y50310575D03*
%TD*%
%TO.C,D33*%
X285364450Y72660575D03*
X285364450Y69360575D03*
%TD*%
D40*
%TO.C,D32*%
X281458200Y105141825D03*
X278158200Y105141825D03*
%TD*%
D39*
%TO.C,D31*%
X182176950Y44791825D03*
X182176950Y47991825D03*
X187076950Y44791825D03*
X187076950Y47991825D03*
%TD*%
%TO.C,D30*%
X182058200Y97985575D03*
X182058200Y101185575D03*
X186958200Y97985575D03*
X186958200Y101185575D03*
%TD*%
D41*
%TO.C,D29*%
X268695700Y91710575D03*
X268695700Y88410575D03*
%TD*%
%TO.C,D28*%
X282983200Y29798075D03*
X282983200Y26498075D03*
%TD*%
%TO.C,D27*%
X254408200Y72660575D03*
X254408200Y69360575D03*
%TD*%
%TO.C,D26*%
X249645700Y91710575D03*
X249645700Y88410575D03*
%TD*%
%TO.C,D25*%
X259170700Y110760575D03*
X259170700Y107460575D03*
%TD*%
D40*
%TO.C,D24*%
X252883200Y28941825D03*
X249583200Y28941825D03*
%TD*%
D41*
%TO.C,D23*%
X244883200Y53610575D03*
X244883200Y50310575D03*
%TD*%
%TO.C,D22*%
X235358200Y72660575D03*
X235358200Y69360575D03*
%TD*%
%TO.C,D21*%
X230595700Y91710575D03*
X230595700Y88410575D03*
%TD*%
%TO.C,D20*%
X240120700Y110760575D03*
X240120700Y107460575D03*
%TD*%
D40*
%TO.C,D19*%
X233833200Y28941825D03*
X230533200Y28941825D03*
%TD*%
D41*
%TO.C,D18*%
X225833200Y53610575D03*
X225833200Y50310575D03*
%TD*%
%TO.C,D17*%
X216308200Y72660575D03*
X216308200Y69360575D03*
%TD*%
%TO.C,D16*%
X211545700Y91710575D03*
X211545700Y88410575D03*
%TD*%
%TO.C,D15*%
X221070700Y110760575D03*
X221070700Y107460575D03*
%TD*%
D40*
%TO.C,D14*%
X214783200Y28941825D03*
X211483200Y28941825D03*
%TD*%
D41*
%TO.C,D13*%
X206783200Y53610575D03*
X206783200Y50310575D03*
%TD*%
%TO.C,D12*%
X197258200Y72660575D03*
X197258200Y69360575D03*
%TD*%
%TO.C,D11*%
X192495700Y91710575D03*
X192495700Y88410575D03*
%TD*%
%TO.C,D10*%
X202020700Y110760575D03*
X202020700Y107460575D03*
%TD*%
%TO.C,D9*%
X185351950Y34560575D03*
X185351950Y31260575D03*
%TD*%
%TO.C,D8*%
X187733200Y53610575D03*
X187733200Y50310575D03*
%TD*%
%TO.C,D7*%
X178208200Y72660575D03*
X178208200Y69360575D03*
%TD*%
%TO.C,D6*%
X173445700Y91710575D03*
X173445700Y88410575D03*
%TD*%
%TO.C,D5*%
X182970700Y110760575D03*
X182970700Y107460575D03*
%TD*%
%TO.C,D4*%
X168683200Y53610575D03*
X168683200Y50310575D03*
%TD*%
%TO.C,D3*%
X159158200Y72660575D03*
X159158200Y69360575D03*
%TD*%
%TO.C,D2*%
X154395700Y91710575D03*
X154395700Y88410575D03*
%TD*%
%TO.C,D1*%
X163920700Y110760575D03*
X163920700Y107460575D03*
%TD*%
D25*
%TO.C,C9*%
G36*
X246945205Y44265621D02*
G01*
X246969473Y44262021D01*
X246993272Y44256060D01*
X247016371Y44247795D01*
X247038550Y44237305D01*
X247059593Y44224693D01*
X247079299Y44210078D01*
X247097477Y44193602D01*
X247113953Y44175424D01*
X247128568Y44155718D01*
X247141180Y44134675D01*
X247151670Y44112496D01*
X247159935Y44089397D01*
X247165896Y44065598D01*
X247169496Y44041330D01*
X247170700Y44016826D01*
X247170700Y43366824D01*
X247169496Y43342320D01*
X247165896Y43318052D01*
X247159935Y43294253D01*
X247151670Y43271154D01*
X247141180Y43248975D01*
X247128568Y43227932D01*
X247113953Y43208226D01*
X247097477Y43190048D01*
X247079299Y43173572D01*
X247059593Y43158957D01*
X247038550Y43146345D01*
X247016371Y43135855D01*
X246993272Y43127590D01*
X246969473Y43121629D01*
X246945205Y43118029D01*
X246920701Y43116825D01*
X246020699Y43116825D01*
X245996195Y43118029D01*
X245971927Y43121629D01*
X245948128Y43127590D01*
X245925029Y43135855D01*
X245902850Y43146345D01*
X245881807Y43158957D01*
X245862101Y43173572D01*
X245843923Y43190048D01*
X245827447Y43208226D01*
X245812832Y43227932D01*
X245800220Y43248975D01*
X245789730Y43271154D01*
X245781465Y43294253D01*
X245775504Y43318052D01*
X245771904Y43342320D01*
X245770700Y43366824D01*
X245770700Y44016826D01*
X245771904Y44041330D01*
X245775504Y44065598D01*
X245781465Y44089397D01*
X245789730Y44112496D01*
X245800220Y44134675D01*
X245812832Y44155718D01*
X245827447Y44175424D01*
X245843923Y44193602D01*
X245862101Y44210078D01*
X245881807Y44224693D01*
X245902850Y44237305D01*
X245925029Y44247795D01*
X245948128Y44256060D01*
X245971927Y44262021D01*
X245996195Y44265621D01*
X246020699Y44266825D01*
X246920701Y44266825D01*
X246945205Y44265621D01*
X246945205Y44265621D01*
G37*
D42*
X246470700Y43691825D03*
D25*
G36*
X246945205Y42215621D02*
G01*
X246969473Y42212021D01*
X246993272Y42206060D01*
X247016371Y42197795D01*
X247038550Y42187305D01*
X247059593Y42174693D01*
X247079299Y42160078D01*
X247097477Y42143602D01*
X247113953Y42125424D01*
X247128568Y42105718D01*
X247141180Y42084675D01*
X247151670Y42062496D01*
X247159935Y42039397D01*
X247165896Y42015598D01*
X247169496Y41991330D01*
X247170700Y41966826D01*
X247170700Y41316824D01*
X247169496Y41292320D01*
X247165896Y41268052D01*
X247159935Y41244253D01*
X247151670Y41221154D01*
X247141180Y41198975D01*
X247128568Y41177932D01*
X247113953Y41158226D01*
X247097477Y41140048D01*
X247079299Y41123572D01*
X247059593Y41108957D01*
X247038550Y41096345D01*
X247016371Y41085855D01*
X246993272Y41077590D01*
X246969473Y41071629D01*
X246945205Y41068029D01*
X246920701Y41066825D01*
X246020699Y41066825D01*
X245996195Y41068029D01*
X245971927Y41071629D01*
X245948128Y41077590D01*
X245925029Y41085855D01*
X245902850Y41096345D01*
X245881807Y41108957D01*
X245862101Y41123572D01*
X245843923Y41140048D01*
X245827447Y41158226D01*
X245812832Y41177932D01*
X245800220Y41198975D01*
X245789730Y41221154D01*
X245781465Y41244253D01*
X245775504Y41268052D01*
X245771904Y41292320D01*
X245770700Y41316824D01*
X245770700Y41966826D01*
X245771904Y41991330D01*
X245775504Y42015598D01*
X245781465Y42039397D01*
X245789730Y42062496D01*
X245800220Y42084675D01*
X245812832Y42105718D01*
X245827447Y42125424D01*
X245843923Y42143602D01*
X245862101Y42160078D01*
X245881807Y42174693D01*
X245902850Y42187305D01*
X245925029Y42197795D01*
X245948128Y42206060D01*
X245971927Y42212021D01*
X245996195Y42215621D01*
X246020699Y42216825D01*
X246920701Y42216825D01*
X246945205Y42215621D01*
X246945205Y42215621D01*
G37*
D42*
X246470700Y41641825D03*
%TD*%
D25*
%TO.C,C8*%
G36*
X320763955Y102771871D02*
G01*
X320788223Y102768271D01*
X320812022Y102762310D01*
X320835121Y102754045D01*
X320857300Y102743555D01*
X320878343Y102730943D01*
X320898049Y102716328D01*
X320916227Y102699852D01*
X320932703Y102681674D01*
X320947318Y102661968D01*
X320959930Y102640925D01*
X320970420Y102618746D01*
X320978685Y102595647D01*
X320984646Y102571848D01*
X320988246Y102547580D01*
X320989450Y102523076D01*
X320989450Y101873074D01*
X320988246Y101848570D01*
X320984646Y101824302D01*
X320978685Y101800503D01*
X320970420Y101777404D01*
X320959930Y101755225D01*
X320947318Y101734182D01*
X320932703Y101714476D01*
X320916227Y101696298D01*
X320898049Y101679822D01*
X320878343Y101665207D01*
X320857300Y101652595D01*
X320835121Y101642105D01*
X320812022Y101633840D01*
X320788223Y101627879D01*
X320763955Y101624279D01*
X320739451Y101623075D01*
X319839449Y101623075D01*
X319814945Y101624279D01*
X319790677Y101627879D01*
X319766878Y101633840D01*
X319743779Y101642105D01*
X319721600Y101652595D01*
X319700557Y101665207D01*
X319680851Y101679822D01*
X319662673Y101696298D01*
X319646197Y101714476D01*
X319631582Y101734182D01*
X319618970Y101755225D01*
X319608480Y101777404D01*
X319600215Y101800503D01*
X319594254Y101824302D01*
X319590654Y101848570D01*
X319589450Y101873074D01*
X319589450Y102523076D01*
X319590654Y102547580D01*
X319594254Y102571848D01*
X319600215Y102595647D01*
X319608480Y102618746D01*
X319618970Y102640925D01*
X319631582Y102661968D01*
X319646197Y102681674D01*
X319662673Y102699852D01*
X319680851Y102716328D01*
X319700557Y102730943D01*
X319721600Y102743555D01*
X319743779Y102754045D01*
X319766878Y102762310D01*
X319790677Y102768271D01*
X319814945Y102771871D01*
X319839449Y102773075D01*
X320739451Y102773075D01*
X320763955Y102771871D01*
X320763955Y102771871D01*
G37*
D42*
X320289450Y102198075D03*
D25*
G36*
X320763955Y100721871D02*
G01*
X320788223Y100718271D01*
X320812022Y100712310D01*
X320835121Y100704045D01*
X320857300Y100693555D01*
X320878343Y100680943D01*
X320898049Y100666328D01*
X320916227Y100649852D01*
X320932703Y100631674D01*
X320947318Y100611968D01*
X320959930Y100590925D01*
X320970420Y100568746D01*
X320978685Y100545647D01*
X320984646Y100521848D01*
X320988246Y100497580D01*
X320989450Y100473076D01*
X320989450Y99823074D01*
X320988246Y99798570D01*
X320984646Y99774302D01*
X320978685Y99750503D01*
X320970420Y99727404D01*
X320959930Y99705225D01*
X320947318Y99684182D01*
X320932703Y99664476D01*
X320916227Y99646298D01*
X320898049Y99629822D01*
X320878343Y99615207D01*
X320857300Y99602595D01*
X320835121Y99592105D01*
X320812022Y99583840D01*
X320788223Y99577879D01*
X320763955Y99574279D01*
X320739451Y99573075D01*
X319839449Y99573075D01*
X319814945Y99574279D01*
X319790677Y99577879D01*
X319766878Y99583840D01*
X319743779Y99592105D01*
X319721600Y99602595D01*
X319700557Y99615207D01*
X319680851Y99629822D01*
X319662673Y99646298D01*
X319646197Y99664476D01*
X319631582Y99684182D01*
X319618970Y99705225D01*
X319608480Y99727404D01*
X319600215Y99750503D01*
X319594254Y99774302D01*
X319590654Y99798570D01*
X319589450Y99823074D01*
X319589450Y100473076D01*
X319590654Y100497580D01*
X319594254Y100521848D01*
X319600215Y100545647D01*
X319608480Y100568746D01*
X319618970Y100590925D01*
X319631582Y100611968D01*
X319646197Y100631674D01*
X319662673Y100649852D01*
X319680851Y100666328D01*
X319700557Y100680943D01*
X319721600Y100693555D01*
X319743779Y100704045D01*
X319766878Y100712310D01*
X319790677Y100718271D01*
X319814945Y100721871D01*
X319839449Y100723075D01*
X320739451Y100723075D01*
X320763955Y100721871D01*
X320763955Y100721871D01*
G37*
D42*
X320289450Y100148075D03*
%TD*%
D25*
%TO.C,C7*%
G36*
X189795205Y47771871D02*
G01*
X189819473Y47768271D01*
X189843272Y47762310D01*
X189866371Y47754045D01*
X189888550Y47743555D01*
X189909593Y47730943D01*
X189929299Y47716328D01*
X189947477Y47699852D01*
X189963953Y47681674D01*
X189978568Y47661968D01*
X189991180Y47640925D01*
X190001670Y47618746D01*
X190009935Y47595647D01*
X190015896Y47571848D01*
X190019496Y47547580D01*
X190020700Y47523076D01*
X190020700Y46873074D01*
X190019496Y46848570D01*
X190015896Y46824302D01*
X190009935Y46800503D01*
X190001670Y46777404D01*
X189991180Y46755225D01*
X189978568Y46734182D01*
X189963953Y46714476D01*
X189947477Y46696298D01*
X189929299Y46679822D01*
X189909593Y46665207D01*
X189888550Y46652595D01*
X189866371Y46642105D01*
X189843272Y46633840D01*
X189819473Y46627879D01*
X189795205Y46624279D01*
X189770701Y46623075D01*
X188870699Y46623075D01*
X188846195Y46624279D01*
X188821927Y46627879D01*
X188798128Y46633840D01*
X188775029Y46642105D01*
X188752850Y46652595D01*
X188731807Y46665207D01*
X188712101Y46679822D01*
X188693923Y46696298D01*
X188677447Y46714476D01*
X188662832Y46734182D01*
X188650220Y46755225D01*
X188639730Y46777404D01*
X188631465Y46800503D01*
X188625504Y46824302D01*
X188621904Y46848570D01*
X188620700Y46873074D01*
X188620700Y47523076D01*
X188621904Y47547580D01*
X188625504Y47571848D01*
X188631465Y47595647D01*
X188639730Y47618746D01*
X188650220Y47640925D01*
X188662832Y47661968D01*
X188677447Y47681674D01*
X188693923Y47699852D01*
X188712101Y47716328D01*
X188731807Y47730943D01*
X188752850Y47743555D01*
X188775029Y47754045D01*
X188798128Y47762310D01*
X188821927Y47768271D01*
X188846195Y47771871D01*
X188870699Y47773075D01*
X189770701Y47773075D01*
X189795205Y47771871D01*
X189795205Y47771871D01*
G37*
D42*
X189320700Y47198075D03*
D25*
G36*
X189795205Y45721871D02*
G01*
X189819473Y45718271D01*
X189843272Y45712310D01*
X189866371Y45704045D01*
X189888550Y45693555D01*
X189909593Y45680943D01*
X189929299Y45666328D01*
X189947477Y45649852D01*
X189963953Y45631674D01*
X189978568Y45611968D01*
X189991180Y45590925D01*
X190001670Y45568746D01*
X190009935Y45545647D01*
X190015896Y45521848D01*
X190019496Y45497580D01*
X190020700Y45473076D01*
X190020700Y44823074D01*
X190019496Y44798570D01*
X190015896Y44774302D01*
X190009935Y44750503D01*
X190001670Y44727404D01*
X189991180Y44705225D01*
X189978568Y44684182D01*
X189963953Y44664476D01*
X189947477Y44646298D01*
X189929299Y44629822D01*
X189909593Y44615207D01*
X189888550Y44602595D01*
X189866371Y44592105D01*
X189843272Y44583840D01*
X189819473Y44577879D01*
X189795205Y44574279D01*
X189770701Y44573075D01*
X188870699Y44573075D01*
X188846195Y44574279D01*
X188821927Y44577879D01*
X188798128Y44583840D01*
X188775029Y44592105D01*
X188752850Y44602595D01*
X188731807Y44615207D01*
X188712101Y44629822D01*
X188693923Y44646298D01*
X188677447Y44664476D01*
X188662832Y44684182D01*
X188650220Y44705225D01*
X188639730Y44727404D01*
X188631465Y44750503D01*
X188625504Y44774302D01*
X188621904Y44798570D01*
X188620700Y44823074D01*
X188620700Y45473076D01*
X188621904Y45497580D01*
X188625504Y45521848D01*
X188631465Y45545647D01*
X188639730Y45568746D01*
X188650220Y45590925D01*
X188662832Y45611968D01*
X188677447Y45631674D01*
X188693923Y45649852D01*
X188712101Y45666328D01*
X188731807Y45680943D01*
X188752850Y45693555D01*
X188775029Y45704045D01*
X188798128Y45712310D01*
X188821927Y45718271D01*
X188846195Y45721871D01*
X188870699Y45723075D01*
X189770701Y45723075D01*
X189795205Y45721871D01*
X189795205Y45721871D01*
G37*
D42*
X189320700Y45148075D03*
%TD*%
D25*
%TO.C,C6*%
G36*
X310352705Y102814371D02*
G01*
X310376973Y102810771D01*
X310400772Y102804810D01*
X310423871Y102796545D01*
X310446050Y102786055D01*
X310467093Y102773443D01*
X310486799Y102758828D01*
X310504977Y102742352D01*
X310521453Y102724174D01*
X310536068Y102704468D01*
X310548680Y102683425D01*
X310559170Y102661246D01*
X310567435Y102638147D01*
X310573396Y102614348D01*
X310576996Y102590080D01*
X310578200Y102565576D01*
X310578200Y101915574D01*
X310576996Y101891070D01*
X310573396Y101866802D01*
X310567435Y101843003D01*
X310559170Y101819904D01*
X310548680Y101797725D01*
X310536068Y101776682D01*
X310521453Y101756976D01*
X310504977Y101738798D01*
X310486799Y101722322D01*
X310467093Y101707707D01*
X310446050Y101695095D01*
X310423871Y101684605D01*
X310400772Y101676340D01*
X310376973Y101670379D01*
X310352705Y101666779D01*
X310328201Y101665575D01*
X309428199Y101665575D01*
X309403695Y101666779D01*
X309379427Y101670379D01*
X309355628Y101676340D01*
X309332529Y101684605D01*
X309310350Y101695095D01*
X309289307Y101707707D01*
X309269601Y101722322D01*
X309251423Y101738798D01*
X309234947Y101756976D01*
X309220332Y101776682D01*
X309207720Y101797725D01*
X309197230Y101819904D01*
X309188965Y101843003D01*
X309183004Y101866802D01*
X309179404Y101891070D01*
X309178200Y101915574D01*
X309178200Y102565576D01*
X309179404Y102590080D01*
X309183004Y102614348D01*
X309188965Y102638147D01*
X309197230Y102661246D01*
X309207720Y102683425D01*
X309220332Y102704468D01*
X309234947Y102724174D01*
X309251423Y102742352D01*
X309269601Y102758828D01*
X309289307Y102773443D01*
X309310350Y102786055D01*
X309332529Y102796545D01*
X309355628Y102804810D01*
X309379427Y102810771D01*
X309403695Y102814371D01*
X309428199Y102815575D01*
X310328201Y102815575D01*
X310352705Y102814371D01*
X310352705Y102814371D01*
G37*
D42*
X309878200Y102240575D03*
D25*
G36*
X310352705Y100764371D02*
G01*
X310376973Y100760771D01*
X310400772Y100754810D01*
X310423871Y100746545D01*
X310446050Y100736055D01*
X310467093Y100723443D01*
X310486799Y100708828D01*
X310504977Y100692352D01*
X310521453Y100674174D01*
X310536068Y100654468D01*
X310548680Y100633425D01*
X310559170Y100611246D01*
X310567435Y100588147D01*
X310573396Y100564348D01*
X310576996Y100540080D01*
X310578200Y100515576D01*
X310578200Y99865574D01*
X310576996Y99841070D01*
X310573396Y99816802D01*
X310567435Y99793003D01*
X310559170Y99769904D01*
X310548680Y99747725D01*
X310536068Y99726682D01*
X310521453Y99706976D01*
X310504977Y99688798D01*
X310486799Y99672322D01*
X310467093Y99657707D01*
X310446050Y99645095D01*
X310423871Y99634605D01*
X310400772Y99626340D01*
X310376973Y99620379D01*
X310352705Y99616779D01*
X310328201Y99615575D01*
X309428199Y99615575D01*
X309403695Y99616779D01*
X309379427Y99620379D01*
X309355628Y99626340D01*
X309332529Y99634605D01*
X309310350Y99645095D01*
X309289307Y99657707D01*
X309269601Y99672322D01*
X309251423Y99688798D01*
X309234947Y99706976D01*
X309220332Y99726682D01*
X309207720Y99747725D01*
X309197230Y99769904D01*
X309188965Y99793003D01*
X309183004Y99816802D01*
X309179404Y99841070D01*
X309178200Y99865574D01*
X309178200Y100515576D01*
X309179404Y100540080D01*
X309183004Y100564348D01*
X309188965Y100588147D01*
X309197230Y100611246D01*
X309207720Y100633425D01*
X309220332Y100654468D01*
X309234947Y100674174D01*
X309251423Y100692352D01*
X309269601Y100708828D01*
X309289307Y100723443D01*
X309310350Y100736055D01*
X309332529Y100746545D01*
X309355628Y100754810D01*
X309379427Y100760771D01*
X309403695Y100764371D01*
X309428199Y100765575D01*
X310328201Y100765575D01*
X310352705Y100764371D01*
X310352705Y100764371D01*
G37*
D42*
X309878200Y100190575D03*
%TD*%
D25*
%TO.C,C5*%
G36*
X304888955Y70328121D02*
G01*
X304913223Y70324521D01*
X304937022Y70318560D01*
X304960121Y70310295D01*
X304982300Y70299805D01*
X305003343Y70287193D01*
X305023049Y70272578D01*
X305041227Y70256102D01*
X305057703Y70237924D01*
X305072318Y70218218D01*
X305084930Y70197175D01*
X305095420Y70174996D01*
X305103685Y70151897D01*
X305109646Y70128098D01*
X305113246Y70103830D01*
X305114450Y70079326D01*
X305114450Y69429324D01*
X305113246Y69404820D01*
X305109646Y69380552D01*
X305103685Y69356753D01*
X305095420Y69333654D01*
X305084930Y69311475D01*
X305072318Y69290432D01*
X305057703Y69270726D01*
X305041227Y69252548D01*
X305023049Y69236072D01*
X305003343Y69221457D01*
X304982300Y69208845D01*
X304960121Y69198355D01*
X304937022Y69190090D01*
X304913223Y69184129D01*
X304888955Y69180529D01*
X304864451Y69179325D01*
X303964449Y69179325D01*
X303939945Y69180529D01*
X303915677Y69184129D01*
X303891878Y69190090D01*
X303868779Y69198355D01*
X303846600Y69208845D01*
X303825557Y69221457D01*
X303805851Y69236072D01*
X303787673Y69252548D01*
X303771197Y69270726D01*
X303756582Y69290432D01*
X303743970Y69311475D01*
X303733480Y69333654D01*
X303725215Y69356753D01*
X303719254Y69380552D01*
X303715654Y69404820D01*
X303714450Y69429324D01*
X303714450Y70079326D01*
X303715654Y70103830D01*
X303719254Y70128098D01*
X303725215Y70151897D01*
X303733480Y70174996D01*
X303743970Y70197175D01*
X303756582Y70218218D01*
X303771197Y70237924D01*
X303787673Y70256102D01*
X303805851Y70272578D01*
X303825557Y70287193D01*
X303846600Y70299805D01*
X303868779Y70310295D01*
X303891878Y70318560D01*
X303915677Y70324521D01*
X303939945Y70328121D01*
X303964449Y70329325D01*
X304864451Y70329325D01*
X304888955Y70328121D01*
X304888955Y70328121D01*
G37*
D42*
X304414450Y69754325D03*
D25*
G36*
X304888955Y72378121D02*
G01*
X304913223Y72374521D01*
X304937022Y72368560D01*
X304960121Y72360295D01*
X304982300Y72349805D01*
X305003343Y72337193D01*
X305023049Y72322578D01*
X305041227Y72306102D01*
X305057703Y72287924D01*
X305072318Y72268218D01*
X305084930Y72247175D01*
X305095420Y72224996D01*
X305103685Y72201897D01*
X305109646Y72178098D01*
X305113246Y72153830D01*
X305114450Y72129326D01*
X305114450Y71479324D01*
X305113246Y71454820D01*
X305109646Y71430552D01*
X305103685Y71406753D01*
X305095420Y71383654D01*
X305084930Y71361475D01*
X305072318Y71340432D01*
X305057703Y71320726D01*
X305041227Y71302548D01*
X305023049Y71286072D01*
X305003343Y71271457D01*
X304982300Y71258845D01*
X304960121Y71248355D01*
X304937022Y71240090D01*
X304913223Y71234129D01*
X304888955Y71230529D01*
X304864451Y71229325D01*
X303964449Y71229325D01*
X303939945Y71230529D01*
X303915677Y71234129D01*
X303891878Y71240090D01*
X303868779Y71248355D01*
X303846600Y71258845D01*
X303825557Y71271457D01*
X303805851Y71286072D01*
X303787673Y71302548D01*
X303771197Y71320726D01*
X303756582Y71340432D01*
X303743970Y71361475D01*
X303733480Y71383654D01*
X303725215Y71406753D01*
X303719254Y71430552D01*
X303715654Y71454820D01*
X303714450Y71479324D01*
X303714450Y72129326D01*
X303715654Y72153830D01*
X303719254Y72178098D01*
X303725215Y72201897D01*
X303733480Y72224996D01*
X303743970Y72247175D01*
X303756582Y72268218D01*
X303771197Y72287924D01*
X303787673Y72306102D01*
X303805851Y72322578D01*
X303825557Y72337193D01*
X303846600Y72349805D01*
X303868779Y72360295D01*
X303891878Y72368560D01*
X303915677Y72374521D01*
X303939945Y72378121D01*
X303964449Y72379325D01*
X304864451Y72379325D01*
X304888955Y72378121D01*
X304888955Y72378121D01*
G37*
D42*
X304414450Y71804325D03*
%TD*%
D25*
%TO.C,C4*%
G36*
X304099620Y100962951D02*
G01*
X304123888Y100959351D01*
X304147687Y100953390D01*
X304170786Y100945125D01*
X304192965Y100934635D01*
X304214008Y100922023D01*
X304233714Y100907408D01*
X304251892Y100890932D01*
X304268368Y100872754D01*
X304282983Y100853048D01*
X304295595Y100832005D01*
X304306085Y100809826D01*
X304314350Y100786727D01*
X304320311Y100762928D01*
X304323911Y100738660D01*
X304325115Y100714156D01*
X304325115Y100064154D01*
X304323911Y100039650D01*
X304320311Y100015382D01*
X304314350Y99991583D01*
X304306085Y99968484D01*
X304295595Y99946305D01*
X304282983Y99925262D01*
X304268368Y99905556D01*
X304251892Y99887378D01*
X304233714Y99870902D01*
X304214008Y99856287D01*
X304192965Y99843675D01*
X304170786Y99833185D01*
X304147687Y99824920D01*
X304123888Y99818959D01*
X304099620Y99815359D01*
X304075116Y99814155D01*
X303175114Y99814155D01*
X303150610Y99815359D01*
X303126342Y99818959D01*
X303102543Y99824920D01*
X303079444Y99833185D01*
X303057265Y99843675D01*
X303036222Y99856287D01*
X303016516Y99870902D01*
X302998338Y99887378D01*
X302981862Y99905556D01*
X302967247Y99925262D01*
X302954635Y99946305D01*
X302944145Y99968484D01*
X302935880Y99991583D01*
X302929919Y100015382D01*
X302926319Y100039650D01*
X302925115Y100064154D01*
X302925115Y100714156D01*
X302926319Y100738660D01*
X302929919Y100762928D01*
X302935880Y100786727D01*
X302944145Y100809826D01*
X302954635Y100832005D01*
X302967247Y100853048D01*
X302981862Y100872754D01*
X302998338Y100890932D01*
X303016516Y100907408D01*
X303036222Y100922023D01*
X303057265Y100934635D01*
X303079444Y100945125D01*
X303102543Y100953390D01*
X303126342Y100959351D01*
X303150610Y100962951D01*
X303175114Y100964155D01*
X304075116Y100964155D01*
X304099620Y100962951D01*
X304099620Y100962951D01*
G37*
D42*
X303625115Y100389155D03*
D25*
G36*
X304099620Y98912951D02*
G01*
X304123888Y98909351D01*
X304147687Y98903390D01*
X304170786Y98895125D01*
X304192965Y98884635D01*
X304214008Y98872023D01*
X304233714Y98857408D01*
X304251892Y98840932D01*
X304268368Y98822754D01*
X304282983Y98803048D01*
X304295595Y98782005D01*
X304306085Y98759826D01*
X304314350Y98736727D01*
X304320311Y98712928D01*
X304323911Y98688660D01*
X304325115Y98664156D01*
X304325115Y98014154D01*
X304323911Y97989650D01*
X304320311Y97965382D01*
X304314350Y97941583D01*
X304306085Y97918484D01*
X304295595Y97896305D01*
X304282983Y97875262D01*
X304268368Y97855556D01*
X304251892Y97837378D01*
X304233714Y97820902D01*
X304214008Y97806287D01*
X304192965Y97793675D01*
X304170786Y97783185D01*
X304147687Y97774920D01*
X304123888Y97768959D01*
X304099620Y97765359D01*
X304075116Y97764155D01*
X303175114Y97764155D01*
X303150610Y97765359D01*
X303126342Y97768959D01*
X303102543Y97774920D01*
X303079444Y97783185D01*
X303057265Y97793675D01*
X303036222Y97806287D01*
X303016516Y97820902D01*
X302998338Y97837378D01*
X302981862Y97855556D01*
X302967247Y97875262D01*
X302954635Y97896305D01*
X302944145Y97918484D01*
X302935880Y97941583D01*
X302929919Y97965382D01*
X302926319Y97989650D01*
X302925115Y98014154D01*
X302925115Y98664156D01*
X302926319Y98688660D01*
X302929919Y98712928D01*
X302935880Y98736727D01*
X302944145Y98759826D01*
X302954635Y98782005D01*
X302967247Y98803048D01*
X302981862Y98822754D01*
X302998338Y98840932D01*
X303016516Y98857408D01*
X303036222Y98872023D01*
X303057265Y98884635D01*
X303079444Y98895125D01*
X303102543Y98903390D01*
X303126342Y98909351D01*
X303150610Y98912951D01*
X303175114Y98914155D01*
X304075116Y98914155D01*
X304099620Y98912951D01*
X304099620Y98912951D01*
G37*
D42*
X303625115Y98339155D03*
%TD*%
D25*
%TO.C,C3*%
G36*
X179476455Y98903121D02*
G01*
X179500723Y98899521D01*
X179524522Y98893560D01*
X179547621Y98885295D01*
X179569800Y98874805D01*
X179590843Y98862193D01*
X179610549Y98847578D01*
X179628727Y98831102D01*
X179645203Y98812924D01*
X179659818Y98793218D01*
X179672430Y98772175D01*
X179682920Y98749996D01*
X179691185Y98726897D01*
X179697146Y98703098D01*
X179700746Y98678830D01*
X179701950Y98654326D01*
X179701950Y98004324D01*
X179700746Y97979820D01*
X179697146Y97955552D01*
X179691185Y97931753D01*
X179682920Y97908654D01*
X179672430Y97886475D01*
X179659818Y97865432D01*
X179645203Y97845726D01*
X179628727Y97827548D01*
X179610549Y97811072D01*
X179590843Y97796457D01*
X179569800Y97783845D01*
X179547621Y97773355D01*
X179524522Y97765090D01*
X179500723Y97759129D01*
X179476455Y97755529D01*
X179451951Y97754325D01*
X178551949Y97754325D01*
X178527445Y97755529D01*
X178503177Y97759129D01*
X178479378Y97765090D01*
X178456279Y97773355D01*
X178434100Y97783845D01*
X178413057Y97796457D01*
X178393351Y97811072D01*
X178375173Y97827548D01*
X178358697Y97845726D01*
X178344082Y97865432D01*
X178331470Y97886475D01*
X178320980Y97908654D01*
X178312715Y97931753D01*
X178306754Y97955552D01*
X178303154Y97979820D01*
X178301950Y98004324D01*
X178301950Y98654326D01*
X178303154Y98678830D01*
X178306754Y98703098D01*
X178312715Y98726897D01*
X178320980Y98749996D01*
X178331470Y98772175D01*
X178344082Y98793218D01*
X178358697Y98812924D01*
X178375173Y98831102D01*
X178393351Y98847578D01*
X178413057Y98862193D01*
X178434100Y98874805D01*
X178456279Y98885295D01*
X178479378Y98893560D01*
X178503177Y98899521D01*
X178527445Y98903121D01*
X178551949Y98904325D01*
X179451951Y98904325D01*
X179476455Y98903121D01*
X179476455Y98903121D01*
G37*
D42*
X179001950Y98329325D03*
D25*
G36*
X179476455Y100953121D02*
G01*
X179500723Y100949521D01*
X179524522Y100943560D01*
X179547621Y100935295D01*
X179569800Y100924805D01*
X179590843Y100912193D01*
X179610549Y100897578D01*
X179628727Y100881102D01*
X179645203Y100862924D01*
X179659818Y100843218D01*
X179672430Y100822175D01*
X179682920Y100799996D01*
X179691185Y100776897D01*
X179697146Y100753098D01*
X179700746Y100728830D01*
X179701950Y100704326D01*
X179701950Y100054324D01*
X179700746Y100029820D01*
X179697146Y100005552D01*
X179691185Y99981753D01*
X179682920Y99958654D01*
X179672430Y99936475D01*
X179659818Y99915432D01*
X179645203Y99895726D01*
X179628727Y99877548D01*
X179610549Y99861072D01*
X179590843Y99846457D01*
X179569800Y99833845D01*
X179547621Y99823355D01*
X179524522Y99815090D01*
X179500723Y99809129D01*
X179476455Y99805529D01*
X179451951Y99804325D01*
X178551949Y99804325D01*
X178527445Y99805529D01*
X178503177Y99809129D01*
X178479378Y99815090D01*
X178456279Y99823355D01*
X178434100Y99833845D01*
X178413057Y99846457D01*
X178393351Y99861072D01*
X178375173Y99877548D01*
X178358697Y99895726D01*
X178344082Y99915432D01*
X178331470Y99936475D01*
X178320980Y99958654D01*
X178312715Y99981753D01*
X178306754Y100005552D01*
X178303154Y100029820D01*
X178301950Y100054324D01*
X178301950Y100704326D01*
X178303154Y100728830D01*
X178306754Y100753098D01*
X178312715Y100776897D01*
X178320980Y100799996D01*
X178331470Y100822175D01*
X178344082Y100843218D01*
X178358697Y100862924D01*
X178375173Y100881102D01*
X178393351Y100897578D01*
X178413057Y100912193D01*
X178434100Y100924805D01*
X178456279Y100935295D01*
X178479378Y100943560D01*
X178503177Y100949521D01*
X178527445Y100953121D01*
X178551949Y100954325D01*
X179451951Y100954325D01*
X179476455Y100953121D01*
X179476455Y100953121D01*
G37*
D42*
X179001950Y100379325D03*
%TD*%
D25*
%TO.C,C2*%
G36*
X294574620Y43812951D02*
G01*
X294598888Y43809351D01*
X294622687Y43803390D01*
X294645786Y43795125D01*
X294667965Y43784635D01*
X294689008Y43772023D01*
X294708714Y43757408D01*
X294726892Y43740932D01*
X294743368Y43722754D01*
X294757983Y43703048D01*
X294770595Y43682005D01*
X294781085Y43659826D01*
X294789350Y43636727D01*
X294795311Y43612928D01*
X294798911Y43588660D01*
X294800115Y43564156D01*
X294800115Y42914154D01*
X294798911Y42889650D01*
X294795311Y42865382D01*
X294789350Y42841583D01*
X294781085Y42818484D01*
X294770595Y42796305D01*
X294757983Y42775262D01*
X294743368Y42755556D01*
X294726892Y42737378D01*
X294708714Y42720902D01*
X294689008Y42706287D01*
X294667965Y42693675D01*
X294645786Y42683185D01*
X294622687Y42674920D01*
X294598888Y42668959D01*
X294574620Y42665359D01*
X294550116Y42664155D01*
X293650114Y42664155D01*
X293625610Y42665359D01*
X293601342Y42668959D01*
X293577543Y42674920D01*
X293554444Y42683185D01*
X293532265Y42693675D01*
X293511222Y42706287D01*
X293491516Y42720902D01*
X293473338Y42737378D01*
X293456862Y42755556D01*
X293442247Y42775262D01*
X293429635Y42796305D01*
X293419145Y42818484D01*
X293410880Y42841583D01*
X293404919Y42865382D01*
X293401319Y42889650D01*
X293400115Y42914154D01*
X293400115Y43564156D01*
X293401319Y43588660D01*
X293404919Y43612928D01*
X293410880Y43636727D01*
X293419145Y43659826D01*
X293429635Y43682005D01*
X293442247Y43703048D01*
X293456862Y43722754D01*
X293473338Y43740932D01*
X293491516Y43757408D01*
X293511222Y43772023D01*
X293532265Y43784635D01*
X293554444Y43795125D01*
X293577543Y43803390D01*
X293601342Y43809351D01*
X293625610Y43812951D01*
X293650114Y43814155D01*
X294550116Y43814155D01*
X294574620Y43812951D01*
X294574620Y43812951D01*
G37*
D42*
X294100115Y43239155D03*
D25*
G36*
X294574620Y41762951D02*
G01*
X294598888Y41759351D01*
X294622687Y41753390D01*
X294645786Y41745125D01*
X294667965Y41734635D01*
X294689008Y41722023D01*
X294708714Y41707408D01*
X294726892Y41690932D01*
X294743368Y41672754D01*
X294757983Y41653048D01*
X294770595Y41632005D01*
X294781085Y41609826D01*
X294789350Y41586727D01*
X294795311Y41562928D01*
X294798911Y41538660D01*
X294800115Y41514156D01*
X294800115Y40864154D01*
X294798911Y40839650D01*
X294795311Y40815382D01*
X294789350Y40791583D01*
X294781085Y40768484D01*
X294770595Y40746305D01*
X294757983Y40725262D01*
X294743368Y40705556D01*
X294726892Y40687378D01*
X294708714Y40670902D01*
X294689008Y40656287D01*
X294667965Y40643675D01*
X294645786Y40633185D01*
X294622687Y40624920D01*
X294598888Y40618959D01*
X294574620Y40615359D01*
X294550116Y40614155D01*
X293650114Y40614155D01*
X293625610Y40615359D01*
X293601342Y40618959D01*
X293577543Y40624920D01*
X293554444Y40633185D01*
X293532265Y40643675D01*
X293511222Y40656287D01*
X293491516Y40670902D01*
X293473338Y40687378D01*
X293456862Y40705556D01*
X293442247Y40725262D01*
X293429635Y40746305D01*
X293419145Y40768484D01*
X293410880Y40791583D01*
X293404919Y40815382D01*
X293401319Y40839650D01*
X293400115Y40864154D01*
X293400115Y41514156D01*
X293401319Y41538660D01*
X293404919Y41562928D01*
X293410880Y41586727D01*
X293419145Y41609826D01*
X293429635Y41632005D01*
X293442247Y41653048D01*
X293456862Y41672754D01*
X293473338Y41690932D01*
X293491516Y41707408D01*
X293511222Y41722023D01*
X293532265Y41734635D01*
X293554444Y41745125D01*
X293577543Y41753390D01*
X293601342Y41759351D01*
X293625610Y41762951D01*
X293650114Y41764155D01*
X294550116Y41764155D01*
X294574620Y41762951D01*
X294574620Y41762951D01*
G37*
D42*
X294100115Y41189155D03*
%TD*%
D25*
%TO.C,C1*%
G36*
X236626455Y98903121D02*
G01*
X236650723Y98899521D01*
X236674522Y98893560D01*
X236697621Y98885295D01*
X236719800Y98874805D01*
X236740843Y98862193D01*
X236760549Y98847578D01*
X236778727Y98831102D01*
X236795203Y98812924D01*
X236809818Y98793218D01*
X236822430Y98772175D01*
X236832920Y98749996D01*
X236841185Y98726897D01*
X236847146Y98703098D01*
X236850746Y98678830D01*
X236851950Y98654326D01*
X236851950Y98004324D01*
X236850746Y97979820D01*
X236847146Y97955552D01*
X236841185Y97931753D01*
X236832920Y97908654D01*
X236822430Y97886475D01*
X236809818Y97865432D01*
X236795203Y97845726D01*
X236778727Y97827548D01*
X236760549Y97811072D01*
X236740843Y97796457D01*
X236719800Y97783845D01*
X236697621Y97773355D01*
X236674522Y97765090D01*
X236650723Y97759129D01*
X236626455Y97755529D01*
X236601951Y97754325D01*
X235701949Y97754325D01*
X235677445Y97755529D01*
X235653177Y97759129D01*
X235629378Y97765090D01*
X235606279Y97773355D01*
X235584100Y97783845D01*
X235563057Y97796457D01*
X235543351Y97811072D01*
X235525173Y97827548D01*
X235508697Y97845726D01*
X235494082Y97865432D01*
X235481470Y97886475D01*
X235470980Y97908654D01*
X235462715Y97931753D01*
X235456754Y97955552D01*
X235453154Y97979820D01*
X235451950Y98004324D01*
X235451950Y98654326D01*
X235453154Y98678830D01*
X235456754Y98703098D01*
X235462715Y98726897D01*
X235470980Y98749996D01*
X235481470Y98772175D01*
X235494082Y98793218D01*
X235508697Y98812924D01*
X235525173Y98831102D01*
X235543351Y98847578D01*
X235563057Y98862193D01*
X235584100Y98874805D01*
X235606279Y98885295D01*
X235629378Y98893560D01*
X235653177Y98899521D01*
X235677445Y98903121D01*
X235701949Y98904325D01*
X236601951Y98904325D01*
X236626455Y98903121D01*
X236626455Y98903121D01*
G37*
D42*
X236151950Y98329325D03*
D25*
G36*
X236626455Y100953121D02*
G01*
X236650723Y100949521D01*
X236674522Y100943560D01*
X236697621Y100935295D01*
X236719800Y100924805D01*
X236740843Y100912193D01*
X236760549Y100897578D01*
X236778727Y100881102D01*
X236795203Y100862924D01*
X236809818Y100843218D01*
X236822430Y100822175D01*
X236832920Y100799996D01*
X236841185Y100776897D01*
X236847146Y100753098D01*
X236850746Y100728830D01*
X236851950Y100704326D01*
X236851950Y100054324D01*
X236850746Y100029820D01*
X236847146Y100005552D01*
X236841185Y99981753D01*
X236832920Y99958654D01*
X236822430Y99936475D01*
X236809818Y99915432D01*
X236795203Y99895726D01*
X236778727Y99877548D01*
X236760549Y99861072D01*
X236740843Y99846457D01*
X236719800Y99833845D01*
X236697621Y99823355D01*
X236674522Y99815090D01*
X236650723Y99809129D01*
X236626455Y99805529D01*
X236601951Y99804325D01*
X235701949Y99804325D01*
X235677445Y99805529D01*
X235653177Y99809129D01*
X235629378Y99815090D01*
X235606279Y99823355D01*
X235584100Y99833845D01*
X235563057Y99846457D01*
X235543351Y99861072D01*
X235525173Y99877548D01*
X235508697Y99895726D01*
X235494082Y99915432D01*
X235481470Y99936475D01*
X235470980Y99958654D01*
X235462715Y99981753D01*
X235456754Y100005552D01*
X235453154Y100029820D01*
X235451950Y100054324D01*
X235451950Y100704326D01*
X235453154Y100728830D01*
X235456754Y100753098D01*
X235462715Y100776897D01*
X235470980Y100799996D01*
X235481470Y100822175D01*
X235494082Y100843218D01*
X235508697Y100862924D01*
X235525173Y100881102D01*
X235543351Y100897578D01*
X235563057Y100912193D01*
X235584100Y100924805D01*
X235606279Y100935295D01*
X235629378Y100943560D01*
X235653177Y100949521D01*
X235677445Y100953121D01*
X235701949Y100954325D01*
X236601951Y100954325D01*
X236626455Y100953121D01*
X236626455Y100953121D01*
G37*
D42*
X236151950Y100379325D03*
%TD*%
M02*
