M48
; DRILL file {KiCad (5.1.4-0)} date Monday, August 29, 2022 at 09:54:08 AM
; FORMAT={-:-/ absolute / inch / decimal}
; #@! TF.CreationDate,2022-08-29T09:54:08-04:00
; #@! TF.GenerationSoftware,Kicad,Pcbnew,(5.1.4-0)
; #@! TF.FileFunction,NonPlated,1,2,NPTH
FMAT,2
INCH
T1C0.0256
T2C0.0310
T3C0.0354
T4C0.0591
T5C0.0689
T6C0.1200
T7C0.1570
%
G90
G05
T1
X11.1299Y4.7374
X0.6836Y4.7369
X0.9112Y4.7369
X10.9023Y4.7374
T2
X5.5887Y2.8961
X5.5887Y2.8461
X5.9637Y2.1461
X5.9637Y2.0961
X5.9637Y2.0461
X5.9637Y1.9961
X5.9637Y1.9461
X5.475Y2.0961
X5.4012Y3.5961
X5.4012Y3.5461
X5.4012Y3.4961
X5.4012Y3.4461
X5.475Y2.1461
X5.475Y2.0461
X4.9125Y3.6461
X5.475Y1.9961
X5.475Y1.9461
X4.9125Y3.5961
X4.9125Y3.5461
X5.1Y2.8961
X5.1Y2.8461
X5.1Y2.7961
X5.1Y2.7461
X5.1Y2.6961
X4.9125Y3.4961
X4.9125Y3.4461
X5.475Y1.3961
X5.475Y1.3461
X5.475Y1.2961
X5.475Y1.2461
X5.475Y1.1961
X5.4012Y3.6461
X5.5887Y2.7961
X5.5887Y2.7461
X5.5887Y2.6961
X5.9637Y1.3961
X5.9637Y1.3461
X5.9637Y1.2961
X5.9637Y1.2461
X5.9637Y1.1961
X5.7762Y4.3961
X5.7762Y4.3461
X5.7762Y4.2461
X5.7762Y4.1961
X5.2875Y4.3961
X5.2875Y4.3461
X5.2875Y4.2961
X5.2875Y4.2461
X5.2875Y4.1961
X5.7762Y4.2961
T3
X12.5854Y3.3843
X12.5854Y3.2662
X-0.7718Y3.3853
X-0.7718Y3.2671
T4
X4.5474Y4.8259
X4.5474Y4.5503
X6.5162Y4.8278
X6.5162Y4.5522
T5
X1.3475Y3.546
X1.7475Y3.546
X10.2536Y2.7957
X11.3786Y1.1082
X2.8475Y3.546
X10.8411Y4.2957
X3.435Y2.796
X8.3786Y2.0457
X8.7786Y2.0457
X10.8161Y4.2957
X3.035Y2.796
X2.5913Y1.296
X11.7786Y1.1082
X10.4411Y4.2957
X3.2475Y3.546
X2.1913Y1.296
X7.4661Y3.5457
X2.1225Y4.296
X2.285Y2.796
X2.685Y2.796
X3.5975Y3.546
X7.0661Y3.5457
X3.9975Y3.546
X1.7225Y4.296
X4.16Y2.046
X4.56Y2.046
X11.2161Y4.2957
X11.0036Y3.5457
X11.4036Y3.5457
X0.41Y3.546
X0.81Y3.546
X0.9725Y4.296
X1.3725Y4.296
X5.5661Y3.5457
X6.1286Y2.0457
X6.5286Y2.0457
X10.0661Y3.5457
X10.4661Y3.5457
X5.9661Y3.5457
X6.8786Y2.0457
X7.2786Y2.0457
X0.3163Y1.296
X0.7163Y1.296
X5.7536Y2.7957
X-0.3984Y4.296
X1.535Y2.796
X-0.7984Y4.296
X11.0286Y1.1082
X1.935Y2.796
X0.6913Y2.046
X1.0913Y2.046
X6.1536Y2.7957
X4.8163Y1.296
X10.6286Y1.1082
X4.7225Y4.296
X5.1225Y4.296
X9.5036Y2.7957
X9.9036Y2.7957
X5.2163Y1.296
X0.3163Y2.796
X0.7163Y2.796
X11.1911Y4.2957
X10.6536Y2.7957
X11.7786Y1.8582
X1.16Y2.046
X11.3786Y1.8582
X11.5911Y4.2957
X8.1911Y1.2957
X1.56Y2.046
X8.5911Y1.2957
X0.5038Y2.796
X5.9411Y4.2957
X6.3411Y4.2957
X1.91Y2.046
X2.31Y2.046
X9.6911Y1.2957
X10.0911Y1.2957
X8.3786Y1.2957
X8.7786Y1.2957
X6.6911Y4.2957
X7.0911Y4.2957
X8.9411Y1.2957
X9.3411Y1.2957
X8.5661Y3.5457
X8.9661Y3.5457
X3.9725Y4.296
X3.9038Y1.296
X6.3161Y3.5457
X3.2225Y4.296
X3.5038Y1.296
X3.6225Y4.296
X2.66Y2.046
X9.5036Y1.2957
X4.3725Y4.296
X0.9038Y2.796
X3.06Y2.046
X9.9036Y1.2957
X6.7161Y3.5457
X1.2538Y1.296
X9.6911Y4.2957
X10.0911Y4.2957
X9.1286Y2.0457
X7.8161Y3.5457
X9.3161Y3.5457
X9.7161Y3.5457
X0.2225Y4.296
X0.6225Y4.296
X8.0036Y2.7957
X8.4036Y2.7957
X8.2161Y3.5457
X4.535Y2.796
X4.935Y2.796
X9.5286Y2.0457
X1.6538Y1.296
X7.2536Y2.7957
X7.6536Y2.7957
X7.1848Y1.2957
X6.7848Y1.2957
X7.4411Y4.2957
X7.8411Y4.2957
X0.3163Y2.046
X0.7163Y2.046
X10.1598Y2.0457
X3.41Y2.046
X3.81Y2.046
X2.0975Y3.546
X2.4975Y3.546
X10.7223Y2.7957
X11.1223Y2.7957
X12.2121Y4.2956
X12.6121Y4.2956
X3.785Y2.796
X4.185Y2.796
X7.6286Y2.0457
X8.0286Y2.0457
X10.5598Y2.0457
X4.3475Y3.546
X4.7475Y3.546
X8.5911Y4.2957
X12.1286Y1.1082
X12.5286Y1.1082
X8.1911Y4.2957
X8.7536Y2.7957
X9.1536Y2.7957
X2.8725Y4.296
X6.5036Y2.7957
X6.9036Y2.7957
X4.91Y2.046
X5.31Y2.046
X2.4725Y4.296
X11.2975Y3.3773
X11.2975Y2.9773
X8.9411Y4.2957
X9.3411Y4.2957
T6
X3.235Y1.021
X4.1725Y1.021
X6.5161Y1.0207
X7.4536Y1.0207
X11.5725Y3.6473
X11.3911Y3.0707
X11.5725Y2.7073
X10.4536Y3.0707
X10.5473Y4.5707
X11.4848Y4.5707
X0.4225Y2.321
X1.36Y2.321
T7
X0.5163Y2.796
X1.36Y2.046
X6.1411Y4.2957
X2.11Y2.046
X8.5786Y1.2957
X6.8911Y4.2957
X0.7038Y2.796
X9.5161Y3.5457
X9.1411Y1.2957
X6.5161Y1.6207
X6.9848Y1.2957
X7.4536Y1.6207
X9.8911Y4.2957
X4.1725Y4.296
X9.7036Y1.2957
X4.9225Y4.296
X9.8911Y1.2957
X8.7661Y3.5457
X6.5161Y3.5457
X2.86Y2.046
X3.235Y1.621
X3.7038Y1.296
X4.1725Y1.621
X0.4225Y4.296
X3.61Y2.046
X4.735Y2.796
X8.2036Y2.7957
X7.4536Y2.7957
X7.8286Y2.0457
X6.7036Y2.7957
X11.2975Y3.1773
X0.5163Y2.046
X10.9223Y2.7957
X3.985Y2.796
X10.3598Y2.0457
X7.6411Y4.2957
X10.4536Y2.4707
X11.3911Y2.4707
X12.4121Y4.2956
X8.0161Y3.5457
X9.3286Y2.0457
X2.6725Y4.296
X1.4538Y1.296
X2.2975Y3.546
X10.9725Y3.6473
X10.9725Y2.7073
X3.4225Y4.296
X4.5475Y3.546
X12.3286Y1.1082
X8.3911Y4.2957
X8.9536Y2.7957
X5.11Y2.046
X11.5786Y1.1082
X10.6411Y4.2957
X1.9225Y4.296
X4.36Y2.046
X9.1411Y4.2957
X2.485Y2.796
X3.0475Y3.546
X2.3913Y1.296
X7.2661Y3.5457
X8.5786Y2.0457
X10.5473Y3.9707
X11.0161Y4.2957
X5.0163Y1.296
X1.5475Y3.546
X6.3286Y2.0457
X0.8913Y2.046
X5.9536Y2.7957
X11.4848Y3.9707
X11.2036Y3.5457
X11.3911Y4.2957
X1.735Y2.796
X0.4225Y1.721
X1.36Y1.721
X-0.5984Y4.296
X8.3911Y1.2957
X7.0786Y2.0457
X1.1725Y4.296
X3.7975Y3.546
X0.61Y3.546
X5.7661Y3.5457
X0.5163Y1.296
X9.7036Y2.7957
X10.4536Y2.7957
X10.2661Y3.5457
X3.235Y2.796
X11.5786Y1.8582
X10.8286Y1.1082
T0
M30
