M48
; DRILL file {KiCad (5.1.4-0)} date Monday, August 29, 2022 at 09:54:08 AM
; FORMAT={-:-/ absolute / inch / decimal}
; #@! TF.CreationDate,2022-08-29T09:54:08-04:00
; #@! TF.GenerationSoftware,Kicad,Pcbnew,(5.1.4-0)
; #@! TF.FileFunction,Plated,1,2,PTH
FMAT,2
INCH
T1C0.0157
T2C0.0236
T3C0.0320
T4C0.0394
T5C0.0472
T6C0.0579
T7C0.0591
%
G90
G05
T1
X-0.7631Y1.9543
X-0.7025Y2.3586
X-0.6088Y3.2336
X-0.515Y1.7961
X-0.515Y1.5461
X-0.4808Y1.2833
X-0.4253Y3.1215
X-0.4213Y1.8898
X-0.3981Y3.7511
X-0.39Y1.9836
X-0.39Y1.7023
X-0.3086Y4.3307
X-0.2049Y4.6001
X-0.1962Y2.9719
X0.0094Y1.2912
X0.0392Y1.5922
X0.0431Y2.8245
X0.0524Y3.9496
X0.1725Y2.5148
X0.1971Y2.6652
X0.2023Y1.986
X0.2203Y4.482
X0.5317Y2.549
X0.7951Y4.7733
X0.86Y2.1711
X0.8782Y4.3679
X1.0271Y2.3522
X1.0787Y1.3898
X1.096Y2.1691
X1.61Y4.4211
X1.7662Y2.2961
X1.7975Y3.2023
X1.7975Y2.5461
X1.7975Y2.0148
X1.9132Y1.7497
X1.923Y1.5529
X2.0162Y1.5148
X2.0162Y1.3273
X2.0785Y3.9151
X2.0785Y3.8048
X2.235Y2.1398
X3.1725Y1.3273
X3.7662Y1.0148
X3.86Y4.4211
X4.3147Y1.7812
X4.3147Y1.6788
X4.3305Y3.8206
X4.3384Y3.9466
X4.3912Y1.2961
X4.5195Y3.7654
X4.5475Y1.8586
X4.5675Y4.7211
X4.6275Y4.6211
X4.7036Y3.9522
X4.7064Y3.89
X4.7079Y1.7055
X4.8457Y3.863
X4.8644Y1.6219
X4.9537Y2.4836
X5.6725Y2.4836
X5.735Y2.6711
X6.1411Y3.7957
X6.2348Y1.7332
X6.2348Y1.6082
X6.3514Y3.8577
X6.5018Y4.7161
X7.1725Y1.0148
X7.2975Y1.7023
X7.6412Y3.9523
X7.6455Y3.7648
X8.8251Y1.425
X9.394Y1.4093
X9.4537Y1.0148
X9.6203Y4.1632
X10.2975Y1.2961
X10.7037Y3.9836
X10.7037Y3.7961
X10.985Y0.8586
X11.0207Y4.77
X11.2345Y1.24
X11.3152Y4.5314
X11.3527Y3.9738
X11.3692Y4.5381
X11.4225Y2.2023
X11.4537Y1.6086
X11.4849Y1.7388
X11.485Y2.9211
X11.5787Y2.3586
X11.5889Y4.5204
X11.5928Y4.5698
X11.5954Y4.6257
X11.6113Y4.1385
X11.6723Y2.4519
X11.6725Y3.1086
X11.6951Y1.2006
X11.7037Y3.4523
X11.7332Y2.7652
X11.7364Y4.6297
X11.7566Y1.6263
X11.7625Y3.9486
X11.7727Y1.5732
X11.7779Y2.7101
X11.8322Y2.8043
X11.8833Y4.3739
X11.888Y1.6711
X11.9178Y2.8269
X12.0641Y3.7787
X12.1991Y3.7638
X12.2085Y2.1161
X12.2814Y2.0007
X12.2975Y1.5148
X12.2975Y1.3898
X12.2975Y1.2648
X12.2983Y2.3161
X12.3176Y2.8235
X12.3287Y1.7336
X12.3539Y2.7223
X12.3912Y1.6086
X12.4021Y3.8085
X12.4225Y1.8898
X12.4759Y2.8877
X12.6098Y3.7502
T3
X12.0473Y2.3969
X12.0473Y2.2969
X12.0473Y2.1969
X12.0473Y2.0969
X12.0473Y1.9969
X12.0473Y1.8969
X12.0473Y1.7969
X12.0473Y1.6969
X12.0473Y1.5969
X12.0473Y1.4969
X12.0473Y1.3969
X12.0473Y1.2969
X12.6465Y2.3969
X12.6465Y2.2969
X12.6465Y2.1969
X12.6465Y2.0969
X12.6465Y1.9969
X12.6465Y1.8969
X12.6465Y1.7969
X12.6465Y1.6969
X12.6465Y1.5969
X12.6465Y1.4969
X12.6465Y1.3969
X12.6465Y1.2969
X-0.8328Y2.3971
X-0.8328Y2.2971
X-0.8328Y2.1971
X-0.8328Y2.0971
X-0.8328Y1.9971
X-0.8328Y1.8971
X-0.8328Y1.7971
X-0.8328Y1.6971
X-0.8328Y1.5971
X-0.8328Y1.4971
X-0.8328Y1.3971
X-0.8328Y1.2971
X-0.2336Y2.3971
X-0.2336Y2.2971
X-0.2336Y2.1971
X-0.2336Y2.0971
X-0.2336Y1.9971
X-0.2336Y1.8971
X-0.2336Y1.7971
X-0.2336Y1.6971
X-0.2336Y1.5971
X-0.2336Y1.4971
X-0.2336Y1.3971
X-0.2336Y1.2971
X-0.7469Y3.581
X-0.6469Y3.581
X-0.5469Y3.581
X-0.4469Y3.581
X12.2636Y3.5806
X12.3636Y3.5806
X12.4636Y3.5806
X12.5636Y3.5806
T4
X12.3143Y4.5707
X12.3143Y3.9998
X12.4127Y3.9998
X12.5111Y4.5707
X12.5111Y3.9998
X-0.6963Y4.571
X-0.6963Y4.0002
X-0.5979Y4.0002
X-0.4995Y4.571
X-0.4995Y4.0002
X-0.1734Y4.464
X-0.1734Y4.364
X-0.1734Y4.264
X-0.1734Y4.164
X-0.5466Y3.3908
X-0.5466Y3.2923
X12.3598Y3.3894
X12.3598Y3.291
X11.9848Y4.4644
X11.9848Y4.3644
X11.9848Y4.2644
X11.9848Y4.1644
T5
X-0.515Y1.0772
X12.3286Y0.9207
T6
X5.6161Y3.6457
X5.8661Y3.7457
X6.9286Y2.1457
X7.1786Y2.2457
X1.585Y2.896
X1.835Y2.996
X0.7413Y2.146
X0.9913Y2.246
X-0.7484Y4.396
X-0.4984Y4.496
X4.7725Y4.396
X1.21Y2.146
X1.46Y2.246
X0.3663Y1.396
X0.6163Y1.496
X5.9911Y4.3957
X6.2411Y4.4957
X5.8036Y2.8957
X6.0536Y2.9957
X9.7411Y1.3957
X3.2725Y4.396
X3.5225Y4.496
X7.4911Y4.3957
X7.7411Y4.4957
X9.9911Y1.4957
X0.6163Y2.996
X5.0225Y4.496
X9.5536Y2.8957
X9.8036Y2.9957
X11.4286Y1.9582
X11.6786Y2.0582
X10.6786Y1.2082
X10.9286Y1.3082
X0.3663Y2.896
X8.8661Y3.7457
X8.9911Y1.3957
X9.2411Y1.4957
X0.2725Y4.396
X0.5225Y4.496
X8.1161Y3.7457
X6.8348Y1.3957
X9.5536Y1.3957
X9.8036Y1.4957
X8.4286Y1.3957
X8.6786Y1.4957
X2.96Y2.246
X0.5538Y2.896
X1.96Y2.146
X2.21Y2.246
X7.0848Y1.4957
X4.585Y2.896
X4.835Y2.996
X9.7411Y4.3957
X9.9911Y4.4957
X8.6161Y3.6457
X6.6161Y3.7457
X6.7411Y4.3957
X6.9911Y4.4957
X6.3661Y3.6457
X9.3661Y3.6457
X9.6161Y3.7457
X3.5538Y1.396
X3.8038Y1.496
X0.8038Y2.996
X4.0225Y4.396
X4.2725Y4.496
X7.8661Y3.6457
X2.71Y2.146
X0.3663Y2.146
X2.2413Y1.396
X2.4913Y1.496
X8.4286Y2.1457
X8.6786Y2.2457
X10.8661Y4.3957
X11.1161Y4.4957
X11.0536Y3.6457
X11.3036Y3.7457
X0.46Y3.646
X0.71Y3.746
X7.1161Y3.6457
X7.3661Y3.7457
X3.6475Y3.646
X3.8975Y3.746
X3.085Y2.896
X3.335Y2.996
X8.9911Y4.3957
X9.2411Y4.4957
X1.7725Y4.396
X2.0225Y4.496
X1.3975Y3.646
X1.6475Y3.746
X1.0225Y4.396
X1.2725Y4.496
X3.835Y2.896
X8.0536Y2.8957
X8.3036Y2.9957
X3.46Y2.146
X3.71Y2.246
X10.7723Y2.8957
X11.0223Y2.9957
X12.2621Y4.3956
X9.4286Y2.2457
X7.6786Y2.1457
X4.085Y2.996
X7.9286Y2.2457
X9.1786Y2.1457
X2.7725Y4.496
X1.3038Y1.396
X1.5538Y1.496
X12.5121Y4.4956
X2.5225Y4.396
X11.4975Y3.0773
X0.6163Y2.246
X11.3975Y3.3273
X2.335Y2.896
X10.2098Y2.1457
X4.3975Y3.646
X12.1786Y1.2082
X12.4286Y1.3082
X8.4911Y4.4957
X6.5536Y2.8957
X2.585Y2.996
X7.3036Y2.8957
X7.5536Y2.9957
X11.4286Y1.2082
X11.6786Y1.3082
X10.4598Y2.2457
X2.1475Y3.646
X2.3975Y3.746
X6.8036Y2.9957
X4.21Y2.146
X4.46Y2.246
X8.2411Y4.3957
X4.6475Y3.746
X8.8036Y2.8957
X9.0536Y2.9957
X10.4911Y4.3957
X10.7411Y4.4957
X2.8975Y3.646
X4.96Y2.146
X5.21Y2.246
X3.1475Y3.746
X10.3036Y2.8957
X4.8663Y1.396
X5.1163Y1.496
X11.2411Y4.3957
X11.4911Y4.4957
X8.2411Y1.3957
X6.1786Y2.1457
X6.4286Y2.2457
X8.4911Y1.4957
X10.1161Y3.6457
X10.3661Y3.7457
X10.5536Y2.9957
T2
G00X0.6273Y4.8924
M15
G01X0.6273Y4.8688
M16
G05
G00X0.6273Y4.7377
M15
G01X0.6273Y4.6944
M16
G05
G00X10.846Y4.8929
M15
G01X10.846Y4.8693
M16
G05
G00X10.846Y4.7382
M15
G01X10.846Y4.6949
M16
G05
G00X11.1861Y4.8929
M15
G01X11.1861Y4.8693
M16
G05
G00X11.1861Y4.7382
M15
G01X11.1861Y4.6949
M16
G05
G00X0.9675Y4.8924
M15
G01X0.9675Y4.8688
M16
G05
G00X0.9675Y4.7377
M15
G01X0.9675Y4.6944
M16
G05
T7
G00X12.1922Y4.2695
M15
G01X12.1922Y4.3207
M16
G05
G00X12.6332Y4.2695
M15
G01X12.6332Y4.3207
M16
G05
G00X-0.8184Y4.2699
M15
G01X-0.8184Y4.321
M16
G05
G00X-0.3774Y4.2699
M15
G01X-0.3774Y4.321
M16
G05
T0
M30
