%TF.GenerationSoftware,KiCad,Pcbnew,(5.1.4-0)*%
%TF.CreationDate,2022-08-29T09:53:46-04:00*%
%TF.ProjectId,Marvelous65 Split,4d617276-656c-46f7-9573-36352053706c,rev?*%
%TF.SameCoordinates,Original*%
%TF.FileFunction,Soldermask,Top*%
%TF.FilePolarity,Negative*%
%FSLAX46Y46*%
G04 Gerber Fmt 4.6, Leading zero omitted, Abs format (unit mm)*
G04 Created by KiCad (PCBNEW (5.1.4-0)) date 2022-08-29 09:53:46*
%MOMM*%
%LPD*%
G04 APERTURE LIST*
%ADD10C,1.750000*%
%ADD11C,3.987800*%
%ADD12C,0.787400*%
%ADD13C,3.048000*%
%ADD14C,0.900000*%
%ADD15C,1.524000*%
%ADD16C,2.500000*%
%ADD17C,2.000000*%
%ADD18R,2.000000X3.200000*%
%ADD19R,2.000000X2.000000*%
%ADD20C,1.397000*%
%ADD21C,0.100000*%
%ADD22C,1.700000*%
%ADD23O,2.000000X1.700000*%
%ADD24C,1.500000*%
%ADD25R,1.700000X1.700000*%
%ADD26O,1.700000X1.700000*%
%ADD27O,1.000000X1.600000*%
%ADD28C,0.650000*%
%ADD29O,1.000000X2.100000*%
G04 APERTURE END LIST*
D10*
%TO.C,K_T1*%
X120586950Y90067405D03*
X110426950Y90067405D03*
D11*
X115506950Y90067405D03*
%TD*%
D12*
%TO.C,REF\002A\002A*%
X151479115Y54510405D03*
X151479115Y53240405D03*
X151479115Y49430405D03*
X151479115Y50700405D03*
X151479115Y51970405D03*
%TD*%
%TO.C,REF\002A\002A*%
X139064865Y49430405D03*
X139064865Y50700405D03*
X139064865Y54510405D03*
X139064865Y53240405D03*
X139064865Y51970405D03*
%TD*%
%TO.C,REF\002A\002A*%
X151479115Y35460405D03*
X151479115Y34190405D03*
X151479115Y30380405D03*
X151479115Y31650405D03*
X151479115Y32920405D03*
%TD*%
%TO.C,REF\002A\002A*%
X139064865Y30380405D03*
X139064865Y31650405D03*
X139064865Y35460405D03*
X139064865Y34190405D03*
X139064865Y32920405D03*
%TD*%
%TO.C,REF\002A\002A*%
X141954115Y73560405D03*
X141954115Y72290405D03*
X141954115Y68480405D03*
X141954115Y69750405D03*
X141954115Y71020405D03*
%TD*%
%TO.C,REF\002A\002A*%
X129539865Y68480405D03*
X129539865Y69750405D03*
X129539865Y73560405D03*
X129539865Y72290405D03*
X129539865Y71020405D03*
%TD*%
%TO.C,REF\002A\002A*%
X124777365Y87530405D03*
X124777365Y88800405D03*
X124777365Y92610405D03*
X124777365Y91340405D03*
X124777365Y90070405D03*
%TD*%
%TO.C,REF\002A\002A*%
X137191615Y92610405D03*
X137191615Y91340405D03*
X137191615Y87530405D03*
X137191615Y88800405D03*
X137191615Y90070405D03*
%TD*%
%TO.C,REF\002A\002A*%
X146716615Y111660405D03*
X146716615Y110390405D03*
X146716615Y106580405D03*
X146716615Y107850405D03*
X146716615Y109120405D03*
%TD*%
%TO.C,REF\002A\002A*%
X134302365Y106580405D03*
X134302365Y107850405D03*
X134302365Y111660405D03*
X134302365Y110390405D03*
X134302365Y109120405D03*
%TD*%
D11*
%TO.C,ISO_ENTER1*%
X278701365Y92642155D03*
X278701365Y68766155D03*
D13*
X293941365Y92642155D03*
X293941365Y68766155D03*
D10*
X286956365Y75624155D03*
X286956365Y85784155D03*
D11*
X286956365Y80704155D03*
%TD*%
%TO.C,K_N1*%
X160745700Y51960575D03*
D10*
X155665700Y51960575D03*
X165825700Y51960575D03*
%TD*%
D11*
%TO.C,K_SPACE2*%
X105981950Y41172405D03*
X82169450Y41172405D03*
D13*
X105981950Y25932405D03*
X82169450Y25932405D03*
D10*
X99155700Y32917405D03*
X88995700Y32917405D03*
D11*
X94075700Y32917405D03*
%TD*%
D14*
%TO.C,SW6*%
X-19603635Y82985405D03*
X-19603635Y85985405D03*
%TD*%
D10*
%TO.C,K_FN2*%
X132493200Y32917405D03*
X122333200Y32917405D03*
D11*
X127413200Y32917405D03*
%TD*%
%TO.C,K_LSHIFT1*%
X34544450Y43712405D03*
X10731950Y43712405D03*
D13*
X34544450Y58952405D03*
X10731950Y58952405D03*
D10*
X27718200Y51967405D03*
X17558200Y51967405D03*
D11*
X22638200Y51967405D03*
%TD*%
D15*
%TO.C,U3*%
X-21153635Y60885405D03*
X-21153635Y58345405D03*
X-21153635Y55805405D03*
X-21153635Y53265405D03*
X-21153635Y50725405D03*
X-21153635Y48185405D03*
X-21153635Y45645405D03*
X-21153635Y43105405D03*
X-21153635Y40565405D03*
X-21153635Y38025405D03*
X-21153635Y35485405D03*
X-21153635Y32945405D03*
X-5933635Y32945405D03*
X-5933635Y35485405D03*
X-5933635Y38025405D03*
X-5933635Y40565405D03*
X-5933635Y43105405D03*
X-5933635Y45645405D03*
X-5933635Y48185405D03*
X-5933635Y50725405D03*
X-5933635Y53265405D03*
X-5933635Y55805405D03*
X-5933635Y58345405D03*
X-5933635Y60885405D03*
%TD*%
D16*
%TO.C,TP2*%
X-13080550Y27361155D03*
%TD*%
D17*
%TO.C,SW5*%
X-12686561Y116104566D03*
X-17686561Y116104566D03*
D18*
X-9586561Y109104566D03*
X-20786561Y109104566D03*
D17*
X-12686561Y101604566D03*
X-15186561Y101604566D03*
D19*
X-17686561Y101604566D03*
%TD*%
D20*
%TO.C,OL2*%
X-11352257Y90957748D03*
X-13892257Y90957748D03*
X-16432257Y90957748D03*
X-18972257Y90957748D03*
%TD*%
D11*
%TO.C,L_ENC1*%
X-15200243Y109117305D03*
D10*
X-20280243Y109117305D03*
X-10120243Y109117305D03*
%TD*%
%TO.C,K_Z1*%
X58674450Y51967405D03*
X48514450Y51967405D03*
D11*
X53594450Y51967405D03*
%TD*%
D10*
%TO.C,K_X1*%
X77724450Y51967405D03*
X67564450Y51967405D03*
D11*
X72644450Y51967405D03*
%TD*%
D10*
%TO.C,K_WIN1*%
X42005700Y32917405D03*
X31845700Y32917405D03*
D11*
X36925700Y32917405D03*
%TD*%
D10*
%TO.C,K_W1*%
X63436950Y90067405D03*
X53276950Y90067405D03*
D11*
X58356950Y90067405D03*
%TD*%
D10*
%TO.C,K_V1*%
X115824450Y51967405D03*
X105664450Y51967405D03*
D11*
X110744450Y51967405D03*
%TD*%
D10*
%TO.C,K_TAB1*%
X20574450Y90067405D03*
X10414450Y90067405D03*
D11*
X15494450Y90067405D03*
%TD*%
D10*
%TO.C,K_SHIFT_ISO1*%
X18193200Y51967405D03*
X8033200Y51967405D03*
D11*
X13113200Y51967405D03*
%TD*%
D10*
%TO.C,K_S1*%
X68199450Y71017405D03*
X58039450Y71017405D03*
D11*
X63119450Y71017405D03*
%TD*%
D10*
%TO.C,K_R1*%
X101536950Y90067405D03*
X91376950Y90067405D03*
D11*
X96456950Y90067405D03*
%TD*%
D10*
%TO.C,K_Q1*%
X44386950Y90067405D03*
X34226950Y90067405D03*
D11*
X39306950Y90067405D03*
%TD*%
D10*
%TO.C,K_NUM6*%
X130111950Y109117405D03*
X119951950Y109117405D03*
D11*
X125031950Y109117405D03*
%TD*%
D10*
%TO.C,K_NUM5*%
X111061950Y109117405D03*
X100901950Y109117405D03*
D11*
X105981950Y109117405D03*
%TD*%
D10*
%TO.C,K_NUM4*%
X92011950Y109117405D03*
X81851950Y109117405D03*
D11*
X86931950Y109117405D03*
%TD*%
D10*
%TO.C,K_NUM3*%
X72961950Y109117405D03*
X62801950Y109117405D03*
D11*
X67881950Y109117405D03*
%TD*%
D10*
%TO.C,K_NUM2*%
X53911950Y109117405D03*
X43751950Y109117405D03*
D11*
X48831950Y109117405D03*
%TD*%
D10*
%TO.C,K_NUM1*%
X34861950Y109117405D03*
X24701950Y109117405D03*
D11*
X29781950Y109117405D03*
%TD*%
D10*
%TO.C,K_ISO_K1*%
X39624450Y51967405D03*
X29464450Y51967405D03*
D11*
X34544450Y51967405D03*
%TD*%
D10*
%TO.C,K_GRAVE1*%
X15811950Y109117405D03*
X5651950Y109117405D03*
D11*
X10731950Y109117405D03*
%TD*%
D10*
%TO.C,K_G1*%
X125349450Y71017405D03*
X115189450Y71017405D03*
D11*
X120269450Y71017405D03*
%TD*%
D10*
%TO.C,K_F1*%
X106299450Y71017405D03*
X96139450Y71017405D03*
D11*
X101219450Y71017405D03*
%TD*%
D10*
%TO.C,K_E1*%
X82486950Y90067405D03*
X72326950Y90067405D03*
D11*
X77406950Y90067405D03*
%TD*%
D10*
%TO.C,K_D1*%
X87249450Y71017405D03*
X77089450Y71017405D03*
D11*
X82169450Y71017405D03*
%TD*%
D10*
%TO.C,K_CTRL3*%
X18193200Y32917405D03*
X8033200Y32917405D03*
D11*
X13113200Y32917405D03*
%TD*%
D10*
%TO.C,K_CAPS_STEP1*%
X18193200Y71017405D03*
X8033200Y71017405D03*
D11*
X13113200Y71017405D03*
%TD*%
D10*
%TO.C,K_CAPS1*%
X22955700Y71017405D03*
X12795700Y71017405D03*
D11*
X17875700Y71017405D03*
%TD*%
D10*
%TO.C,K_C1*%
X96774450Y51967405D03*
X86614450Y51967405D03*
D11*
X91694450Y51967405D03*
%TD*%
D10*
%TO.C,K_B1*%
X134874450Y51967405D03*
X124714450Y51967405D03*
D11*
X129794450Y51967405D03*
%TD*%
D10*
%TO.C,K_ALT3*%
X65818200Y32917405D03*
X55658200Y32917405D03*
D11*
X60738200Y32917405D03*
%TD*%
D10*
%TO.C,K_A1*%
X49149450Y71017405D03*
X38989450Y71017405D03*
D11*
X44069450Y71017405D03*
%TD*%
D21*
%TO.C,J8*%
G36*
X-13109131Y86974201D02*
G01*
X-13084862Y86970601D01*
X-13061064Y86964640D01*
X-13037964Y86956375D01*
X-13015786Y86945885D01*
X-12994742Y86933272D01*
X-12975037Y86918658D01*
X-12956858Y86902182D01*
X-12940382Y86884003D01*
X-12925768Y86864298D01*
X-12913155Y86843254D01*
X-12902665Y86821076D01*
X-12894400Y86797976D01*
X-12888439Y86774178D01*
X-12884839Y86749909D01*
X-12883635Y86725405D01*
X-12883635Y85525405D01*
X-12884839Y85500901D01*
X-12888439Y85476632D01*
X-12894400Y85452834D01*
X-12902665Y85429734D01*
X-12913155Y85407556D01*
X-12925768Y85386512D01*
X-12940382Y85366807D01*
X-12956858Y85348628D01*
X-12975037Y85332152D01*
X-12994742Y85317538D01*
X-13015786Y85304925D01*
X-13037964Y85294435D01*
X-13061064Y85286170D01*
X-13084862Y85280209D01*
X-13109131Y85276609D01*
X-13133635Y85275405D01*
X-14633635Y85275405D01*
X-14658139Y85276609D01*
X-14682408Y85280209D01*
X-14706206Y85286170D01*
X-14729306Y85294435D01*
X-14751484Y85304925D01*
X-14772528Y85317538D01*
X-14792233Y85332152D01*
X-14810412Y85348628D01*
X-14826888Y85366807D01*
X-14841502Y85386512D01*
X-14854115Y85407556D01*
X-14864605Y85429734D01*
X-14872870Y85452834D01*
X-14878831Y85476632D01*
X-14882431Y85500901D01*
X-14883635Y85525405D01*
X-14883635Y86725405D01*
X-14882431Y86749909D01*
X-14878831Y86774178D01*
X-14872870Y86797976D01*
X-14864605Y86821076D01*
X-14854115Y86843254D01*
X-14841502Y86864298D01*
X-14826888Y86884003D01*
X-14810412Y86902182D01*
X-14792233Y86918658D01*
X-14772528Y86933272D01*
X-14751484Y86945885D01*
X-14729306Y86956375D01*
X-14706206Y86964640D01*
X-14682408Y86970601D01*
X-14658139Y86974201D01*
X-14633635Y86975405D01*
X-13133635Y86975405D01*
X-13109131Y86974201D01*
X-13109131Y86974201D01*
G37*
D22*
X-13883635Y86125405D03*
D23*
X-13883635Y83625405D03*
%TD*%
D24*
%TO.C,J7*%
X115504450Y122577405D03*
X115504450Y115577405D03*
%TD*%
D25*
%TO.C,J6*%
X-4403635Y113385405D03*
D26*
X-4403635Y110845405D03*
X-4403635Y108305405D03*
X-4403635Y105765405D03*
%TD*%
D27*
%TO.C,J5*%
X24574450Y123967405D03*
D28*
X23144450Y120317405D03*
D27*
X15934450Y123967405D03*
D28*
X17364450Y120317405D03*
D29*
X15934450Y119787405D03*
X24574450Y119787405D03*
%TD*%
D16*
%TO.C,TP1*%
X313145700Y23385575D03*
%TD*%
D11*
%TO.C,K_SPACE1*%
X177414450Y32910575D03*
D10*
X172334450Y32910575D03*
X182494450Y32910575D03*
D13*
X165508200Y25925575D03*
X189320700Y25925575D03*
D11*
X165508200Y41165575D03*
X189320700Y41165575D03*
%TD*%
D15*
%TO.C,U1*%
X306001950Y60882325D03*
X306001950Y58342325D03*
X306001950Y55802325D03*
X306001950Y53262325D03*
X306001950Y50722325D03*
X306001950Y48182325D03*
X306001950Y45642325D03*
X306001950Y43102325D03*
X306001950Y40562325D03*
X306001950Y38022325D03*
X306001950Y35482325D03*
X306001950Y32942325D03*
X321221950Y32942325D03*
X321221950Y35482325D03*
X321221950Y38022325D03*
X321221950Y40562325D03*
X321221950Y43102325D03*
X321221950Y45642325D03*
X321221950Y48182325D03*
X321221950Y50722325D03*
X321221950Y53262325D03*
X321221950Y55802325D03*
X321221950Y58342325D03*
X321221950Y60882325D03*
%TD*%
D19*
%TO.C,SW3*%
X312782082Y101594687D03*
D17*
X315282082Y101594687D03*
X317782082Y101594687D03*
D18*
X309682082Y109094687D03*
X320882082Y109094687D03*
D17*
X312782082Y116094687D03*
X317782082Y116094687D03*
%TD*%
D14*
%TO.C,SW1*%
X319668200Y82960575D03*
X319668200Y85960575D03*
%TD*%
D20*
%TO.C,OL1*%
X311496385Y90947868D03*
X314036385Y90947868D03*
X316576385Y90947868D03*
X319116385Y90947868D03*
%TD*%
D11*
%TO.C,K_Y1*%
X146458200Y90060575D03*
D10*
X141378200Y90060575D03*
X151538200Y90060575D03*
%TD*%
D11*
%TO.C,K_UP1*%
X294095700Y47198075D03*
D10*
X289015700Y47198075D03*
X299175700Y47198075D03*
%TD*%
D11*
%TO.C,K_U1*%
X165508200Y90060575D03*
D10*
X160428200Y90060575D03*
X170588200Y90060575D03*
%TD*%
D11*
%TO.C,K_SLASH1*%
X236945700Y51960575D03*
D10*
X231865700Y51960575D03*
X242025700Y51960575D03*
%TD*%
D11*
%TO.C,K_RSHIFT1*%
X263139450Y51960575D03*
D10*
X258059450Y51960575D03*
X268219450Y51960575D03*
%TD*%
D11*
%TO.C,K_RIGHT1*%
X313145700Y28148075D03*
D10*
X308065700Y28148075D03*
X318225700Y28148075D03*
%TD*%
D11*
%TO.C,K_R_PAR1*%
X260758200Y90060575D03*
D10*
X255678200Y90060575D03*
X265838200Y90060575D03*
%TD*%
D11*
%TO.C,K_QUOTE1*%
X246470700Y71010575D03*
D10*
X241390700Y71010575D03*
X251550700Y71010575D03*
%TD*%
D11*
%TO.C,K_P1*%
X222658200Y90060575D03*
D10*
X217578200Y90060575D03*
X227738200Y90060575D03*
%TD*%
D11*
%TO.C,K_O1*%
X203608200Y90060575D03*
D10*
X198528200Y90060575D03*
X208688200Y90060575D03*
%TD*%
D11*
%TO.C,K_NUM9*%
X194083200Y109110575D03*
D10*
X189003200Y109110575D03*
X199163200Y109110575D03*
%TD*%
D11*
%TO.C,K_NUM8*%
X175033200Y109110575D03*
D10*
X169953200Y109110575D03*
X180113200Y109110575D03*
%TD*%
D11*
%TO.C,K_NUM7*%
X155983200Y109110575D03*
D10*
X150903200Y109110575D03*
X161063200Y109110575D03*
%TD*%
D11*
%TO.C,K_NUM0*%
X213133200Y109110575D03*
D10*
X208053200Y109110575D03*
X218213200Y109110575D03*
%TD*%
D11*
%TO.C,K_MINUS1*%
X232183200Y109110575D03*
D10*
X227103200Y109110575D03*
X237263200Y109110575D03*
%TD*%
D11*
%TO.C,K_M1*%
X179795700Y51960575D03*
D10*
X174715700Y51960575D03*
X184875700Y51960575D03*
%TD*%
D11*
%TO.C,K_LEFT1*%
X275045700Y28148075D03*
D10*
X269965700Y28148075D03*
X280125700Y28148075D03*
%TD*%
D11*
%TO.C,K_L_PAR1*%
X241708200Y90060575D03*
D10*
X236628200Y90060575D03*
X246788200Y90060575D03*
%TD*%
D11*
%TO.C,K_L1*%
X208370700Y71010575D03*
D10*
X203290700Y71010575D03*
X213450700Y71010575D03*
%TD*%
D11*
%TO.C,K_K1*%
X189320700Y71010575D03*
D10*
X184240700Y71010575D03*
X194400700Y71010575D03*
%TD*%
D11*
%TO.C,K_J1*%
X170270700Y71010575D03*
D10*
X165190700Y71010575D03*
X175350700Y71010575D03*
%TD*%
D11*
%TO.C,K_I1*%
X184558200Y90060575D03*
D10*
X179478200Y90060575D03*
X189638200Y90060575D03*
%TD*%
D11*
%TO.C,K_H1*%
X151220700Y71010575D03*
D10*
X146140700Y71010575D03*
X156300700Y71010575D03*
%TD*%
D11*
%TO.C,K_FN1*%
X232183200Y32910575D03*
D10*
X227103200Y32910575D03*
X237263200Y32910575D03*
%TD*%
D11*
%TO.C,K_EQUAL1*%
X251233200Y109110575D03*
D10*
X246153200Y109110575D03*
X256313200Y109110575D03*
%TD*%
D11*
%TO.C,K_ENTER1*%
X277426950Y71010575D03*
D10*
X272346950Y71010575D03*
X282506950Y71010575D03*
D13*
X265520700Y77995575D03*
X289333200Y77995575D03*
D11*
X265520700Y62755575D03*
X289333200Y62755575D03*
%TD*%
%TO.C,K_ENC1*%
X315268400Y109107425D03*
D10*
X310188400Y109107425D03*
X320348400Y109107425D03*
%TD*%
D11*
%TO.C,K_DOWN1*%
X294095700Y28148075D03*
D10*
X289015700Y28148075D03*
X299175700Y28148075D03*
%TD*%
D11*
%TO.C,K_DOT1*%
X217895700Y51960575D03*
D10*
X212815700Y51960575D03*
X222975700Y51960575D03*
%TD*%
D11*
%TO.C,K_DEL1*%
X289333200Y109110575D03*
D10*
X284253200Y109110575D03*
X294413200Y109110575D03*
%TD*%
D11*
%TO.C,K_CTRL2*%
X251233200Y32910575D03*
D10*
X246153200Y32910575D03*
X256313200Y32910575D03*
%TD*%
D11*
%TO.C,K_CTRL1*%
X246470700Y32910575D03*
D10*
X241390700Y32910575D03*
X251550700Y32910575D03*
%TD*%
D11*
%TO.C,K_COMMA1*%
X198845700Y51960575D03*
D10*
X193765700Y51960575D03*
X203925700Y51960575D03*
%TD*%
D11*
%TO.C,K_COLON1*%
X227420700Y71010575D03*
D10*
X222340700Y71010575D03*
X232500700Y71010575D03*
%TD*%
D11*
%TO.C,K_BSPC2*%
X270283200Y109110575D03*
D10*
X265203200Y109110575D03*
X275363200Y109110575D03*
%TD*%
D11*
%TO.C,K_BSPC1*%
X279808200Y109110575D03*
D10*
X274728200Y109110575D03*
X284888200Y109110575D03*
D13*
X267901950Y116095575D03*
X291714450Y116095575D03*
D11*
X267901950Y100855575D03*
X291714450Y100855575D03*
%TD*%
%TO.C,K_BACKSLASH1*%
X284570700Y90060575D03*
D10*
X279490700Y90060575D03*
X289650700Y90060575D03*
%TD*%
D11*
%TO.C,K_ALT2*%
X213133200Y32910575D03*
D10*
X208053200Y32910575D03*
X218213200Y32910575D03*
%TD*%
D11*
%TO.C,K_ALT1*%
X217895700Y32910575D03*
D10*
X212815700Y32910575D03*
X222975700Y32910575D03*
%TD*%
D23*
%TO.C,J4*%
X313939450Y86091825D03*
D21*
G36*
X314713954Y84440621D02*
G01*
X314738223Y84437021D01*
X314762021Y84431060D01*
X314785121Y84422795D01*
X314807299Y84412305D01*
X314828343Y84399692D01*
X314848048Y84385078D01*
X314866227Y84368602D01*
X314882703Y84350423D01*
X314897317Y84330718D01*
X314909930Y84309674D01*
X314920420Y84287496D01*
X314928685Y84264396D01*
X314934646Y84240598D01*
X314938246Y84216329D01*
X314939450Y84191825D01*
X314939450Y82991825D01*
X314938246Y82967321D01*
X314934646Y82943052D01*
X314928685Y82919254D01*
X314920420Y82896154D01*
X314909930Y82873976D01*
X314897317Y82852932D01*
X314882703Y82833227D01*
X314866227Y82815048D01*
X314848048Y82798572D01*
X314828343Y82783958D01*
X314807299Y82771345D01*
X314785121Y82760855D01*
X314762021Y82752590D01*
X314738223Y82746629D01*
X314713954Y82743029D01*
X314689450Y82741825D01*
X313189450Y82741825D01*
X313164946Y82743029D01*
X313140677Y82746629D01*
X313116879Y82752590D01*
X313093779Y82760855D01*
X313071601Y82771345D01*
X313050557Y82783958D01*
X313030852Y82798572D01*
X313012673Y82815048D01*
X312996197Y82833227D01*
X312981583Y82852932D01*
X312968970Y82873976D01*
X312958480Y82896154D01*
X312950215Y82919254D01*
X312944254Y82943052D01*
X312940654Y82967321D01*
X312939450Y82991825D01*
X312939450Y84191825D01*
X312940654Y84216329D01*
X312944254Y84240598D01*
X312950215Y84264396D01*
X312958480Y84287496D01*
X312968970Y84309674D01*
X312981583Y84330718D01*
X312996197Y84350423D01*
X313012673Y84368602D01*
X313030852Y84385078D01*
X313050557Y84399692D01*
X313071601Y84412305D01*
X313093779Y84422795D01*
X313116879Y84431060D01*
X313140677Y84437021D01*
X313164946Y84440621D01*
X313189450Y84441825D01*
X314689450Y84441825D01*
X314713954Y84440621D01*
X314713954Y84440621D01*
G37*
D22*
X313939450Y83591825D03*
%TD*%
D24*
%TO.C,J3*%
X165512615Y115626655D03*
X165512615Y122626655D03*
%TD*%
D26*
%TO.C,J2*%
X304414450Y105776825D03*
X304414450Y108316825D03*
X304414450Y110856825D03*
D25*
X304414450Y113396825D03*
%TD*%
D29*
%TO.C,J1*%
X284128200Y119800575D03*
X275488200Y119800575D03*
D28*
X276918200Y120330575D03*
D27*
X275488200Y123980575D03*
D28*
X282698200Y120330575D03*
D27*
X284128200Y123980575D03*
%TD*%
D11*
%TO.C,ISO_KEY1*%
X265520700Y71010575D03*
D10*
X260440700Y71010575D03*
X270600700Y71010575D03*
%TD*%
M02*
